<svg version="1.2" xmlns="http://www.w3.org/2000/svg" viewBox="0 0 1920 1080" width="1920" height="1080">
	<title>18493047_6006332-ai</title>
	<defs>
		<clipPath clipPathUnits="userSpaceOnUse" id="cp1">
			<path d="m1920.25 1081.28h-1920.8v-1079.61h1920.8z"/>
		</clipPath>
	</defs>
	<style>
		tspan { white-space:pre } 
		.s0 { fill: #ffffff } 
		.s1 { fill: #cfe7ff } 
		.s2 { fill: #cfe7ff } 
		.s3 { fill: #cfe7ff } 
		.s4 { fill: #cfe7ff } 
		.s5 { fill: #cfe7ff } 
		.s6 { fill: #cfe7ff } 
	</style>
	<g id="BACKGROUND">
		<path id="&lt;Path&gt;" class="s0" d="m0.9 0.1h1919v1079.4h-1919z"/>
	</g>
	<g id="OBJECTS">
		<g id="OBJECTS 1 " clip-path="url(#cp1)">
			<g id="&lt;Group&gt;">
				<g id="&lt;Group&gt;">
				</g>
				<g id="&lt;Group&gt;">
				</g>
			</g>
			<g id="&lt;Group&gt;" style="opacity: .3">
				<path id="&lt;Path&gt;" class="s1" d="m1379.1 1817.4c-42.7 3.5-86 7.1-128.9-3.2-43-10.3-86.4-36-115.3-81.1-35.9-55.8-44.5-131.4-71.7-194.6-43.7-101.4-134.2-144.6-217.4-180.6-83.2-36-166.4-72.6-242.7-132.1-48.1-37.5-94.1-100.7-91.2-171.2 2.4-57.5 38.2-101.7 79.1-119 40.8-17.4 89.1-24.1 130.4-7.5 279.2 112.2 379.2-84.8 503.1-111 73.9-15.7 155.4 21 179.7 72.5 63.6 135-17.5 196.1 231.1 346.7 256.2 155.2 50.8 549.7-247.6 578z"/>
			</g>
			<g id="&lt;Group&gt;">
				<path id="&lt;Path&gt;" class="s2" d="m251.4-24.7c-32.4 5.8-60.8 24.9-81.5 50.2-22.8 27.9-35.2 62.5-39.5 98-10 83.9 22.4 164.2 42.5 244.1 19.6 78 28.8 165.5-11.8 238.6-17.8 32.2-45.4 58.9-79.3 73.5-16.7 7.2-34.6 11.3-52.8 11.3-18.7 0.1-37.2-3.9-54.7-10.3-69.9-25.6-124.8-87.3-200.7-97.5-8.8-1.2-17.7-1.6-26.6-1.1-1.9 0.1-1.6 3 0.3 2.9 38.3-2.1 74.5 13.3 107.2 31.9 32.8 18.6 63.3 41.3 97.4 57.5 32.6 15.5 68.7 24.4 104.6 16.5 34.1-7.4 64.9-27.6 87.3-54.2 51.1-60.7 55.4-145.9 42.5-220.8-14.6-84-51.8-164.1-54.6-250.2-1.3-38.3 4.5-77.8 22.8-111.9 16-29.8 41.5-55.5 73.1-68.5 7.8-3.2 15.8-5.6 24.1-7.1 1.9-0.3 1.6-3.2-0.3-2.9z"/>
			</g>
			<g id="&lt;Group&gt;">
				<g id="&lt;Group&gt;">
					<path id="&lt;Path&gt;" class="s2" d="m1732.4 1148c44-14.8 79.7-50.2 96.2-93.4 8.3-21.6 11-44.8 9.4-67.8-1.7-23.5-7.6-46.3-14.8-68.6-14.8-45.3-35.6-89.1-42.2-136.6-3.2-23.5-2.2-47.3 3.9-70.3 6.2-23.1 17.1-45 32-63.7 31.8-40.1 81.8-63.8 132.9-64.2q9.5-0.1 19 0.9c2.8 0.3 3-4.2 0.1-4.5-51.1-5.3-104 12.9-140.8 48.7-34.1 33.2-53.9 80.4-53.5 128 0.5 48 19.4 93.2 35.5 137.7 15.8 43.8 30.8 91.2 20.5 138.1-9.9 45.2-41.6 85-83.4 104.9q-7.7 3.7-15.9 6.4c-2.7 0.9-1.7 5.3 1.1 4.4z"/>
				</g>
				<g id="&lt;Group&gt;">
					<path id="&lt;Path&gt;" class="s2" d="m1892.6 539.3c-22.5-0.1-44.6 7.5-62.6 20.9-5 3.7-9.6 7.9-13.8 12.5-1.9 2.1 1.2 5.4 3.1 3.2 14.6-15.8 34.2-26.5 55.3-30.5q8.9-1.6 17.9-1.6c2.9 0 3-4.5 0.1-4.5z"/>
				</g>
			</g>
			<g id="&lt;Group&gt;">
				<g id="&lt;Group&gt;">
					<g id="&lt;Group&gt;">
						<path id="&lt;Path&gt;" class="s1" d="m-25.7 699.3c-2.9 46.4 16.4 92.8 50.3 124.4 16.9 15.8 37.3 27 59.2 34.2 22.4 7.2 45.8 10.4 69.2 12.1 47.4 3.4 95.9 0.6 142.4 12.4 23 5.8 44.7 15.7 63.6 30 19.1 14.5 35.2 32.8 47 53.6 25.2 44.6 28.3 99.9 9.4 147.4q-3.5 8.8-7.9 17.2c-1.4 2.5 2.7 4.3 4.1 1.8 24.1-45.4 27.2-101.2 7.9-148.8-18-44.1-54.2-80.2-98.4-97.7-44.7-17.7-93.7-17.1-141-19-46.5-1.8-96-5.8-135.6-33-38.2-26.2-63.1-70.6-65.8-116.8q-0.5-8.5 0-17.1c0.2-2.8-4.2-3.6-4.4-0.7z"/>
					</g>
					<g id="&lt;Group&gt;">
						<path id="&lt;Path&gt;" class="s1" d="m477.8 1077c8.5-20.8 9.9-44.2 4.2-65.9-1.5-6-3.7-11.9-6.3-17.5-1.2-2.6-5.4-0.9-4.2 1.7 9.2 19.4 11.7 41.6 7.4 62.6q-1.8 8.9-5.2 17.3c-1.1 2.7 3 4.5 4.1 1.8z"/>
					</g>
				</g>
			</g>
			<g id="&lt;Group&gt;">
				<path id="&lt;Path&gt;" class="s3" d="m62.4-220.3c17.8 18.7 31.3 34.5 43.8 57.1 12.5 22.6 19.2 49.7 13 75.5-7.8 32-33.5 57-47.4 87-22.2 48.3-11.5 103.9 6.5 152.2 18.1 48.3 43.2 94.5 49.6 146.1 4 32.5-2.7 71.2-30.9 89.4-23 14.9-53.7 10.7-76-3.2-22.3-14-43.4-34.3-52.8-57.9-63.9-159.5-178.2-150.3-235.4-200.3-46.5-40.6-51.5-77.3-41-102.8 27.5-66.7 82.1-46.4 44.7-202.5-38.5-160.8 194.1-176.4 319.3-47.1z"/>
			</g>
			<g id="&lt;Group&gt;">
				<path id="&lt;Path&gt;" class="s3" d="m2488.5-354.9c-8.7 33.7-13.1 53.5-30.2 84-17 30.6-43.2 57.6-77.4 68.9-42.2 14-89.3 2.3-133.7 7.9-71.3 9-127.5 61.1-170 116.3-42.5 55.2-77.6 117.1-132.3 161.3-34.5 27.9-83.7 47.9-124.8 28.5-33.5-15.8-50.7-54-50.6-89.6 0-35.6 8.3-74.4 28.6-102 137.5-187.3 45.3-312.1 61.8-413.5 13.4-82.4 51.9-114.4 88.7-120.5 96.2-16.1 111.9 61 264.4-93.4 157.1-159.2 339.2 94.3 280.3 330.5z"/>
			</g>
			<g id="&lt;Group&gt;">
				<path id="&lt;Path&gt;" class="s3" d="m1732.3 1417.5c-15.8-31-25.7-48.7-33.2-82.9-7.6-34.1-5.9-71.7 12.1-102.9 22.3-38.5 65.2-61 94.7-94.7 47.4-54 54.8-130.3 49.9-199.8-4.9-69.5-19.7-139.1-8.2-208.5 7.3-43.7 30.8-91.4 74.3-104.2 35.6-10.4 73.8 6.7 97.4 33.4 23.6 26.7 43.1 61.1 46.3 95.3 21.7 231.3 173.5 263.3 228.5 350.1 44.7 70.5 37.1 120 13.7 149-61.2 75.9-124.2 28.7-135.6 245.5-11.7 223.3-316.3 154.7-429.1-61z"/>
			</g>
			<g id="&lt;Group&gt;">
				<path id="&lt;Path&gt;" class="s3" d="m508.6-493.9c46.3-0.9 93.2-1.9 138.4 8.9 45.3 10.8 89.4 34.7 116.2 74.3 33.2 49 35.2 113.6 58.4 168.5 37.2 88.1 124.2 141.3 210.3 175.9 86.1 34.5 178.1 57.1 254.5 111.2 48.1 34.2 91.6 90 81.6 149.6-8.2 48.6-50.9 84.4-96.6 97.2-45.7 12.8-98.3 16.2-141 0.1-289.6-108.5-416.2 54.7-552.1 70.2-110.3 12.5-165.2-25.3-186.4-70.2-55.3-117.4 37.8-165.4-215.1-305-260.7-143.8-1.6-468.7 322.3-478.5"/>
			</g>
			<g id="&lt;Group&gt;" style="opacity: .6">
				<g id="&lt;Group&gt;">
					<path id="&lt;Compound Path&gt;" fill-rule="evenodd" class="s4" d="m1648.9 679.9c-9.4 4.8-20 6.5-30.4 5.1 1.5 0.8 2.7 1.9 3 3.5 0.6 2.6-1.1 4.5-3.3 5.5-5.9 2.5-13.9-1.1-18.1-6.1q-0.2 0.6-0.4 1.2c-1.6 4.4-6.3 7.7-9.7 10.5q-7 6-14.2 11.6c-10.4 8-21.2 15.4-32.3 22.2q-6.9 4.2-13.9 8.1c-3.9 2.2-7.3 4.9-11.7 2.8-0.8-0.3-1.1-1.4-0.5-2.2 10.8-12.7 22.3-24.8 34.4-36.2q9.3-8.8 19.1-17c5.6-4.6 11-9.5 17.6-12.5 0.3-0.5 0.9-0.9 1.6-0.7q0 0 0 0c0.5-0.2 0.9 0 1.1 0.4q0.1 0 0.1 0.1c-0.3-6.7 2.8-18.4 10.1-20.9 6.6-2.2 4.9 6.6 3.6 11.5 7.7-8.6 18.1-14.5 29.3-17.3 9.1-2.3 26.4-4.9 30.1 6.8 3.3 10.8-7.1 19.3-15.5 23.6zm-55 0.8c-1.3-1.2-3.1-1.7-4.7-2.4q-0.1 0-0.1-0.1c-5.5 3.1-10.5 7.4-15.2 11.6q-0.5 1.7-0.6 3.5c-0.1 1.3 0.2 2.6-0.1 3.9-0.2 0.9-1.3 1.1-1.7 0.2-0.6-1.5-0.5-3.5-0.1-5.4q-0.5 0.4-1 0.8-6.3 5.5-12.5 11.2c-0.2 0.8-0.6 1.6-0.7 2.4-0.3 1.1-0.1 2.4-0.7 3.3-0.3 0.5-1.1 0.4-1.4 0-0.5-0.8-0.4-1.9-0.2-2.9q-0.7 0.6-1.4 1.3c-4.4 4.2-8.7 8.5-13 12.9-0.3 1.4-0.3 2.9-0.5 4.4-0.1 0.8-1.4 0.8-1.4 0q-0.1-1.3 0.1-2.6-9 9.4-17.5 19.3c4.5-0.2 10.9-5.2 13.8-6.9q5.1-3 10.1-6.1 10-6.3 19.5-13.2 10.1-7.2 19.7-15.2c2.9-2.4 7.2-5.1 9.3-8.1 2-2.9 3-9.5 0.3-11.9zm67.6-24.2c-4.7-10.8-25.4-5.4-33.6-2.3-8.9 3.3-16.5 8.7-23.3 15.3q-0.3 0.3-0.6 0.2c-0.6 0.7-2 0.1-1.9-0.9 0.3-2.2 2-6 1.6-8q0.1-0.6 0.2-1.2l-2.8-1.3c-0.8 0.2-2.1 2.1-2.6 2.8-3.5 4.4-4.9 9.6-5.3 15.1 0 0.3-0.2 0.5-0.4 0.6 3.1 1.5 5.9 3.6 7 6.5q0.1 0.1 0.3 0.2c2.8 3.3 5.4 6.2 9.6 7.6 1.6 0.5 5.2 1.6 6.8 0.7 6.3-3.5-0.4-6.1-2.4-6.8-0.4-0.2-0.5-0.6-0.4-0.9q-1-0.3-1.9-0.5c-1.6-0.5-0.8-3.1 0.7-2.7 9.8 2.3 19.7 2.3 29.3-1 8.3-3 24.7-12.1 19.7-23.4z"/>
					<path id="&lt;Compound Path&gt;" fill-rule="evenodd" class="s4" d="m726.6 686.3c7.8-0.1 15.4 2.3 21.8 6.7-0.7-1-1.1-2.1-0.8-3.3 0.4-1.9 2.2-2.7 4-2.6 4.7 0.3 8.9 5.4 10 10.1q0.3-0.4 0.7-0.7c2.5-2.4 6.7-3 9.9-3.8q6.6-1.6 13.2-3 14.3-2.8 28.8-4 6-0.6 11.9-0.8c3.3-0.2 6.5-0.8 8.7 1.9 0.4 0.6 0.3 1.4-0.4 1.7-11.3 4.8-23 9.1-34.8 12.7q-9.1 2.7-18.3 4.9c-5.2 1.3-10.4 2.7-15.8 2.5-0.4 0.3-0.9 0.3-1.3 0q0 0 0 0c-0.4-0.1-0.6-0.4-0.6-0.7q0 0-0.1 0c-2 4.5-7.9 11.2-13.5 10.5-5.2-0.7-1.1-6 1.4-8.8-8 3.1-16.8 3.6-25.2 1.8-6.8-1.5-19.1-5.5-17.7-14.5 1.3-8.3 11.1-10.5 18.1-10.6zm36.7 17.7c0.5 1.2 1.5 2.2 2.4 3.1q0 0.1 0 0.1c4.7-0.2 9.4-1.4 14-2.7q0.8-0.9 1.5-2c0.5-0.9 0.7-1.9 1.3-2.6 0.4-0.5 1.3-0.3 1.2 0.4 0 1.2-0.8 2.5-1.7 3.6q0.4-0.1 0.9-0.2 6.1-1.6 12.1-3.3c0.3-0.5 0.9-0.9 1.2-1.3 0.6-0.7 0.8-1.6 1.6-2 0.3-0.2 0.8 0.1 0.9 0.4 0.1 0.8-0.4 1.5-0.9 2.1q0.7-0.2 1.4-0.5 6.5-2 12.9-4.2c0.7-0.9 1.2-1.8 1.8-2.8 0.3-0.4 1.2-0.1 0.9 0.5q-0.3 0.9-0.9 1.6 9.1-3.2 18-6.9c-3.1-1.4-9-0.2-11.5 0q-4.3 0.3-8.7 0.7-8.7 0.9-17.3 2.3-9.1 1.5-18.1 3.6c-2.7 0.6-6.4 1-8.9 2.3-2.2 1.2-5 5.3-4.1 7.8zm-52.9-6.3c-0.4 8.8 15.1 12 21.6 12.6 7 0.8 13.9-0.3 20.5-2.4q0.3-0.1 0.5 0c0.6-0.2 1.4 0.6 0.9 1.3-0.9 1.3-3.2 3.3-3.7 4.8q-0.2 0.4-0.5 0.7l1.4 1.8c0.6 0.1 2.1-0.7 2.7-1 3.8-1.8 6.4-4.7 8.5-8.3 0.1-0.2 0.3-0.2 0.5-0.3-1.6-2-2.7-4.3-2.5-6.6q-0.1-0.1-0.1-0.2c-0.8-3.1-1.6-5.9-3.9-8.2-0.9-0.9-2.9-2.8-4.3-2.8-5.3 0.3-1.7 4.2-0.7 5.3 0.2 0.3 0.2 0.6 0 0.8q0.6 0.5 1.1 1c0.9 0.8-0.5 2.3-1.4 1.5-5.7-4.8-12.2-8-19.7-9-6.5-0.8-20.4-0.1-20.9 9z"/>
					<path id="&lt;Compound Path&gt;" fill-rule="evenodd" class="s4" d="m420.4 365.7c6.2 8.5 9.5 18.8 9.7 29.2 0.6-1.5 1.5-2.9 3-3.5 2.4-0.9 4.7 0.4 5.9 2.5 3.4 5.4 1 13.9-3.3 18.8q0.7 0.1 1.4 0.2c4.5 0.9 8.5 5.1 11.8 8q7 5.9 13.6 12.2c9.5 9.1 18.5 18.6 26.9 28.6q5.2 6.1 10.1 12.5c2.8 3.5 6 6.4 4.6 11-0.2 0.9-1.2 1.4-2.1 0.9-14.2-8.7-27.9-18.2-41.1-28.5q-10.1-7.8-19.6-16.2c-5.5-4.8-11.1-9.4-15.1-15.5-0.6-0.2-1-0.8-1-1.5q0 0 0 0c-0.2-0.5-0.1-0.9 0.3-1.1q0-0.1 0-0.2c-6.5 1.4-18.6 0.1-22.1-6.7-3.2-6.2 5.7-5.9 10.8-5.3-9.7-6.3-17.2-15.7-21.6-26.4-3.6-8.6-8.9-25.3 2.2-30.7 10-5 20.1 4.1 25.6 11.7zm9.2 54.2c-1 1.5-1.2 3.4-1.6 5q-0.1 0.1-0.1 0.2c3.9 4.9 8.9 9.1 13.8 13.2q1.8 0.2 3.5 0.1c1.3-0.1 2.6-0.6 3.9-0.6 0.9 0.1 1.3 1.2 0.5 1.7-1.5 0.9-3.5 1-5.4 0.9q0.5 0.4 1 0.8 6.4 5.5 13 10.7c0.8 0.1 1.6 0.3 2.5 0.4 1.1 0.1 2.3-0.3 3.3 0.2 0.5 0.2 0.6 0.9 0.2 1.3-0.7 0.7-1.8 0.7-2.8 0.6q0.7 0.6 1.5 1.3c4.8 3.7 9.7 7.3 14.7 10.8 1.5 0.1 2.9-0.1 4.4-0.1 0.8-0.1 1 1.2 0.2 1.4q-1.2 0.2-2.5 0.2 10.6 7.5 21.7 14.3c-0.9-4.4-6.8-9.9-9-12.5q-3.7-4.6-7.5-9.1-7.7-8.9-16-17.3-8.7-8.8-18-17.1c-2.9-2.5-6.1-6.3-9.5-8-3.1-1.5-9.8-1.4-11.8 1.6zm-34.3-63.1c-9.9 6.3-1.4 25.9 2.9 33.6 4.7 8.2 11.2 15 18.7 20.6q0.3 0.3 0.3 0.6c0.8 0.5 0.4 2-0.6 2-2.2 0.1-6.2-1-8.2-0.3q-0.6 0-1.2 0l-0.8 2.9c0.3 0.8 2.4 1.7 3.1 2.2 4.9 2.7 10.2 3.4 15.7 2.9 0.4 0 0.6 0.1 0.7 0.3 1.1-3.3 2.7-6.4 5.4-7.9q0.1-0.2 0.2-0.3c2.8-3.3 5.2-6.3 6-10.7 0.3-1.6 0.8-5.4-0.3-6.8-4.5-5.7-6 1.3-6.4 3.4-0.1 0.4-0.5 0.6-0.9 0.5q-0.1 1-0.2 2c-0.2 1.6-2.9 1.3-2.8-0.3 0.9-10.1-0.6-19.8-5.4-28.8-4.2-7.8-15.7-22.5-26.2-15.9z"/>
					<path id="&lt;Compound Path&gt;" fill-rule="evenodd" class="s4" d="m1544.5 203.3c3 6.4 3.9 13.5 2.8 20.4 0.5-0.9 1.3-1.7 2.4-1.9 1.7-0.3 3 0.8 3.6 2.3 1.6 4-1 9.3-4.5 12.1q0.4 0.1 0.9 0.3c2.9 1.1 5 4.3 6.8 6.7q3.9 4.7 7.5 9.7 7.7 10.7 14.2 22.1 2.7 4.7 5.2 9.5c1.3 2.7 3.1 5 1.7 7.9-0.3 0.5-1.1 0.7-1.5 0.3-8.3-7.5-16.2-15.4-23.7-23.8q-5.7-6.4-10.9-13.1c-3.1-3.9-6.2-7.6-8.1-12.1-0.4-0.2-0.6-0.6-0.4-1.1q0 0 0 0c-0.2-0.4 0-0.6 0.3-0.7q0-0.1 0-0.1c-4.5 0.1-12.3-2.2-13.8-7.1-1.3-4.6 4.5-3.2 7.8-2.2-5.6-5.4-9.4-12.5-11-20.1-1.4-6.1-2.8-17.7 5.2-20 7.2-2 12.7 5.2 15.5 10.9zm-0.6 36.9c-0.8 0.8-1.2 2-1.7 3.1q0 0-0.1 0.1c2 3.7 4.8 7.1 7.5 10.4q1.2 0.3 2.3 0.4c0.9 0.1 1.8 0 2.7 0.2 0.5 0.1 0.7 0.9 0.1 1.1-1.1 0.4-2.4 0.3-3.7 0q0.3 0.3 0.6 0.6 3.5 4.4 7.2 8.7c0.6 0.1 1.1 0.4 1.6 0.5 0.8 0.2 1.6 0.1 2.2 0.5 0.3 0.3 0.3 0.8 0 1-0.6 0.3-1.3 0.2-2 0q0.4 0.5 0.9 1 4.1 4.6 8.3 9c1 0.2 2 0.2 3 0.4 0.5 0.1 0.5 0.9 0 1q-0.9 0-1.7-0.2 6.1 6.2 12.5 12.1c0-3-3.3-7.4-4.4-9.4q-1.9-3.4-3.8-6.8-4-6.9-8.5-13.4-4.6-6.9-9.8-13.5c-1.5-2-3.2-4.9-5.3-6.4-1.8-1.4-6.2-2.2-7.9-0.4zm-14.9-45.9c-7.3 3-4.1 17-2.2 22.5 2.1 6.1 5.5 11.3 9.8 16q0.2 0.2 0.2 0.4c0.4 0.4 0 1.3-0.7 1.2-1.5-0.2-4-1.4-5.4-1.2q-0.4-0.1-0.8-0.1l-0.9 1.8c0.1 0.5 1.4 1.4 1.8 1.8 2.9 2.4 6.4 3.5 10 3.9 0.3 0 0.4 0.1 0.5 0.2 1.1-2 2.5-3.9 4.5-4.5q0-0.1 0.1-0.2c2.3-1.8 4.2-3.5 5.3-6.3 0.4-1.1 1.2-3.5 0.6-4.5-2.2-4.3-4.1 0.1-4.6 1.4-0.1 0.3-0.4 0.3-0.6 0.2q-0.2 0.7-0.4 1.3c-0.3 1.1-2.1 0.5-1.8-0.5 1.8-6.5 2-13.2-0.1-19.7-1.8-5.6-7.6-16.8-15.3-13.7z"/>
					<path id="&lt;Compound Path&gt;" fill-rule="evenodd" class="s4" d="m1446.5 393.5c-7.6 10.7-18.3 18.6-30.6 22.9 2.1 0.1 4 0.6 5.4 2.2 2 2.5 1.3 5.7-0.6 8-5.1 6.1-16 6.6-23.5 3.5q0.2 0.8 0.3 1.7c0.8 5.7-2.6 12-4.7 17.1q-4.3 10.5-9.1 20.8c-6.9 14.8-14.5 29.1-23 43q-5.1 8.6-10.7 16.9c-3 4.6-5.3 9.5-11.2 9.8-1.1 0-2.1-1-1.9-2.1 4.7-20.2 10.4-40.2 17.3-59.7 3.5-10 7.3-19.9 11.4-29.6 3.5-8.4 6.7-16.8 12.3-23.9 0-0.8 0.5-1.5 1.4-1.7q0 0 0 0c0.4-0.5 1-0.5 1.4-0.2q0.1 0 0.2 0c-4.2-7.2-7.5-21.8-0.8-28.7 6-6.3 9.1 4.4 10.5 10.6 3.6-13.9 11.6-26.4 22.5-35.9 8.7-7.6 26.3-20.4 37-9.6 9.9 10 3.2 25.3-3.6 34.9zm-60.2 32.2c-2.1-0.6-4.5-0.1-6.6 0.1 0 0-0.1 0-0.2 0-4.3 6.5-7.2 14.1-10.1 21.5q0.5 2.1 1.3 4.1c0.7 1.5 1.8 2.9 2.2 4.4 0.3 1-0.9 2-1.8 1.2-1.6-1.3-2.6-3.6-3.2-6q-0.3 0.8-0.6 1.5c-2.6 6.5-5 13-7.4 19.6 0.3 1 0.3 2 0.5 3 0.4 1.4 1.3 2.6 1.2 4.1-0.1 0.6-1 1-1.5 0.7-1.1-0.6-1.6-1.9-1.9-3.1q-0.4 1.1-0.8 2.3c-2.5 7.1-4.8 14.3-7 21.6 0.5 1.8 1.3 3.4 1.9 5.2 0.3 0.9-1 1.6-1.6 0.8-0.5-0.9-0.9-1.9-1.2-2.9q-4.6 15.5-8.4 31.2c4.9-2.8 9.1-12 11.3-15.5q3.9-6.2 7.7-12.5 7.4-12.6 14-25.7 7-13.7 13-28c1.9-4.3 5.1-9.7 5.7-14.3 0.6-4.3-2.1-12.1-6.5-13.3zm60.8-65.3c-11.4-9.2-31.1 8.6-38.4 16.7-7.9 8.7-13.3 19.1-17 30.2-0.1 0.3-0.3 0.5-0.5 0.6-0.3 1.1-2.2 1.3-2.6 0-1-2.6-1.3-7.7-2.9-9.7q-0.2-0.7-0.4-1.4l-3.8 0.1c-0.8 0.7-1.1 3.5-1.3 4.6-1.4 6.8 0 13.4 2.7 19.7 0.2 0.3 0.1 0.6-0.1 0.9 4.3-0.1 8.6 0.6 11.5 3.2q0.2 0 0.4 0.1c5 2 9.5 3.7 15 2.8 2-0.3 6.6-1.2 7.9-3 4.9-7.5-4-6.5-6.5-6.2-0.5 0-0.9-0.4-1-0.8q-1.2 0.3-2.4 0.5c-2 0.4-2.7-2.9-0.8-3.4 12.2-3 23.1-8.6 31.8-17.8 7.5-8 20.3-27.4 8.4-37.1z"/>
					<path id="&lt;Compound Path&gt;" fill-rule="evenodd" class="s4" d="m1537.8 140.8c-2.3-12.9-0.4-26.1 5.1-37.9-1.5 1.5-3.3 2.5-5.3 2.3-3.2-0.3-5-3-5.3-6-0.8-7.9 6.4-16.1 13.9-19.3q-0.6-0.3-1.3-0.9c-4.6-3.4-6.8-10.3-9-15.3q-4.5-10.4-8.4-21.1c-5.7-15.2-10.6-30.8-14.6-46.5q-2.5-9.7-4.5-19.5c-1.1-5.4-3.1-10.4 0.9-14.8 0.7-0.9 2.2-0.9 2.8 0.1 11.1 17.5 21.3 35.6 30.4 54.2 4.7 9.5 9.1 19.1 13.2 28.8 3.5 8.4 7.2 16.6 8.4 25.6 0.5 0.5 0.7 1.3 0.2 2.1q0 0 0 0c0.1 0.7-0.3 1.1-0.8 1.1q-0.1 0.1-0.2 0.2c8 2.1 20.8 10 21.1 19.5 0.2 8.8-9.6 3.5-15 0.1 7.4 12.3 10.7 26.8 9.9 41.2-0.7 11.6-3.9 33.1-19.2 33.2-14 0-20.3-15.5-22.3-27.1zm19.3-65.5c1.8-1.1 3.1-3.1 4.5-4.8 0 0 0.1 0 0.1-0.1-1.6-7.6-5-15.1-8.2-22.3q-1.9-1.1-3.9-1.9c-1.5-0.6-3.2-0.8-4.6-1.6-1-0.5-0.8-2 0.4-2.1 2-0.2 4.4 0.8 6.5 2q-0.4-0.8-0.7-1.5c-2.8-6.4-5.7-12.8-8.7-19-0.9-0.5-1.7-1.3-2.6-1.8-1.2-0.7-2.7-0.9-3.7-2-0.4-0.5-0.1-1.4 0.6-1.6 1.2-0.4 2.4 0.2 3.5 0.8q-0.5-1.1-1-2.2c-3.4-6.7-6.9-13.4-10.6-20.1-1.6-0.9-3.3-1.4-5-2.2-0.9-0.5-0.5-1.9 0.5-1.7 1 0.2 2 0.6 3 1.1q-7.8-14.1-16.4-27.8c-1.4 5.4 2.2 14.8 3.1 18.9q1.7 7.1 3.6 14.2 3.7 14.2 8.4 28 4.9 14.7 10.8 28.9c1.9 4.4 3.4 10.4 6.3 14.1 2.7 3.4 10.1 7 14.1 4.7zm3.9 89.1c14.6-1.7 15.6-28.2 15-39.1-0.7-11.7-4.3-22.8-9.7-33.2-0.1-0.3-0.1-0.6 0-0.8-0.6-1 0.7-2.5 1.8-1.9 2.5 1.1 6.4 4.5 9 4.8q0.7 0.3 1.3 0.6l2.5-2.7c0.1-1.1-1.7-3.3-2.3-4.2-3.9-5.7-9.6-9.4-16-11.8-0.3-0.2-0.5-0.4-0.6-0.8-2.9 3.2-6.4 5.8-10.3 6q-0.1 0.1-0.3 0.2c-4.9 2.2-9.3 4.2-12.5 8.7-1.2 1.7-3.9 5.6-3.4 7.8 1.9 8.7 7.4 1.7 9-0.3 0.3-0.4 0.8-0.4 1.2-0.2q0.7-1 1.3-2.1c1.1-1.6 4 0.2 3 1.9-6.4 10.8-10 22.5-9.6 35.1 0.5 11 5.3 33.8 20.6 32z"/>
					<path id="&lt;Compound Path&gt;" fill-rule="evenodd" class="s4" d="m873.7 773.3c-4 15.9-20.1 28.3-36.8 26.5-16.8-1.8-30.4-17.2-27.8-34.4 2.8-18.3 20.9-28.9 38.2-23q0.1-1.5 0.3-3.1-0.2 0.1-0.4 0.1c-10.2-1-18.8-7.2-23.8-16-0.6-1 0-1.9 1-2.3 9.8-4.2 20.1 3 24.7 11.9 1.1-3.2 2.7-6.1 4.9-8.5 1.1-1.2 2.6 0.3 2.1 1.6-1.9 4.3-4.2 8.3-5.2 12.9q-0.2 1.2-0.3 2.4c17.4-1.7 27 16.4 23.1 31.9zm-25.9-35.3q0-0.2 0-0.3c-2.4-3.6-4.1-7.5-7.5-10.5-3.7-3.2-8.3-4.7-13-3.6 3.4 5.4 8.2 9.4 13.9 11.9q-1-0.9-2-1.8-3-2.9-6-5.8c-0.6-0.6 0.3-1.5 0.9-0.9q3.2 2.7 6.4 5.4c1.7 1.5 3.8 3 5.2 4.8 0.6 0.2 1.1 0.4 1.7 0.5q0.3 0.1 0.4 0.3zm2.5 7c-0.1 2.6 0.1 5.2 0.5 7.9 0.2 1.4-2.2 1.7-2.6 0.3-0.6-2.7-0.9-5.8-0.9-8.8q-0.2 0-0.4 0c-16.4-3.8-33.7 6.3-34.5 24.2-0.6 13.5 10 25 23 27.3 13.7 2.4 27.6-6.3 33-18.8 6.3-14.2-0.3-33.5-18.1-32.1z"/>
					<path id="&lt;Compound Path&gt;" fill-rule="evenodd" class="s4" d="m605.8 458.8c-2.9 11.5-14.5 20.3-26.4 19-12.1-1.3-21.9-12.3-20-24.6 2-13.1 15-20.7 27.4-16.5q0.1-1.1 0.2-2.2-0.1 0.1-0.3 0.1c-7.3-0.7-13.4-5.2-17-11.5-0.4-0.7 0-1.4 0.7-1.7 7-2.9 14.4 2.2 17.7 8.6 0.8-2.3 1.9-4.4 3.5-6.1 0.8-0.9 1.9 0.2 1.5 1.1-1.3 3.1-3 5.9-3.7 9.3q-0.1 0.8-0.3 1.7c12.6-1.2 19.5 11.8 16.7 22.8zm-18.6-25.3q0-0.1 0-0.1c-1.7-2.6-2.9-5.4-5.4-7.6-2.7-2.3-6-3.4-9.3-2.6 2.4 3.9 5.8 6.8 9.9 8.6q-0.7-0.7-1.4-1.4-2.2-2-4.3-4.1c-0.4-0.4 0.2-1 0.6-0.6q2.3 1.9 4.6 3.9c1.3 1 2.8 2.1 3.7 3.4q0.7 0.2 1.3 0.4 0.2 0 0.3 0.1zm1.8 5.1c-0.1 1.9 0 3.7 0.3 5.6 0.1 1.1-1.6 1.3-1.8 0.3-0.5-2-0.7-4.2-0.7-6.4q-0.1 0-0.3 0c-11.8-2.7-24.1 4.6-24.7 17.4-0.4 9.7 7.2 17.9 16.5 19.6 9.8 1.7 19.7-4.6 23.7-13.5 4.4-10.2-0.3-24-13-23z"/>
					<path id="&lt;Compound Path&gt;" fill-rule="evenodd" class="s4" d="m1324.1 465.4c-14.1 8.3-34.1 5.4-44.4-7.6-10.4-13.2-9-33.5 5-43.6 14.9-10.8 35-5.3 42.9 11.1q1.1-1 2.3-1.9-0.1-0.1-0.3-0.3c-6.3-7.9-7.9-18.3-5.2-27.9 0.3-1.1 1.4-1.4 2.4-1 9.7 4.1 11.8 16.4 8.7 25.8 3-1.4 6.2-2.3 9.4-2.4 1.7-0.1 1.6 2.1 0.3 2.6-4.3 1.7-8.7 2.8-12.7 5.3q-1 0.7-2 1.4c13.3 11.2 7.2 30.6-6.4 38.5zm6.9-42.8q0.2-0.1 0.3-0.2c0.8-4.2 2.4-8.1 2.2-12.6-0.3-4.9-2.5-9.2-6.5-11.8-1.5 6.2-1 12.4 1.2 18.2q0-1.4 0-2.7-0.1-4.1-0.2-8.3c0-0.8 1.3-0.8 1.3 0q0.3 4.2 0.6 8.3c0.1 2.3 0.6 4.8 0.2 7 0.3 0.6 0.5 1.1 0.9 1.6q0.1 0.3 0 0.5zm-3.2 6.6c-1.9 1.8-3.6 3.7-5.2 5.8-0.9 1.2-2.8-0.4-2-1.6 1.4-2.3 3.4-4.6 5.6-6.8q-0.2-0.1-0.3-0.2c-8.8-14.3-27.9-19.5-41.1-7.6-10 8.9-10.8 24.4-3.4 35.2 7.8 11.4 23.6 15.1 36.2 10.4 14.4-5.5 23.6-23.5 10.2-35.2z"/>
					<path id="&lt;Compound Path&gt;" fill-rule="evenodd" class="s4" d="m1538.7 448.5c-2.9 11.5-14.5 20.4-26.4 19.1-12.2-1.3-22-12.4-20.1-24.7 2-13.2 15.1-20.9 27.5-16.6q0.1-1.1 0.2-2.2-0.1 0-0.3 0c-7.3-0.7-13.5-5.2-17.1-11.5-0.4-0.7 0-1.4 0.7-1.7 7.1-2.9 14.5 2.2 17.8 8.6 0.8-2.3 1.9-4.4 3.5-6.1 0.8-0.9 1.9 0.2 1.5 1.2-1.3 3.1-3 5.9-3.7 9.2q-0.1 0.9-0.2 1.8c12.5-1.3 19.4 11.8 16.6 22.9zm-18.6-25.4q0-0.1 0-0.2c-1.7-2.6-3-5.4-5.4-7.5-2.7-2.4-6-3.4-9.4-2.7 2.5 4 5.9 6.8 10 8.7q-0.7-0.8-1.4-1.4-2.2-2.1-4.4-4.2c-0.4-0.4 0.3-1 0.7-0.6q2.3 1.9 4.6 3.9c1.2 1.1 2.7 2.1 3.7 3.5q0.7 0.2 1.3 0.3 0.2 0.1 0.3 0.2zm1.8 5.1c-0.1 1.9 0.1 3.7 0.3 5.6 0.1 1.1-1.6 1.3-1.8 0.3-0.5-2-0.7-4.2-0.7-6.4q-0.1 0-0.3 0c-11.8-2.7-24.2 4.6-24.8 17.4-0.4 9.7 7.2 18 16.5 19.7 9.9 1.7 19.9-4.6 23.8-13.5 4.5-10.2-0.2-24.1-13-23.1z"/>
					<path id="&lt;Compound Path&gt;" fill-rule="evenodd" class="s4" d="m1776.7 653.4c-11.8 13.8-33.7 18.1-49.2 8.2-15.7-10-21.6-31.8-10.7-47.4 11.7-16.7 34.7-18.3 48.9-4.1q0.8-1.4 1.7-2.8-0.2 0-0.4-0.1c-9.5-6-14.9-16.3-15.6-27.4-0.1-1.3 0.9-1.9 2.1-1.9 11.6 0.8 18.3 12.8 18.5 23.8 2.6-2.6 5.6-4.7 9-6 1.7-0.6 2.4 1.7 1.3 2.7-4 3.3-8.2 6.1-11.4 10.2q-0.8 1-1.5 2.1c18 6.9 18.7 29.4 7.3 42.7zm-8.4-47.4q0.1-0.1 0.2-0.2c-0.6-4.7-0.4-9.4-2.3-14-2.1-5-5.9-8.7-11.1-10 0.7 7.1 3.5 13.3 7.9 18.6-0.4-1-0.7-1.9-1-2.8q-1.6-4.3-3.2-8.6c-0.3-0.9 1-1.3 1.4-0.5q1.8 4.2 3.6 8.5c1 2.3 2.3 4.7 2.8 7.2 0.5 0.5 0.9 1 1.5 1.4q0.2 0.2 0.2 0.4zm-1 8.2c-1.3 2.5-2.4 5.2-3.3 7.9-0.5 1.6-3 0.7-2.7-0.9 0.7-3 1.9-6.1 3.4-9.1q-0.2-0.1-0.3-0.2c-14.4-11.7-36.4-10.2-45.9 7.1-7.1 12.9-2.3 29.5 9.4 38 12.3 9.1 30.2 7.3 41.7-2.3 13-11 16-33.2-2.3-40.5z"/>
					<g id="&lt;Group&gt;">
						<path id="&lt;Compound Path&gt;" fill-rule="evenodd" class="s4" d="m415.3 937.1c-1.4-22.3 24.5-40.9 42.1-49.5 17.6-8.5 44.6-15.9 60.8-1q0.2 0.2 0.3 0.4c6.8 0.1 16.7 4.5 13.8 12.6-1.1 2.9-4 5.2-7.2 4.7-2.1-0.4-3.5-2-5.2-3.1-2.5-1.6-5.2-2.1-8.1-1.8-4.9 12.7-23.7 10.1-34.7 12.3-20.5 4-38.1 13.8-52 29.4 0.1 0.9-0.3 1.9-1.3 2.1-1.7 0.2-2.7-0.7-4-1.6q-2-1.4-3.9-2.7c-0.7-0.5-0.8-1.2-0.6-1.8zm3.5-0.2q1.4 0.6 2.8 1.3c0.6 0.3 1.3 0.6 1.9 0.9 8.6-12.2 21-20.6 34.9-26 6.8-2.7 13.9-4.6 21.1-5.8 9.9-1.6 25.1 0.8 30-10.4 0.6-1.4 2.3-1.2 2.8-0.2 2-0.3 4-0.3 6.1 0.2 1.1 0.3 2.3 0.8 3.3 1.4 1.5 0.8 2.9 2.4 4.6 2.2 4.8-0.7 1.6-6.6-0.9-8-2.8-1.6-6.1-1.3-9.1-2.1-1.2-0.3-1.4-1.9-0.7-2.7-17.7-10.8-40.7-4.9-58.1 3.8-16.2 8.2-39.2 25.1-38.7 45.4z"/>
						<path id="&lt;Path&gt;" class="s4" d="m437.4 917.9c18.8-18.3 42.4-27.5 68.8-25.2 0.7 0.1 0.7-0.9 0-1-25.5-3.6-52.6 5.7-69.7 25.2-0.5 0.6 0.3 1.5 0.9 1z"/>
					</g>
					<g id="&lt;Group&gt;">
						<path id="&lt;Compound Path&gt;" fill-rule="evenodd" class="s4" d="m1629 223.5c-16.6-10.6-16.3-38.6-13.3-55.6 3.1-16.8 11.9-39.8 30.8-43.5q0.3-0.1 0.5 0c3.6-4.8 11.9-9.6 16.1-3.3 1.5 2.3 1.6 5.6-0.4 7.5-1.4 1.3-3.2 1.5-4.9 2.1-2.4 1-4.2 2.6-5.5 4.9 6.5 10-5.1 22-9.3 30.9-7.7 16.6-9.9 34.2-6.1 52.1 0.7 0.4 1.2 1.2 0.8 2-0.7 1.3-1.9 1.5-3.2 2q-2 0.7-4 1.4c-0.7 0.2-1.2-0.1-1.5-0.5zm1.6-2.6q1.2-0.7 2.4-1.3c0.6-0.3 1.1-0.6 1.7-0.9-4.2-12.5-3.8-25.6-0.4-38.2 1.7-6.3 4-12.3 6.9-18 4-7.8 13.5-17.4 8.1-26.6-0.6-1.2 0.4-2.3 1.4-2.1 0.8-1.6 1.9-3 3.3-4.2 0.8-0.7 1.7-1.3 2.7-1.7 1.3-0.6 3.2-0.8 3.9-2.1 2-3.7-3.9-4.5-6.1-3.5-2.6 1.1-4.1 3.6-6.2 5.4-0.8 0.7-2.1 0-2.3-0.9-16.9 6.9-24.6 26.2-27.4 43.1-2.6 15.7-2.6 40.8 12 51z"/>
						<path id="&lt;Path&gt;" class="s4" d="m1626.8 197.8c-3.2-22.8 2.5-44.3 17.9-61.8 0.4-0.4-0.3-1-0.7-0.5-15.8 16.2-23.3 40.2-18.3 62.5 0.1 0.7 1.2 0.6 1.1-0.2z"/>
					</g>
					<g id="&lt;Group&gt;">
						<path id="&lt;Compound Path&gt;" fill-rule="evenodd" class="s4" d="m1509 571.3c-6.8-26.6 20.2-54.9 39.6-69.2 19.3-14.2 50.2-29.3 73.1-14.9q0.3 0.2 0.4 0.5c8.3-1.5 21.3 1.6 19.5 12.1-0.6 3.6-3.6 7.1-7.5 7.2-2.7 0-4.7-1.6-7-2.5-3.4-1.4-6.8-1.4-10.2-0.3-3 16.4-26.3 17.5-39.1 22.5-23.8 9.5-42.9 25.4-56.1 47.3 0.4 1 0.1 2.4-1.1 2.8-2 0.6-3.4-0.3-5.2-1.1q-2.7-1.1-5.3-2.3c-1-0.5-1.3-1.3-1.1-2.1zm4.1-1q1.9 0.5 3.7 1c0.8 0.2 1.7 0.4 2.5 0.7 7.7-16.8 20.7-29.7 36.2-39.4 7.7-4.7 15.8-8.6 24.3-11.7 11.5-4.1 30.4-4.7 33.7-19.3 0.4-1.8 2.5-2 3.3-0.8 2.4-0.9 4.9-1.3 7.5-1.1 1.4 0 2.9 0.3 4.3 0.8 1.9 0.6 4.1 2.3 6.1 1.6 5.5-1.9 0.3-8.3-3-9.4-3.7-1.3-7.6-0.2-11.4-0.5-1.5-0.1-2.2-1.9-1.5-3.1-23.8-9.1-50.2 3.2-69.2 17.7-17.7 13.6-41.6 39.1-36.5 63.5z"/>
						<path id="&lt;Path&gt;" class="s4" d="m1531.3 543.2c18.6-26.4 45-42.8 77.3-45.9 0.9-0.1 0.7-1.3-0.2-1.3-31.5 1.5-62.2 18.8-78.4 46.2-0.5 0.9 0.7 1.8 1.3 1z"/>
					</g>
					<g id="&lt;Group&gt;">
						<path id="&lt;Compound Path&gt;" fill-rule="evenodd" class="s4" d="m373.8 599.7c-25.8 4.4-50.7-23.5-63-43.1-12.1-19.4-24.1-50.1-8.7-70.8q0.3-0.3 0.5-0.4c-0.7-8 3.2-20.1 13-17.7 3.5 0.9 6.6 4.1 6.3 7.8-0.1 2.5-1.8 4.3-2.9 6.5-1.5 3.1-1.8 6.4-1 9.7 15.4 4.1 14.7 26.4 18.5 39 7.3 23.3 20.9 42.8 40.8 57 1-0.3 2.3 0.1 2.6 1.3 0.5 1.9-0.5 3.2-1.4 4.9q-1.3 2.4-2.6 4.9c-0.5 0.9-1.4 1.1-2.1 0.9zm-0.6-4.1q0.6-1.7 1.2-3.4c0.3-0.8 0.5-1.6 0.8-2.3-15.3-8.6-26.7-22-34.7-37.6-4-7.6-7.1-15.7-9.4-23.9-3.1-11.4-2.2-29.4-15.9-33.7-1.6-0.5-1.6-2.6-0.5-3.2-0.6-2.4-0.8-4.8-0.5-7.2 0.2-1.4 0.6-2.8 1.2-4.1 0.7-1.8 2.5-3.7 2-5.6-1.4-5.5-7.9-1-9.3 2.1-1.5 3.4-0.7 7.2-1.2 10.8-0.3 1.5-2.1 1.9-3.2 1.2-10.4 22-0.7 48.1 11.7 67.3 11.6 17.9 34.1 42.7 57.8 39.6z"/>
						<path id="&lt;Path&gt;" class="s4" d="m348.7 576.3c-23.7-19.8-37.4-46.2-37.9-77.3 0-0.8-1.2-0.7-1.2 0.1-1 30.2 13.1 60.8 38.1 78.3 0.7 0.5 1.7-0.5 1-1.1z"/>
					</g>
					<g id="&lt;Group&gt;">
						<path id="&lt;Compound Path&gt;" fill-rule="evenodd" class="s4" d="m668.4 433.2c16.4-18.3 50.9-12.4 71.2-5.2 20.2 7.2 46.8 22.7 47.6 46.8q0 0.3-0.2 0.6c5.3 5.4 9.5 16.5 0.8 20.5-3 1.4-7.1 0.8-9.1-2-1.4-2-1.2-4.3-1.7-6.5-0.6-3.2-2.3-5.7-4.8-7.7-13.7 6-26.2-10.8-36.3-17.7-18.9-12.9-40.2-19.2-63.1-18.1-0.6 0.8-1.7 1.3-2.6 0.6-1.5-1.1-1.5-2.6-1.8-4.4q-0.5-2.5-0.9-5.1c-0.2-0.9 0.3-1.6 0.9-1.8zm2.9 2.5q0.5 1.6 1 3.3c0.3 0.7 0.6 1.4 0.8 2.1 16.3-2.6 32.4 0.6 47.3 7.3 7.3 3.3 14.3 7.4 20.8 12.1 8.9 6.5 18.7 20.2 31.2 15.4 1.6-0.6 2.7 0.9 2.3 2.1 1.8 1.3 3.3 2.9 4.5 4.9 0.7 1.2 1.2 2.4 1.6 3.7 0.4 1.7 0.3 4.1 1.8 5.3 4.2 3.2 6.3-3.9 5.5-6.9-0.9-3.4-3.6-5.8-5.4-8.7-0.6-1.2 0.4-2.6 1.6-2.7-5.1-22.2-27.5-35.6-47.7-42.5-18.9-6.4-49.8-11.4-65.3 4.6z"/>
						<path id="&lt;Path&gt;" class="s4" d="m700.5 435.6c28.8 0.7 54.2 12.1 72.6 34.5 0.5 0.6 1.3-0.1 0.9-0.7-16.9-22.7-45-36.9-73.5-35.2-0.8 0.1-1 1.4 0 1.4z"/>
					</g>
					<g id="&lt;Group&gt;">
						<path id="&lt;Compound Path&gt;" fill-rule="evenodd" class="s4" d="m1402.4 322.5c-20.1-16.2-22.3-44.7-8.8-65.7 8.7-13.5 21-21.1 35.1-27.9 4.5-2.1 12.7-9.6 17.7-6.1 1.1-0.1 2.3 0.3 2.8 1.6 3.3 9.4 13.6 13.3 18.6 21.5 3.8 6 5.2 13.3 5.8 20.3 1.2 13.7-0.9 28.3-7.8 40.4-12.7 22.5-42.1 33.3-63.4 15.9zm66.3-47c0.5-13.8-2.2-25.6-12.7-35.1-4.8-4.4-8.7-7.8-10.9-13.8-6.2 0-24.8 11.1-27.6 12.9-11.1 7.2-20.6 17.7-25.1 30.3-7.6 21.3 2.4 49.1 25.6 55.5 30.1 8.2 49.8-24.1 50.7-49.8z"/>
						<path id="&lt;Path&gt;" class="s4" d="m1433.8 479.5c-5-1-10.1 4-8.2 9.1 0.5 1.5 2.8 1.1 2.5-0.6-0.7-3.2 2-6.7 5.4-6.6 1 0 1.4-1.7 0.3-1.9z"/>
						<path id="&lt;Path&gt;" class="s4" d="m1430.1 499.8c-1.4-4.8-8.8-3.9-10.3 0.4-0.5 1.4 1.6 2 2.1 0.7 0.6-1.2 1.9-1.7 3.1-1.7 1.3 0.1 2.2 0.7 3 1.7 0.8 0.9 2.4 0 2.1-1.1z"/>
					</g>
					<g id="&lt;Group&gt;">
						<path id="&lt;Compound Path&gt;" fill-rule="evenodd" class="s4" d="m1536.6 334.3c12.7 15.5 10 37.6-3.6 51.5-8.7 8.9-19.3 12.8-31.1 15.7-3.7 1-11.2 5.3-14.4 1.9-0.9-0.1-1.7-0.6-1.9-1.7-1-7.6-8.2-12.2-10.8-19.2-1.9-5.2-1.9-10.9-1.2-16.4 1.2-10.6 5.1-21.4 12.2-29.6 13.2-15.1 37.3-18.7 50.8-2.2zm-57.9 25.5c-2.5 10.4-2.3 19.9 4.3 28.7 2.9 4.1 5.3 7.3 6.1 12.2 4.7 1 20.6-4.5 23-5.5 9.6-3.7 18.5-10.3 23.9-19.2 9.1-14.9 5.9-37.7-10.8-46.2-21.7-11-41.7 10.6-46.5 30z"/>
						<path id="&lt;Path&gt;" class="s4" d="m1510.7 385.4c3.7 1.5 8.3-1.5 7.7-5.6-0.2-1.3-2-1.3-2 0 0 2.6-2.6 4.8-5.1 4.2-0.8-0.2-1.4 1.1-0.6 1.4z"/>
						<path id="&lt;Path&gt;" class="s4" d="m1516.7 370.5c0.4 3.9 6.1 4.4 7.9 1.3 0.6-1-0.9-1.7-1.5-0.8-0.6 0.8-1.7 1-2.6 0.8-1-0.3-1.6-0.9-2.1-1.8-0.4-0.8-1.8-0.4-1.7 0.5z"/>
					</g>
					<g id="&lt;Group&gt;">
						<path id="&lt;Compound Path&gt;" fill-rule="evenodd" class="s4" d="m1616.8 284.3c2.7-17.6 18.9-28.8 36.1-28 11.1 0.5 19.9 5.2 28.8 11.2 2.9 2 10.2 4.3 9.8 8.5 0.5 0.6 0.7 1.5 0 2.2-4.4 5.2-3.2 12.7-6.3 18.6-2.3 4.3-6.1 7.7-10.1 10.4-7.7 5.5-17.2 9.3-26.8 9.5-17.8 0.2-34.5-13.6-31.5-32.4zm51.1 23.3c8.4-4.5 14.5-10.3 16.5-19.8 0.9-4.4 1.6-7.9 4.4-11.3-2.1-3.7-15.2-10.9-17.3-12-8.1-4.1-17.7-6.1-26.8-4.4-15.3 2.8-28.4 18.4-24.2 34.5 5.6 20.8 31.7 21.3 47.4 13z"/>
						<path id="&lt;Path&gt;" class="s4" d="m1665.9 271.2c-1.2-3.3-5.9-4.6-8.3-1.7-0.7 0.9 0.3 2.1 1.2 1.3 1.7-1.5 4.7-1.1 5.9 0.9 0.3 0.7 1.5 0.3 1.2-0.5z"/>
						<path id="&lt;Path&gt;" class="s4" d="m1652.5 276.1c2.4-2.5-0.8-6.6-3.8-6-1 0.2-0.6 1.6 0.3 1.5 0.9-0.1 1.7 0.5 2.1 1.3 0.4 0.8 0.4 1.5 0 2.3-0.2 0.8 0.8 1.5 1.4 0.9z"/>
					</g>
					<g id="&lt;Group&gt;">
						<path id="&lt;Compound Path&gt;" fill-rule="evenodd" class="s4" d="m799.3 917.4c-7.8-11.2-4.9-26 5-34.7 6.3-5.6 13.7-7.8 21.8-9.2 2.6-0.5 7.8-3.1 9.9-0.6 0.5 0.1 1.1 0.5 1.2 1.2 0.3 5.3 5 8.7 6.4 13.6 1 3.6 0.7 7.5 0 11.1-1.3 7.2-4.5 14.3-9.7 19.5-9.7 9.6-26.2 10.9-34.6-0.9zm40.5-14.5c2.2-7 2.5-13.4-1.5-19.7-1.8-2.9-3.3-5.2-3.5-8.5-3.2-0.9-14.3 2-15.9 2.6-6.7 2.1-13 6.1-17.1 11.8-6.9 9.7-5.8 25.3 5.1 31.9 14.1 8.5 28.8-5.2 32.9-18.1z"/>
						<path id="&lt;Path&gt;" class="s4" d="m819.4 884c-2.5-1.2-5.7 0.6-5.5 3.4 0 0.9 1.3 1 1.3 0.1 0.2-1.7 2-3.1 3.7-2.6 0.6 0.2 1-0.7 0.5-0.9z"/>
						<path id="&lt;Path&gt;" class="s4" d="m814.6 893.8c-0.1-2.7-4-3.2-5.3-1.3-0.5 0.7 0.5 1.3 1 0.7 0.4-0.6 1.2-0.6 1.8-0.4 0.6 0.2 1 0.6 1.3 1.2 0.2 0.6 1.2 0.4 1.2-0.2z"/>
					</g>
					<g id="&lt;Group&gt;">
						<path id="&lt;Compound Path&gt;" fill-rule="evenodd" class="s4" d="m403.4 567c-25.4-3-42.3-25.6-42.2-50.4 0.2-15.8 6.5-28.8 14.6-41.9 2.6-4.1 5.6-14.7 11.7-14.4 0.8-0.7 2.1-1 3.1-0.2 7.8 6.1 18.4 3.9 27 8.1 6.3 3.1 11.3 8.4 15.5 13.9 8.2 10.9 14.3 24.3 14.9 38 1.3 25.5-17.6 50.1-44.6 46.9zm30.6-74.5c-6.9-11.8-15.5-20.2-29.3-22.6-6.3-1.1-11.4-2-16.4-5.8-5.1 3.2-14.9 22.4-16.3 25.4-5.4 11.9-7.8 25.8-4.9 38.7 4.9 21.8 28 39.8 50.8 32.8 29.5-9 28.9-46.5 16.1-68.5z"/>
						<path id="&lt;Path&gt;" class="s4" d="m382 497.2c-4.7 1.9-6.3 8.7-2.1 12 1.3 1 3-0.6 1.8-1.8-2.2-2.3-1.8-6.7 1-8.4 0.9-0.5 0.3-2.2-0.7-1.8z"/>
						<path id="&lt;Path&gt;" class="s4" d="m389.7 516.2c-3.8-3.2-9.5 1.4-8.4 5.8 0.3 1.4 2.3 0.8 2.1-0.6-0.2-1.3 0.7-2.4 1.7-3 1.1-0.7 2.2-0.6 3.4-0.2 1.1 0.4 2.1-1.2 1.2-2z"/>
					</g>
					<g id="&lt;Group&gt;">
						<path id="&lt;Compound Path&gt;" fill-rule="evenodd" class="s4" d="m1570 857c-25.4-3-42.3-25.6-42.1-50.4 0.1-15.8 6.4-28.8 14.6-41.9 2.6-4.1 5.6-14.7 11.6-14.5 0.8-0.7 2.1-0.9 3.2-0.1 7.7 6.1 18.3 3.9 26.9 8.1 6.3 3 11.3 8.4 15.5 13.9 8.3 10.9 14.3 24.2 15 38 1.2 25.5-17.7 50.1-44.7 46.9zm30.6-74.5c-6.9-11.8-15.4-20.3-29.3-22.6-6.3-1.1-11.3-2-16.3-5.8-5.2 3.2-14.9 22.4-16.3 25.4-5.5 11.9-7.8 25.8-4.9 38.7 4.8 21.7 27.9 39.8 50.7 32.8 29.5-9 28.9-46.5 16.1-68.5z"/>
						<path id="&lt;Path&gt;" class="s4" d="m1548.6 787.2c-4.7 1.9-6.3 8.7-2 12 1.2 1 2.9-0.6 1.8-1.8-2.3-2.3-1.9-6.7 1-8.4 0.9-0.5 0.3-2.2-0.8-1.8z"/>
						<path id="&lt;Path&gt;" class="s4" d="m1556.3 806.2c-3.8-3.3-9.5 1.4-8.4 5.8 0.4 1.4 2.4 0.8 2.2-0.6-0.3-1.3 0.6-2.4 1.7-3 1.1-0.7 2.1-0.6 3.3-0.2 1.1 0.4 2.1-1.2 1.2-2z"/>
					</g>
					<g id="&lt;Group&gt;">
						<path id="&lt;Compound Path&gt;" fill-rule="evenodd" class="s4" d="m547.1 755.9c-7.7-16.1-0.7-34.6 14-43.8 9.4-5.8 19.4-7 30.1-7 3.5-0.1 10.9-2.3 12.9 1.4 0.8 0.2 1.4 0.9 1.3 1.8-0.7 6.9 4.6 12.3 5.3 18.9 0.6 4.9-0.7 9.9-2.4 14.4-3.3 8.9-8.9 17.5-16.8 23.1-14.6 10.3-36.1 8.3-44.4-8.8zm55.4-9.9c4.4-8.5 6.2-16.7 2.4-25.7-1.7-4.2-3.1-7.5-2.7-11.8-3.8-1.9-18.8-0.4-21.1-0.1-9.1 1.2-18.1 5-24.7 11.5-11 11.1-13 31.5-0.3 42.3 16.4 14 38.3-0.4 46.4-16.2z"/>
						<path id="&lt;Path&gt;" class="s4" d="m580.3 717.1c-2.9-2.1-7.5-0.4-7.9 3.3-0.1 1.1 1.5 1.5 1.8 0.4 0.5-2.2 3.2-3.6 5.3-2.6 0.7 0.4 1.4-0.6 0.8-1.1z"/>
						<path id="&lt;Path&gt;" class="s4" d="m572 728.8c0.5-3.5-4.4-5.1-6.6-2.8-0.7 0.7 0.4 1.7 1.1 1 0.7-0.6 1.7-0.5 2.5-0.1 0.8 0.4 1.1 1.1 1.3 1.9 0.2 0.8 1.5 0.8 1.7 0z"/>
					</g>
					<g id="&lt;Group&gt;">
						<path id="&lt;Compound Path&gt;" fill-rule="evenodd" class="s4" d="m61.4 1023.6c-7.7-16.1-0.7-34.5 14-43.7 9.3-5.9 19.3-7 30.1-7.1 3.5 0 10.9-2.2 12.9 1.4 0.8 0.3 1.4 0.9 1.3 1.9-0.7 6.8 4.6 12.3 5.3 18.9 0.6 4.9-0.7 9.8-2.4 14.4-3.3 8.9-8.9 17.5-16.8 23-14.6 10.3-36.1 8.4-44.4-8.8zm55.4-9.8c4.4-8.5 6.2-16.7 2.4-25.8-1.7-4.1-3.1-7.4-2.7-11.8-3.8-1.8-18.8-0.4-21.1-0.1-9.1 1.2-18.1 5-24.7 11.6-11 11-13 31.4-0.3 42.2 16.4 14.1 38.3-0.3 46.4-16.1z"/>
						<path id="&lt;Path&gt;" class="s4" d="m94.6 984.9c-2.9-2.1-7.5-0.5-7.9 3.3-0.1 1.1 1.5 1.5 1.8 0.3 0.5-2.2 3.2-3.6 5.3-2.5 0.7 0.3 1.4-0.7 0.8-1.1z"/>
						<path id="&lt;Path&gt;" class="s4" d="m86.3 996.5c0.5-3.4-4.4-5-6.6-2.8-0.7 0.8 0.4 1.7 1.1 1.1 0.7-0.6 1.7-0.5 2.4-0.1 0.9 0.4 1.2 1 1.4 1.9 0.2 0.8 1.5 0.7 1.7-0.1z"/>
					</g>
					<path id="&lt;Compound Path&gt;" fill-rule="evenodd" class="s4" d="m935.4 846.9c-23.4-4.4-43-23.7-47-47.2-3.1-18.4 4-52 25.9-56.2 2.6-4.2 7-6.7 11.9-6.9 0.9-4.4 3.6-8.6 7-11.4 4-3.3 7.8 1 10.3 4.1 0.8 1.1 0.3 2.3-0.9 2.7-2.9 1-4.6 3.2-5.7 6q0 0 0 0.1c6.6 3.7 8.4 12.6 5.4 19.3q0.3 0.2 0.6 0.6c3.1 5.2 3.4 10.3 3.8 16.2 0.6 12.5 5 20.6 16.5 25.6 8.3 3.5 19.8 5.4 21.1 16 3 24.8-30.4 34.6-48.9 31.1zm-16.6-103.5q4.4-0.8 8.7-1.5c1.4-0.2 2.7 1 2.2 2.5-0.6 1.8-1 3.5-1.2 5.2 1.3-0.5 2.8-0.8 4.4-0.5 3 0.5 5.1 2.5 6.6 4.9 1.4-4.9-0.8-9.9-5.2-13-1.1-0.8-1-1.9-0.4-2.7-0.2-0.3-0.3-0.8-0.2-1.4 0.8-3.1 3-5.5 5.7-7-0.7-0.7-1.5-1.3-2.2-1.6-1.6-0.9-2.5 0.3-3.6 1.6-2.3 2.5-3.7 5.4-5.2 8.4-0.2 0.5-0.7 0.6-1.2 0.5q0 0.1-0.1 0.1c-3.5 0.6-6.3 2-8.3 4.5zm36.7 57.1c-5.1-3.2-9.3-7.3-11.3-13-3.2-9 0.3-18.6-4.3-27.3-0.8 0.2-1.7-0.1-2-1-1.1-2.6-7.1-10.7-9.6-4.1-0.8 2.2-3.7 1.4-3.8-0.7-0.2-2.9 0.1-5.6 0.7-8.2l-9.7 1.6c-1 0.1-1.8-0.4-2.1-1.1-21.8 9.9-25.7 45.2-17.2 64.4 8.6 19.4 29.2 33.2 50.5 32.6 12.8-0.4 30.6-7.9 33.1-22.4 2.6-15.2-15.5-15.4-24.3-20.8z"/>
					<path id="&lt;Compound Path&gt;" fill-rule="evenodd" class="s4" d="m1807.5 223.4c-16.2 22-46 32.7-72.4 25.1-20.6-5.9-51.8-30.1-45.3-54.9-3-4.8-3.4-10.6-1.2-15.8-4-3.2-7.1-8.1-8.3-13-1.5-5.7 4.9-7.5 9.4-8.5 1.5-0.3 2.5 0.8 2.3 2.2-0.3 3.5 1.1 6.4 3.4 8.9q0.1 0 0.1 0.1c7.2-5.1 17.3-2.5 22.7 4q0.4-0.2 0.9-0.3c6.9-0.6 12.4 1.6 18.7 4.2 13.3 5.5 23.9 5.1 34.8-4.4 7.7-6.8 15.5-17.8 27.1-13.8 27.2 9.2 20.6 48.8 7.8 66.2zm-115.5-34.6q1.4-4.8 2.8-9.7c0.4-1.6 2.4-2.3 3.7-1.1 1.5 1.6 3.1 2.8 4.8 3.9 0-1.6 0.6-3.3 1.6-4.8 2-2.8 5.1-4 8.4-4.4-4.4-3.9-10.6-4-16-1.1-1.4 0.7-2.5 0.1-3-1-0.5 0.1-1.1 0-1.6-0.4-2.8-2.4-4.2-5.8-4.4-9.4-1.1 0.4-2.1 0.9-2.8 1.4-1.7 1.3-0.8 2.8-0.2 4.6 1.5 3.6 3.8 6.5 6.2 9.6 0.3 0.5 0.3 1 0 1.4q0 0.1 0 0.3c-1.1 3.8-1.1 7.4 0.5 10.7zm77.5-9.5c-5.8 3.7-12.2 6-19.2 5.3-10.9-1.2-19-9.7-30.3-9.2-0.3 0.9-1 1.7-2.1 1.6-3.3-0.2-14.6 2-9.1 7.9 1.9 1.9-0.4 4.4-2.6 3.5-3.1-1.2-5.7-2.8-8.2-4.8l-3.2 10.9c-0.3 1.1-1.2 1.6-2.1 1.6-0.6 27.5 34 49.2 58.2 50 24.3 0.8 48.9-13.7 58.9-36 6-13.5 7.1-35.7-6.7-45.5-14.4-10.3-23.7 8.3-33.6 14.7z"/>
					<g id="&lt;Group&gt;">
						<path id="&lt;Path&gt;" class="s4" d="m1639.7 572.1c-0.6-0.5-1.6 0.2-1.2 1 0.5 1.2 1.2 2.5 0.2 3.8-1.1 1.4-3 1.1-4.2 0.1-0.7-0.7-1.8 0.3-1.4 1.1q0.8 1.4-0.1 2.9-2.4 1.7-3.2-1.2c0.1-0.7-1-0.8-1.1-0.1-0.3 2.1 1.5 3.9 3.6 3.6 2-0.3 2.9-2 2.9-3.7 4.2 1.2 8.6-4.4 4.5-7.5z"/>
						<path id="&lt;Path&gt;" class="s4" d="m1656 582.1c-0.6-0.5-1.8 0.1-1.6 0.9 0.3 0.9 0.8 2 0 2.9-0.9 1.2-2.6 0.6-3.1-0.6q-0.1-0.1-0.2-0.3c-0.8-1-2.4 0-1.9 1.2q0.2 0.4 0.4 0.8c0.4 1.1-0.5 2.6-1.9 2.4-1.3-0.2-2.1-1.6-2.2-2.8-0.1-0.8-1.3-0.8-1.4 0 0 2.6 2.1 5.2 4.9 4.6 1.4-0.3 2.3-1.4 2.7-2.6 1.1 0.4 2.3 0.4 3.4-0.2 2.2-1.2 2.9-4.7 0.9-6.3z"/>
						<path id="&lt;Compound Path&gt;" fill-rule="evenodd" class="s4" d="m1696.4 613.1c0.5 0.7 0.3 2-0.6 2.2-7.5 2.2-16.9 2.1-23.8-2.2 2.2 7.6 1.4 15.6-2.2 22.7-0.4 1-1.8 1.3-2.5 0.4-5.2-7-9.6-17.1-7.4-26 0.2-0.7 1.1-0.8 1.3 0 1.6 8.2 2.5 15.2 7 22.1 2.7-6.9 2.7-14.2 0.1-21.3-0.7-1.7 1.9-2.9 2.6-1.1q0.1 0.1 0.1 0.2c7.2 2.9 13.9 4.7 21.6 3-5.5-6.1-12.7-10-20.9-11.2-1-0.1-1.3-1-1.2-1.7-0.1-0.1-0.1-0.1-0.2-0.2-7.4-16.9-18.3-31-32.6-41 0.4 8.2-10.7 12.5-17.3 14 7.4 16.3 20.6 28.8 39.4 35.8 0.7 0.3 0.4 1.5-0.4 1.3-8.3-1.1-15.5-4.4-21.6-9-1.8 1-3.8 1.7-5.6 2.6-0.7 0.3-1.4-0.1-1.7-0.7-2.6-4.9-5.2-9.8-7.7-14.6-0.4-0.7 0.1-1.5 0.7-1.8q0.3-0.2 0.7-0.4c-7.9-12.1-12.3-27.1-13.5-40.7-0.1-1.1 0.8-1.7 1.8-1.5 27 7.4 51.4 27.9 60.4 54.9 0 0.1 0 0.2 0 0.3 9.4 1.6 17.5 6.4 23.5 13.9zm-60.3-13.4c-3.8-3.2-7.2-6.9-10.2-11q3.2 6.1 6.4 12.2c1.2-0.4 2.5-0.9 3.8-1.2zm-0.5-42.1c-6.7-4.4-14-8-22.1-10.5 0.9 8.9 3 17.2 6.3 24.7 7.2-2.6 14.8-5.8 15.8-14.2z"/>
						<path id="&lt;Path&gt;" class="s4" d="m1620.2 557.7c-2 1.8-0.4 5.3 2.3 5 0.8-0.1 0.7-1.1 0-1.3-0.8-0.2-1.4-1.7-0.9-2.4 0.4-0.9-0.5-2.1-1.4-1.3z"/>
					</g>
					<g id="&lt;Group&gt;">
						<path id="&lt;Path&gt;" class="s4" d="m1344.4 720.1c0.7 0.4 1.5-0.4 1.1-1.1-0.7-1.2-1.5-2.3-0.8-3.7 0.9-1.6 2.8-1.6 4.2-0.7 0.8 0.5 1.7-0.6 1.2-1.4q-0.9-1.2-0.3-2.8 2.1-2 3.3 0.6c0.1 0.8 1.1 0.8 1.1 0 0.1-2.1-2.1-3.6-4.1-3-1.9 0.6-2.5 2.3-2.3 4.1-4.3-0.7-7.9 5.6-3.4 8z"/>
						<path id="&lt;Path&gt;" class="s4" d="m1326.9 712.7c0.7 0.4 1.7-0.4 1.4-1.2-0.4-0.9-1-1.9-0.4-2.9 0.8-1.3 2.4-0.9 3.2 0.1q0.1 0.2 0.2 0.3c0.9 0.9 2.4-0.3 1.7-1.4q-0.2-0.4-0.6-0.7c-0.5-1.1 0.2-2.7 1.6-2.7 1.3 0 2.3 1.3 2.6 2.4 0.2 0.8 1.4 0.6 1.3-0.2-0.3-2.5-2.8-4.8-5.4-3.8-1.4 0.5-2.2 1.7-2.3 3-1.2-0.3-2.4-0.1-3.4 0.7-1.9 1.5-2.2 5 0.1 6.4z"/>
						<path id="&lt;Compound Path&gt;" fill-rule="evenodd" class="s4" d="m1282.4 687.8c-0.6-0.6-0.6-1.9 0.3-2.3 7.1-3.2 16.4-4.5 23.8-1.2-3.2-7.2-3.6-15.2-1.1-22.8 0.3-1 1.6-1.6 2.4-0.8 6.2 6.2 12 15.6 11.1 24.7-0.1 0.7-1 0.9-1.3 0.2-2.7-8-4.7-14.7-10.1-20.9-1.7 7.2-0.6 14.5 3 21.1 0.9 1.6-1.5 3.1-2.4 1.5q-0.1-0.1-0.2-0.2c-7.5-1.8-14.4-2.6-21.7 0.1 6.3 5.3 13.9 8.1 22.3 8.1 0.9 0 1.4 0.7 1.4 1.5 0.1 0.1 0.2 0.1 0.2 0.2 9.8 15.6 22.6 28 38.2 35.8-1.5-8 8.8-14 15.2-16.4-9.8-15-24.6-25.5-44.3-29.7-0.7-0.1-0.6-1.3 0.2-1.3 8.4-0.1 16 2.1 22.7 5.8 1.7-1.2 3.5-2.3 5.2-3.4 0.6-0.4 1.4-0.1 1.8 0.4 3.2 4.4 6.5 8.9 9.7 13.4 0.5 0.6 0.1 1.4-0.4 1.8q-0.3 0.3-0.7 0.5c9.6 10.9 16.2 25 19.3 38.4 0.3 1-0.5 1.8-1.5 1.6-27.9-3.3-55-20-67.8-45.5 0-0.1-0.1-0.2-0.1-0.2-9.5-0.3-18.2-3.8-25.2-10.4zm61.6 4.5c4.3 2.6 8.2 5.8 11.7 9.5q-4.1-5.7-8.1-11.3c-1.2 0.7-2.4 1.3-3.6 1.8zm6.6 41.6c7.2 3.4 15 5.8 23.4 7.1-2.2-8.6-5.5-16.5-9.8-23.4-6.8 3.5-13.8 7.8-13.6 16.3z"/>
						<path id="&lt;Path&gt;" class="s4" d="m1365.8 731.6c1.7-2.2-0.3-5.4-3-4.7-0.8 0.2-0.5 1.2 0.2 1.3 0.9 0.1 1.6 1.5 1.3 2.3-0.3 0.9 0.8 2 1.5 1.1z"/>
					</g>
					<g id="&lt;Group&gt;">
						<path id="&lt;Path&gt;" class="s4" d="m848.5 851.7c0.9 0.3 1.6-0.8 1-1.4-0.9-1.1-1.9-2.1-1.4-3.7 0.6-1.7 2.7-2 4.1-1.3 1 0.4 1.8-0.9 1.1-1.6q-1.2-1.1-0.8-2.9 1.9-2.4 3.5 0.2c0.2 0.7 1.3 0.6 1.2-0.2-0.3-2.1-2.7-3.4-4.7-2.4-1.8 0.8-2.2 2.7-1.7 4.5-4.5 0-7.2 7-2.3 8.8z"/>
						<path id="&lt;Path&gt;" class="s4" d="m829.4 846.7c0.8 0.3 1.8-0.6 1.3-1.4-0.5-0.8-1.3-1.8-0.9-2.9 0.6-1.5 2.4-1.3 3.3-0.3q0.2 0.1 0.3 0.2c1.1 0.7 2.4-0.7 1.5-1.7q-0.3-0.4-0.7-0.7c-0.7-1-0.3-2.7 1.2-3 1.4-0.2 2.6 1 3.1 2.2 0.3 0.7 1.5 0.3 1.3-0.5-0.7-2.5-3.6-4.5-6.2-3.1-1.3 0.8-1.9 2.1-1.9 3.5-1.2-0.1-2.4 0.2-3.3 1.2-1.8 1.9-1.5 5.5 1 6.5z"/>
						<path id="&lt;Compound Path&gt;" fill-rule="evenodd" class="s4" d="m780.1 828.2c-0.8-0.5-1-1.9-0.1-2.4 6.7-4.4 16.1-7.2 24.2-5-4.4-6.8-6.1-15-4.7-23.2 0.1-1 1.3-1.8 2.3-1.1 7.3 5.4 14.8 14.1 15.2 23.5 0.1 0.7-0.9 1.1-1.2 0.4-4.1-7.7-7.1-14.3-13.7-19.8-0.5 7.7 1.6 14.9 6.4 21.2 1.2 1.5-1.1 3.4-2.3 1.9q-0.1-0.1-0.1-0.2c-8-0.7-15.2-0.4-22.3 3.5 7.3 4.4 15.5 6.1 24.1 4.8 1-0.1 1.6 0.6 1.7 1.3 0.1 0.1 0.2 0.1 0.2 0.2 12.4 14.4 27.5 25.1 44.7 30.7-2.8-7.9 6.9-15.6 13-19.1-12.4-13.9-29.1-22.3-49.9-23.5-0.8-0.1-0.9-1.3-0.1-1.5 8.6-1.3 16.7-0.3 24.2 2.5 1.5-1.5 3.2-2.9 4.8-4.3 0.6-0.6 1.4-0.4 1.9 0.1 4 4.1 8 8.2 12 12.2 0.6 0.6 0.3 1.5-0.1 2q-0.3 0.3-0.7 0.6c11.5 9.6 20.5 23.1 25.8 36.3 0.4 1-0.3 1.9-1.3 1.9-29.1 0.9-59.4-12-76.5-36.1-0.1 0-0.1-0.1-0.1-0.2-9.8 1.2-19.3-1.1-27.4-6.7zm63.7-5c4.8 2 9.3 4.7 13.5 7.9q-5.1-5.1-10.1-10.3c-1.1 0.9-2.2 1.7-3.4 2.4zm13.2 41.6c8 2.4 16.3 3.6 25.1 3.7-3.6-8.6-8.2-16.1-13.7-22.5-6.4 4.7-12.9 10.2-11.4 18.8z"/>
						<path id="&lt;Path&gt;" class="s4" d="m872.3 860.1c1.3-2.5-1.2-5.4-3.9-4.3-0.7 0.3-0.3 1.3 0.4 1.2 0.9 0 1.9 1.3 1.7 2.2-0.2 1 1.2 1.9 1.8 0.9z"/>
					</g>
					<g id="&lt;Group&gt;">
						<path id="&lt;Compound Path&gt;" fill-rule="evenodd" class="s4" d="m1127.5 379c20.2-3.2 42.9 8 49.9 27.7 5.1 14.3-2.9 35.8-19.6 34.7-0.1 0.7-0.7 1.2-1.6 1-4.7-1.2-8-3.7-11.7-6.8-3.8-3.1-7.2-6-12.6-6.2-3.5-0.2-6.8 1.3-10.3 1.6-8.3 1-15.9-2.4-20.5-9.6-12.2-19.4 7.9-39.4 26.4-42.4zm-26.6 31.9c1 14.2 13.2 18.2 25.2 16.3 4.8-0.7 9-1 13.4 1.2 5.9 3 9.8 8.5 16 10.7 22.6-0.1 24.8-27.3 12.5-42-11.8-14.1-32.8-19.4-49.7-11.9-10 4.5-18.3 14.1-17.4 25.7z"/>
						<path id="&lt;Compound Path&gt;" fill-rule="evenodd" class="s4" d="m1130.2 392.7c8.2 0.9 14.2 9 12.8 17-1.2 6.6-7.2 11.3-13.5 10-0.2 0.3-0.5 0.6-1 0.6-8.4 0.8-14.9-7.6-13.8-15.5 1-7.5 8.1-12.9 15.5-12.1zm-12.6 13.3c-0.3 7.1 5 10.4 11.2 11.7q0.3 0.1 0.5 0.3c6.3 0.2 11.4-4.8 10.9-11.5-0.5-5.7-5.8-10.8-11.6-10.7-5.7 0.1-10.7 4.4-11 10.2z"/>
					</g>
					<g id="&lt;Group&gt;">
						<path id="&lt;Compound Path&gt;" fill-rule="evenodd" class="s4" d="m1857.3 446.9c24.4 0.2 48.9 18 53.3 42.7 3.1 17.9-10.7 41.6-30 37-0.4 0.7-1.2 1.2-2.2 0.8-5.2-2.4-8.7-6-12.4-10.3-3.9-4.5-7.3-8.6-13.6-9.9-4.1-0.9-8.3 0.1-12.5-0.1-10-0.6-18.3-6.1-22.2-15.5-10.5-25.3 17.2-44.8 39.6-44.7zm-37.8 32.3c-1.6 17 12 24.1 26.5 24.3 5.8 0.1 10.8 0.6 15.6 4.1 6.3 4.7 9.8 11.9 16.6 15.8 26.8 4.4 34.7-27.3 23.2-47.1-11.1-19-34.7-29.4-56.2-23.9-12.7 3.2-24.4 13-25.7 26.8z"/>
						<path id="&lt;Compound Path&gt;" fill-rule="evenodd" class="s4" d="m1857.8 463.6c9.4 2.6 14.9 13.4 11.6 22.6-2.8 7.5-10.8 11.8-17.9 9.1-0.3 0.3-0.8 0.6-1.3 0.5-10.1-0.7-16-12-13.2-21.1 2.7-8.6 12.1-13.6 20.8-11.1zm-17.6 13.1c-1.8 8.4 3.7 13.4 10.8 16.1q0.4 0.2 0.6 0.4c7.3 1.5 14.4-3.3 15.1-11.4 0.6-6.8-4.6-13.9-11.4-14.9-6.8-1.1-13.6 3-15.1 9.8z"/>
					</g>
					<g id="&lt;Group&gt;">
						<path id="&lt;Compound Path&gt;" fill-rule="evenodd" class="s4" d="m882.7 882c19.1-15.3 49.3-16.9 68.3-0.5 13.7 11.9 18 39 0 47.6 0.2 0.8-0.1 1.7-1.2 2-5.5 1.5-10.5 0.8-16.1-0.2-5.8-1-11.1-2-16.8 0.9-3.8 1.9-6.4 5.4-9.7 7.8-8.1 5.9-18.1 6.9-27 2-24.1-13-15-45.6 2.5-59.6zm-9 48.8c9.5 14.2 24.5 11.2 35.9 2.2 4.6-3.6 8.7-6.4 14.7-6.6 7.8-0.4 15.1 3 22.9 1.7 23.5-13.4 9.7-43-11.8-51.1-20.5-7.8-45.4-1-58.6 16.8-7.8 10.6-10.8 25.5-3.1 37z"/>
						<path id="&lt;Compound Path&gt;" fill-rule="evenodd" class="s4" d="m893.6 894.6c9-3.9 20.1 1 23.3 10.3 2.6 7.5-0.9 15.9-8.2 18.3 0 0.4-0.2 0.9-0.7 1.2-8.3 5.8-20 0.8-23.5-8.1-3.4-8.4 0.8-18.1 9.1-21.7zm-5.4 21.2c3.9 7.7 11.3 8.1 18.6 5.8q0.3-0.2 0.6-0.1c6.7-3.5 9.2-11.6 4.6-18.4-3.8-5.7-12.3-7.9-18.3-4.4-5.9 3.5-8.6 10.9-5.5 17.1z"/>
					</g>
					<g id="&lt;Group&gt;">
						<path id="&lt;Compound Path&gt;" fill-rule="evenodd" class="s4" d="m1730.3 381.5c16.5 0.1 33 12.1 36 28.8 2.1 12-7.2 28.1-20.3 24.9-0.2 0.5-0.8 0.9-1.4 0.6-3.6-1.6-5.9-4.1-8.4-7-2.6-3-5-5.8-9.2-6.7-2.8-0.6-5.6 0.1-8.4 0-6.7-0.4-12.4-4.1-15-10.5-7.1-17 11.6-30.2 26.7-30.1zm-25.5 21.7c-1.1 11.5 8.1 16.3 17.9 16.5 3.9 0 7.3 0.3 10.5 2.7 4.2 3.2 6.6 8 11.2 10.7 18.1 3 23.4-18.4 15.7-31.8-7.5-12.8-23.5-19.9-37.9-16.2-8.6 2.2-16.5 8.8-17.4 18.1z"/>
						<path id="&lt;Compound Path&gt;" fill-rule="evenodd" class="s4" d="m1730.6 392.7c6.4 1.8 10.1 9.1 7.9 15.3-1.9 5.1-7.3 8-12.1 6.1-0.2 0.2-0.5 0.4-0.9 0.4-6.8-0.5-10.8-8.1-8.9-14.3 1.8-5.8 8.2-9.1 14-7.5zm-11.8 8.9c-1.3 5.6 2.5 9 7.3 10.8q0.2 0.1 0.3 0.3c5 1 9.8-2.2 10.3-7.7 0.4-4.6-3.1-9.4-7.8-10.1-4.5-0.7-9.1 2.1-10.1 6.7z"/>
					</g>
					<g id="&lt;Group&gt;">
						<path id="&lt;Compound Path&gt;" fill-rule="evenodd" class="s4" d="m1253.7 699.7c29 0.3 58.1 21.4 63.3 50.8 3.8 21.2-12.6 49.4-35.6 43.9-0.5 0.8-1.4 1.5-2.6 0.9-6.2-2.8-10.3-7.1-14.7-12.2-4.6-5.3-8.7-10.2-16.2-11.8-4.9-1-9.9 0.2-14.8-0.1-11.9-0.6-21.8-7.2-26.4-18.3-12.5-30.1 20.4-53.3 47-53.2zm-44.9 38.4c-1.9 20.2 14.3 28.6 31.5 28.9 6.9 0.1 12.8 0.6 18.5 4.8 7.5 5.6 11.7 14.1 19.8 18.8 31.8 5.3 41.2-32.4 27.5-56-13.2-22.5-41.2-34.9-66.7-28.4-15.1 3.9-29 15.4-30.6 31.9z"/>
						<path id="&lt;Compound Path&gt;" fill-rule="evenodd" class="s4" d="m1254.3 719.5c11.2 3.2 17.7 16 13.8 26.9-3.3 9-12.8 14.1-21.3 10.8-0.3 0.4-0.9 0.7-1.5 0.6-12-0.9-19-14.2-15.7-25.1 3.2-10.2 14.4-16.1 24.7-13.2zm-20.8 15.6c-2.2 10 4.4 15.9 12.8 19.2q0.4 0.1 0.6 0.4c8.8 1.8 17.2-3.9 18-13.5 0.7-8.1-5.4-16.5-13.6-17.8-8-1.2-16.1 3.7-17.8 11.7z"/>
					</g>
					<g id="&lt;Group&gt;">
						<path id="&lt;Compound Path&gt;" fill-rule="evenodd" class="s4" d="m1746.4 86.9c16.5 0.1 33 12.2 35.9 28.8 2.2 12.1-7.1 28.1-20.2 24.9-0.3 0.5-0.8 0.9-1.5 0.6-3.5-1.6-5.8-4-8.3-6.9-2.7-3.1-5-5.9-9.2-6.8-2.8-0.5-5.6 0.2-8.4 0-6.8-0.4-12.4-4.1-15-10.4-7.1-17.1 11.5-30.3 26.7-30.2zm-25.5 21.8c-1.1 11.4 8.1 16.2 17.9 16.4 3.9 0 7.2 0.4 10.5 2.7 4.2 3.2 6.6 8.1 11.2 10.7 18 3 23.4-18.4 15.6-31.8-7.5-12.8-23.4-19.8-37.9-16.1-8.6 2.2-16.4 8.7-17.3 18.1z"/>
						<path id="&lt;Compound Path&gt;" fill-rule="evenodd" class="s4" d="m1746.7 98.1c6.3 1.8 10.1 9.1 7.8 15.3-1.8 5.1-7.2 8-12 6.1-0.3 0.3-0.5 0.4-0.9 0.4-6.8-0.5-10.8-8.1-8.9-14.3 1.8-5.8 8.2-9.1 14-7.5zm-11.8 8.9c-1.3 5.7 2.5 9 7.2 10.9q0.3 0.1 0.4 0.2c5 1 9.8-2.2 10.2-7.6 0.4-4.7-3.1-9.4-7.7-10.1-4.6-0.7-9.1 2-10.1 6.6z"/>
					</g>
					<g id="&lt;Group&gt;">
						<path id="&lt;Compound Path&gt;" fill-rule="evenodd" class="s4" d="m326.4 739.3c-35.9 17.1-84.5 8.3-108.4-24.8-17.3-24-13.9-68.6 17.8-75.5 0-1.4 0.8-2.7 2.6-2.7 9.4-0.3 17 2.6 25.5 6.2 8.9 3.8 16.9 7.5 27 5 6.6-1.7 12.1-6.2 18.3-8.8 15.1-6.2 31.2-4 43.6 7 33.4 29.6 6.6 77.9-26.4 93.6zm32.6-74.1c-9.7-26.1-34.7-26.8-56.1-16.9-8.6 4-16.2 6.8-25.8 5-12.5-2.3-22.8-10.5-35.6-11.3-42.4 12.4-31.6 64.6-0.6 85.5 29.8 20 71.8 18.5 99.3-4.7 16.4-13.8 26.7-36.4 18.8-57.6z"/>
						<path id="&lt;Compound Path&gt;" fill-rule="evenodd" class="s4" d="m313.9 715.2c-15.7 2.8-31.4-9.1-33.1-25-1.3-12.9 7.4-24.9 19.9-25.9 0.2-0.8 0.6-1.4 1.5-1.7 15.3-6.1 32 6.2 34.3 21.6 2.2 14.5-8.1 28.5-22.6 31zm16.4-31.7c-3.2-13.6-14.9-16.9-27.2-16q-0.6 0.1-1.1-0.1c-11.9 3-18.8 15-14.1 27.4 3.9 10.4 16.6 17.1 27.4 13.8 10.6-3.3 17.7-14.1 15-25.1z"/>
					</g>
					<path id="&lt;Compound Path&gt;" fill-rule="evenodd" class="s4" d="m601.9 844.1c-9 11.7-24.2 12.8-37.4 8.2-10.3-3.6-20.3-12.5-18.5-24.5 1.8-12.8 15.6-19 27.2-19 0.2 0 0.3 0.1 0.4 0.1 2.6-2.3 6.4-2.4 9.3-0.3q0.1 0.1 0.1 0.1c-1.4-4.4-1.6-13.4 4.4-14.1 1.6-0.2 4.1 0.6 4.2 2.5 0 1.4-1.4 3.2-1.9 4.5-0.6 1.6-1 3.2-1.5 4.8 3 0.5 9.8 2.2 10.5 5.9 0.6-0.3 1.3-0.3 2 0.3 9.7 8.4 8.8 21.8 1.2 31.5zm-25-34.3c1.8 0.2 3.9 0.6 4.7 1.7 0.5 0.8 0.6 1.9 0.4 3.1q0.6-0.9 1.1-1.8c0.5-0.8 1.5-0.9 2.2-0.3q1.5 1.5 3.1 3 0.1-1.4 0.3-2.8c0.1-0.7 1.1-1.2 1.7-1 0.9 0.4 5.7 2.2 3.8-0.2-1-1.2-5.4-1.9-6.8-2.1-0.8-0.1-1.3-0.6-1.4-1.1-0.3-0.3-0.5-0.7-0.4-1.1 0.8-3.5 2.1-6.7 3.7-9.9-2.1-1.7-4.2 1.8-4.6 3.7-0.6 2.7-0.7 5.6-0.6 8.3 0 0.5-0.6 0.5-0.8 0.2-0.1 0.5-0.6 0.9-1.2 0.6-1.9-1-3.7-1-5.2-0.3zm21.2 5.4c-0.1-0.1-0.1-0.2-0.2-0.3-1.5 1.2-4.6 0.6-6.7 0-0.1 1.2-0.2 2.4-0.2 3.7 0 1.2-1.5 1.7-2.3 0.9l-4.1-3.9c-1.1 1.8-2.4 3.4-4 4.9-1.1 0.9-2.5 0-2.3-1.3 0.2-1.2 1.5-5.2 0.7-6.1-0.6-0.8-4.8-0.9-5.8-1-0.8-0.2-1-1-0.8-1.6-7.3 2.2-17.7 4.6-21.1 12.3-5.7 13.1 4.4 23 16 26.7 11 3.6 24.2 2.2 31.6-7.5 6.1-8.1 7.7-19.5-0.8-26.8z"/>
					<path id="&lt;Compound Path&gt;" fill-rule="evenodd" class="s4" d="m1442.7 765.6c-2.7 7.4-3.2 30.7-17.4 25.7-5.4-1.9-7.1-7.9-7.1-13 0-4.1 1-8 0.8-12-0.3-4.7-2-9.1-4-13.4-7.3-15.9-13.5-30.8-14.5-48.5 0-1 1.1-1.2 1.6-0.5q-0.2-0.6-0.3-1.1c-5.3 5-13.1 0.4-12.1-6.1-2.5 0.3-5.2-1.3-5.7-4.1-0.9-3.9 2.9-6.4 6.4-6.6-0.6-1.7 0.1-3.8 1.6-5.1 2.3-2 5.2-1.4 7.6-0.1 0.5-2.7 2.7-5 5.6-5.7 3.8-0.9 7.3 1.2 9.6 4.2 0.5-2 1.5-3.9 2.3-4.6 4.7-4.1 10.8-1.6 13.2 3.3 3.5-4.8 9.2-8.3 15-5 3.5 2 4.7 6.3 3.1 9.7 5.7-1.3 10 4 8 9.3 1.2 0.1 2.5 0.4 3.6 0.9 0.9-2.6 3.6-4 6.5-3.6 4 0.7 5.7 4.5 6.7 8.1 2.7-2 7.2-4.7 9.9-2.8 1.8 1.4 1.4 4 1.2 6.4 2.4-1.3 6-0.5 7.6 2.2 3.1 5.3-1.4 9.9-6 12.3 3.8 2.2 6.1 6.9 2.5 10.8-3.4 3.7-9.5 1.5-9.7-3.5q-0.5 1-1.1 1.7c1-0.1 2 0.8 1.3 1.9-4.1 7.3-10.6 11.7-17.3 16.5-8.4 5.9-15.3 12.9-18.9 22.7zm19.6-71.4c2.5 1.8 4.2 4.6 4.2 8.1-0.1 3.7-2.7 6.6-5.8 7.3 0.6 3.2-1.2 5.5-3.5 6.2 1.3 3.1 5.5 4.2 8 0.8 0.6-0.9 2.2-0.1 1.9 0.9-1.8 7.3 8.4 9.9 10.2 2.6 0.4-1.4 2.5-1 2.2 0.4q-0.1 0.6-0.3 1.1c0.6-0.3 1.3-0.1 1.3 0.6 0.1 4.9 6.6 4.1 7.1 0.3 0.5-3.3-2.4-5.2-5.1-5.7-1.1-0.2-1.3-1.9-0.2-2.3 2.5-0.9 4.6-1.7 6.2-3.8q1.5-1.2 1.8-3.1 0.9-5.6-6.1-3-0.2 0.1-0.5 0.2c-0.6 0.7-1.9 0.4-1.7-0.7q0.2-0.8 0.5-1.5c0-1.2 0.2-2.4-0.1-3.6-1.2-4.9-6.9-0.5-9.3 1.5-0.5 0.5-1.6 0.1-1.8-0.6-0.3-1.5-0.7-3-1.4-4.4q-0.9-3.1-4.6-3.7zm-25.9 85.6c0.8-3.1 1-6.3 1.7-9.4 1.3-5.7 3.6-11.1 6.9-15.9 8.1-12 23.1-16.6 30.8-28.7-2.4 1.3-5.4 1.1-7.7-0.3-0.1 0.3-0.3 0.6-0.6 0.8-5.9 3.5-9.7 15.4-18.4 13-9-2.4-4.3-13.8-3.8-20.1-1.6-1-2.9-2.8-3.8-4.5-2.9 2.5-6.5 2.3-9 0.4-1.9 4-4.3 7.8-7.3 11.1-1.8 2-4 4.1-6.9 3.8-7-0.7-8.4-13.9-8.5-19.8-3.4 0-6.5-2.5-7.6-5.6 2.1 14.4 6.1 28.2 12.5 41.3 2.7 5.4 5.7 10.9 6.8 16.9 1.2 6.3-1.3 12.8 0.1 19q0.4 3.3 2.9 5.7 4.5-0.8 8.9-1.5c1.6-1.2 2.5-4.4 3-6.2zm-33-78.4c0.2 3.5 3.1 6.9 6.9 6.6 3.7-0.4 5.8-4.1 5.4-7.5q-0.1-0.3 0-0.5c-2.9-0.6-5.5-2.6-6.3-5.8-1.1-4.6 2.4-9.6 7.1-9.9 0.8-0.1 1.1 1.1 0.3 1.3-3.5 1.2-6.9 4.5-5.6 8.6 1.2 4 6.1 5.1 9.5 3.5 0.7-0.3 1.4 0.6 1.1 1.2-1.3 2.3-2.1 4.8-1.2 7.4 1.3 3.4 7.8 6 8.5 0.1 0.1-0.8 1.2-0.6 1.3 0.1 0.4-0.4 1.2 0 1 0.6-0.4 1.7-0.2 3.3 0.4 4.5 0.9-0.1 2 0.8 1.5 1.9 2.1 1.7 5.3 1.7 7.7-1.2 0.5-0.6 1.5-0.4 1.7 0.3q0.6 3.8 4.7 3.3 4.7 2.8 3.9-2.4c-0.6-1.2 0.9-2.3 1.7-1.2q2.8-1.3 5.7-2.7c-1.3-0.1-2.6-0.8-3.7-2-0.9-0.9 0.3-2.4 1.3-1.5q10 0.9 7.7-6.4-0.7-1.2-1.3-2.3c-1.9-2.6-4.8-3.6-7.9-3.5-0.9 0-1.3-0.9-0.8-1.6q2.7-9.4-6.2-8.1-0.2 0.1-0.4 0-0.4 0.5-0.9 0.9c-0.8 0.7-1.9-0.6-1.2-1.4 3.8-4.4 0.3-10.1-5.3-9.8-4.2 0.3-7.1 3.6-9 7-0.5 1-1.8 0.7-2-0.4-1.1-4.7-5.6-6.8-9.7-4.7q-1.8 0.9-2.4 2.8-1.5 1.7-0.1 3.6c1-0.3 1.6 1.3 0.5 1.7-2.3 0.8-3-0.5-3-2.3-1.6-2.1-3.7-4.1-6.4-4.3-3.3-0.4-6.4 2.2-5.9 5.6 0.1 1.2-1.3 1.7-2.1 1.1-1.1-0.9-3.2-2.2-4.8-1.9-2.3 0.4-3 2.6-2.1 4.4 0.1 0.3 0 0.6-0.1 0.8-0.2 0.3-0.4 0.4-0.7 0.4-1.9-0.1-4.1 0.3-5.3 2-1.9 2.7 1.3 6.4 3.7 4.3 0.9-0.9 2.5-0.1 1.9 1.2-2.6 5.5 3.8 10.2 8.2 5.8 0.4-0.4 1-0.4 1.4-0.1 0.4-0.4 1.2-0.1 1.3 0.5zm8.6 8.6c0.2 2.7 0.6 5.4 1.3 8.1q0.5 1.8 1.1 3.4c1.1 2.8 1 3.5 4.2 4.2 3.1 0.7 3.2 0.2 5-1.8 1-1.2 2-2.5 2.8-3.7 1.7-2.3 3-4.8 4.1-7.4-0.6-1.1-0.9-2.5-0.7-4-1.5 2.5-5 3.6-7.8 2.3-4.4-2-4.3-7.2-2.7-11.2q-0.6 0.2-1.3 0.2 0 0.1 0 0.2c0.9 4.1-2 8.5-6 9.7zm53.8 13.9c0.1-0.1 0.2-0.1 0.3-0.1-0.8-1-1.4-2.3-1.5-3.8-3.7 2.2-8.5 0.2-9.4-4.1q-0.9-0.1-1.7-0.5c-0.2 1.7-1.3 3.3-3.2 4.1-1 0.5-2 0.6-2.9 0.4-0.4 6-3.5 18.1 4.8 16.6 6.1-1.2 8.5-9.6 13.6-12.6z"/>
					<path id="&lt;Compound Path&gt;" fill-rule="evenodd" class="s4" d="m714.8 730c5.8 3 24.7 5.6 19.3 16.8-2.1 4.1-7.2 5-11.3 4.5-3.3-0.4-6.4-1.6-9.7-1.8-3.9-0.2-7.7 0.7-11.3 1.9-13.7 4.5-26.5 8-41.1 7.1-0.7 0-0.8-1-0.2-1.3q-0.5 0.1-0.9 0.1c3.5 4.8-1 10.7-6.2 9.3 0 2.1-1.5 4.1-3.8 4.3-3.3 0.3-5-3-4.9-5.9-1.4 0.4-3.1-0.4-3.9-1.8-1.4-2-0.7-4.3 0.6-6.2-2.2-0.7-3.8-2.7-4.1-5.1-0.4-3.2 1.7-5.9 4.3-7.4-1.5-0.7-3-1.7-3.5-2.4-2.9-4.2-0.2-9 4-10.5-3.5-3.2-5.9-8.2-2.6-12.6 2-2.7 5.6-3.3 8.2-1.7-0.5-4.7 4.2-7.7 8.3-5.5q0.4-1.6 1.1-2.9c-2-1-2.9-3.4-2.2-5.6 0.9-3.3 4.2-4.3 7.2-4.7-1.3-2.5-3.2-6.4-1.3-8.4 1.3-1.4 3.4-0.7 5.3-0.3-0.8-2.2 0.2-5 2.5-6 4.7-2 8 2 9.5 6 2.2-2.9 6.2-4.2 9-1 2.8 3.2 0.3 8-3.7 7.6q0.7 0.5 1.2 1.1c0.1-0.8 0.9-1.5 1.7-0.9 5.6 4.1 8.5 9.8 11.8 15.8 4 7.4 9 13.7 16.7 17.5zm-56.4-22.9c1.8-1.9 4.2-3 7.1-2.6 2.9 0.5 5.1 2.9 5.3 5.4 2.7-0.2 4.4 1.5 4.7 3.5 2.7-0.8 4-4.1 1.5-6.4-0.7-0.6 0.1-1.9 0.9-1.5 5.8 2.2 8.9-5.9 3.2-8.1-1.1-0.4-0.6-2.2 0.5-1.8q0.4 0.2 0.8 0.4c-0.2-0.5 0-1.1 0.7-1 3.9 0.3 4-5 0.9-5.8-2.6-0.7-4.5 1.5-5.2 3.6-0.3 1-1.7 0.9-1.9-0.1-0.4-2-0.9-3.8-2.4-5.4q-0.9-1.3-2.4-1.7-4.5-1.3-3.1 4.7 0.1 0.2 0.2 0.4c0.5 0.5 0.1 1.6-0.8 1.3q-0.7-0.2-1.1-0.6c-1-0.1-2-0.3-3-0.2-4.1 0.5-1.1 5.5 0.3 7.7 0.3 0.5 0 1.4-0.6 1.4-1.3 0.2-2.5 0.3-3.8 0.7q-2.6 0.5-3.4 3.5zm67.3 29.4c-2.4-1-5.1-1.5-7.5-2.3-4.5-1.6-8.7-4-12.3-7.2-9-7.8-11.3-20.4-20.4-27.9 0.8 2.1 0.4 4.5-1 6.3 0.2 0.1 0.4 0.2 0.6 0.6 2.3 5.1 11.6 9.3 8.8 16.2-2.9 7.1-11.7 2.2-16.8 1.1-1 1.3-2.5 2.2-4 2.7 1.7 2.6 1.2 5.6-0.5 7.4 3 2 5.9 4.3 8.3 7.1 1.4 1.6 2.9 3.6 2.4 5.9-1.2 5.7-12.2 5.5-16.9 5-0.4 2.9-2.7 5.1-5.4 5.7 12-0.3 23.6-2.2 34.9-6.2 4.7-1.7 9.5-3.6 14.5-3.9 5.3-0.4 10.3 2.3 15.5 1.8q2.7 0 4.9-1.9-0.1-3.7-0.3-7.4c-0.8-1.4-3.4-2.5-4.8-3zm-67.1 19.3c2.8 0.2 5.8-1.9 5.9-4.9 0.1-3.1-2.7-5.2-5.5-5.2q-0.3 0-0.5-0.1c-0.7 2.4-2.6 4.3-5.3 4.6-3.8 0.5-7.6-2.8-7.4-6.7 0-0.7 1-0.8 1.2-0.1 0.6 2.9 3 6.1 6.4 5.4 3.4-0.7 4.8-4.5 3.8-7.5-0.2-0.5 0.6-1 1-0.7 1.8 1.2 3.8 2.2 6 1.6 2.9-0.7 5.6-5.7 0.9-6.9-0.7-0.1-0.4-1 0.2-1-0.2-0.3 0.1-1 0.6-0.8 1.4 0.5 2.6 0.5 3.7 0.1 0-0.7 0.8-1.5 1.7-1 1.6-1.5 1.9-4.2-0.2-6.4-0.5-0.5-0.2-1.2 0.4-1.4q3.2-0.1 3.1-3.4 2.8-3.6-1.6-3.5c-1 0.4-1.7-0.9-0.8-1.5q-0.8-2.4-1.6-4.9c-0.3 1-0.9 2-2 2.8-0.8 0.6-1.9-0.5-1.1-1.2q1.7-8.1-4.5-6.9-1 0.4-2 0.8c-2.3 1.4-3.4 3.6-3.6 6.1-0.1 0.8-0.9 1-1.4 0.6q-7.4-3.2-7.2 4.2 0.1 0.2 0 0.3 0.3 0.4 0.6 0.8c0.5 0.8-0.7 1.6-1.3 0.9-3.2-3.5-8.1-1.3-8.4 3.4-0.3 3.5 2.2 6.1 4.8 8 0.8 0.5 0.4 1.6-0.5 1.6-4 0.4-6.1 3.9-4.9 7.5q0.7 1.5 2.1 2.2 1.2 1.3 2.9 0.5c-0.1-1 1.3-1.3 1.5-0.4 0.4 2-0.7 2.5-2.2 2.3-1.9 1.1-3.6 2.6-4.1 4.8-0.6 2.7 1.2 5.5 4 5.4 1 0 1.2 1.2 0.7 1.8-0.9 0.8-2.1 2.3-2 3.7 0.1 2 1.8 2.7 3.3 2.2 0.3-0.1 0.6 0 0.7 0.2 0.2 0.1 0.3 0.3 0.3 0.5-0.3 1.6-0.2 3.4 1 4.6 2.1 1.7 5.5-0.5 3.9-2.6-0.6-0.8 0.2-2.1 1.2-1.5 4.2 2.7 8.7-2.1 5.5-6.1-0.3-0.4-0.2-0.8 0.1-1.1-0.3-0.4 0-1.1 0.6-1.1zm7.8-6.1c2.2 0 4.5 0 6.8-0.4q1.4-0.2 2.8-0.5c2.4-0.6 3-0.5 3.9-3 0.8-2.5 0.4-2.6-1.1-4.3q-1.3-1.4-2.7-2.7c-1.7-1.5-3.6-2.8-5.6-4-1 0.4-2.1 0.5-3.4 0.2 2 1.4 2.5 4.4 1.2 6.6-2.1 3.4-6.4 2.8-9.4 1.1q0 0.5 0 1.1 0.1 0 0.1 0c3.5-0.3 6.8 2.5 7.4 5.9zm16.5-42.6q0-0.2 0-0.3c-0.9 0.6-2 0.9-3.2 0.9 1.4 3.2-0.7 6.9-4.3 7.3q-0.2 0.6-0.6 1.3c1.4 0.3 2.6 1.4 3.1 3 0.2 0.9 0.2 1.7 0 2.4 4.9 0.9 14.4 4.6 14-2.3-0.4-5.1-7-7.9-9-12.3z"/>
					<path id="&lt;Compound Path&gt;" fill-rule="evenodd" class="s4" d="m1643 89.3c-7.8 5.9-23.8 29.6-35.2 15-4.3-5.5-2.1-13 1.4-18.2 2.6-4.2 6.3-7.6 8.8-11.9 2.8-5.1 4-10.8 4.8-16.5 3-21.3 6.7-40.9 17.5-59.9 0.5-1 1.9-0.4 1.9 0.5 0.1-0.4 0.3-0.8 0.5-1.2-8.8 1.6-13.8-8.4-8.5-14.5-2.8-1.3-4.5-4.7-3.2-8 1.8-4.6 7.3-4.7 11.1-2.6 0.5-2.2 2.6-3.8 5-4.2 3.7-0.5 6.3 2.1 7.9 5 2.4-2.5 6.2-3.3 9.7-2.1 4.5 1.5 6.7 6.1 7.1 10.7 1.9-1.7 4.2-3 5.4-3.2 7.7-1.1 12.3 5.6 11.5 12.3 6.8-2.7 15-2.5 18.8 4.8 2.3 4.4 0.7 9.7-3.2 12.1 6.8 2.5 7.7 10.8 2 14.9 1.2 1 2.3 2.1 3.2 3.4 2.6-2.1 6.4-1.7 9 0.6 3.8 3.4 3 8.5 1.6 12.9 4.2-0.2 10.6-0.1 12.1 3.7 1 2.7-1.3 5.1-3 7.4 3.3 0.3 6.5 3.6 6.4 7.3-0.4 7.7-8 9.4-14.4 8.8 2.4 4.8 1.6 11.1-4.6 12.8-6.1 1.6-10.9-4.8-7.8-10q-1.1 0.6-2.3 0.9c1.1 0.7 1.5 2.2 0.1 2.9-9.2 4.8-18.8 5-28.9 5.4-12.7 0.6-24.4 3.2-34.7 10.9zm68-60.7c1.4 3.6 1.3 7.6-1.2 11.2-2.5 3.7-7.1 5-10.7 3.6-1.5 3.8-5 5-7.8 4.1-0.8 4.1 2.8 8.1 7.7 6.2 1.2-0.5 2.3 1.3 1.4 2.2-6.8 6.3 2 15.8 8.7 9.6 1.3-1.3 3.4 0.6 2.1 1.8q-0.5 0.5-1 0.9c0.7 0.1 1.4 0.8 0.9 1.6-3.1 5 4.1 8.6 7.2 5 2.6-3.1 0.9-7-1.5-9.3-1.1-1-0.1-2.9 1.3-2.6 3.1 0.8 5.9 1.3 9 0.3q2.3-0.2 3.8-2 4.7-5.2-4.3-7.3-0.2 0.1-0.5 0c-1.1 0.4-2.4-0.9-1.4-1.9q0.8-0.8 1.6-1.2c0.8-1.3 1.8-2.4 2.2-3.8 2.1-5.9-6.7-5.1-10.6-4.7-0.8 0.1-1.7-0.9-1.4-1.8 0.6-1.8 1.3-3.5 1.5-5.5q1.1-3.8-2.3-6.9zm-84 71.2c2.9-2.6 5.3-5.8 8-8.6 5.2-5 11.2-9 17.8-11.8 16.4-7 35-1.7 51-9-3.3-0.3-6.4-2.5-7.8-5.5-0.3 0.2-0.6 0.4-1.1 0.4-8.4-0.3-20.3 9.5-27.7 1.2-7.7-8.6 4.7-17.2 9.5-23.4-1-2.1-1.2-4.8-1-7.2-4.6 0.6-8.2-2-9.5-5.6-4.7 2.9-9.7 5.2-15 6.6-3.2 0.8-6.9 1.6-9.7-0.7-6.7-5.4 0.7-20 4.5-26.1-3.6-2.4-5-6.9-4.1-10.9-7.5 16.3-12.6 33.3-14.7 51.1-0.9 7.4-1.4 15-4.3 22-3 7.3-9.9 12.4-12.6 19.8q-1.8 3.6-0.7 7.7 5.1 2.3 10.1 4.5c2.5-0.2 5.6-2.9 7.3-4.5zm18.2-103.1c-2.1 3.8-1.3 9.2 2.8 11.4 4 2.1 8.7-0.3 10.5-4.2q0.2-0.3 0.4-0.5c-2.6-2.5-4-6.3-2.7-10.1 1.9-5.6 8.9-8.4 14-5.6 0.9 0.5 0.4 1.9-0.6 1.6-4.3-1.1-10.2 0-11.5 5.1-1.4 5 2.9 9.5 7.5 10 0.9 0.1 1.1 1.5 0.3 1.9-2.8 1.6-5.4 3.6-6.1 7-1 4.3 4 11.4 8.7 5.7 0.6-0.8 1.6 0.2 1.2 1 0.7-0.1 1.3 0.8 0.7 1.3-1.6 1.5-2.4 3.2-2.6 4.9 1 0.5 1.5 2.1 0.3 3 1 3.1 4.4 5.3 8.8 3.9 0.9-0.3 1.7 0.6 1.5 1.4q-1.9 4.4 2.6 6.6 3 6 5.7 0.1c0.1-1.6 2.4-1.8 2.5-0.1q3.9 0.5 7.7 1.1c-1.2-1.1-2.1-2.6-2.5-4.6-0.2-1.5 2-2.3 2.4-0.7q9.8 7.6 12.3-1.5 0.1-1.6 0.2-3.2c-0.3-4-2.6-6.9-5.9-8.9-0.9-0.6-0.7-1.8 0.3-2.2q9.1-8-1-12.5-0.3-0.1-0.5-0.3-0.7 0.2-1.4 0.3c-1.4 0.2-1.6-1.9-0.4-2.2 6.8-2 7.1-10.2 1.1-13.7-4.6-2.6-9.7-1-14 1.3-1.2 0.6-2.4-0.6-1.9-1.8 2.1-5.6-1.1-10.7-6.8-11.4q-2.5-0.2-4.4 1.3-2.6 0.8-2.5 3.6c1.3 0.5 0.9 2.5-0.5 2.2-3-0.7-2.9-2.5-1.6-4.4-0.2-3.2-1.1-6.7-3.7-8.8-3.2-2.5-8.2-1.9-10 1.9-0.6 1.3-2.4 0.9-2.8-0.3-0.6-1.6-1.8-4.3-3.7-5.1-2.8-1.1-4.9 0.6-5.2 3.1 0 0.4-0.3 0.7-0.7 0.8-0.2 0.2-0.6 0.2-0.9 0-1.9-1.4-4.4-2.6-6.8-1.6-3.7 1.5-3 7.6 0.9 6.9 1.5-0.2 2.7 1.7 1.2 2.6-6.4 3.9-2.9 13.1 4.6 11.4 0.7-0.1 1.3 0.3 1.5 0.8 0.7 0 1.4 0.8 1 1.5zm3.2 14.6c-1.6 3-3 6-4.1 9.3q-0.7 2.1-1.1 4.3c-0.8 3.6-1.3 4.3 1.5 7.1 2.7 2.8 3.1 2.4 6.4 1.4 1.8-0.5 3.7-1.2 5.4-1.9 3.2-1.3 6.2-3 9.2-4.8 0.1-1.6 0.7-3.3 1.8-4.7-3.1 1.6-7.4 0.4-9.5-2.8-3.2-5 0.4-10.4 4.7-13.4q-0.8-0.3-1.5-0.7 0 0.1-0.1 0.2c-1.9 4.9-7.8 7.4-12.7 6zm46.4 50.4c0.1 0 0.2 0 0.3 0.1-0.1-1.6 0.1-3.3 1-4.9-5.3-0.2-8.9-5.5-7-10.6q-0.8-0.7-1.4-1.6c-1.4 1.6-3.6 2.5-6.1 2.1-1.3-0.3-2.4-0.8-3.2-1.5-4.4 5.9-15.8 16.3-6.1 20.3 7.1 2.9 15.2-4.2 22.5-3.9z"/>
					<g id="&lt;Group&gt;">
						<path id="&lt;Compound Path&gt;" fill-rule="evenodd" class="s4" d="m1651.8 382.9c3.7 6.9 5.9 14.8 8.2 22.2 2.5 7.8 6.8 17.3 6.8 25.5 0.1 6-5.6 11.9-10.5 7.3 0.1 0.3 0.2 0.6 0.2 1 1.6 19.6-21.4 6.3-28.7 1.2-9.7-6.8-18.3-15.3-25.2-24.9-2.7-3.7-5.5-7.8-2.8-11.7 0.2-1.1 0.4-2.2 0.7-3.2-9.2 0.5-17.3 6.1-16.4 16.5 0.7 9.4 9.2 14.1 16.5 18.4q8.7 5.2 17.5 10.4c3.3 1.9 23.3 15.8 24 3.5 0-0.8 1.1-0.8 1.2-0.1 1.4 7.6-6.3 10.1-12.4 8-6.4-2.1-12.3-6.8-18-10.1-7.4-4.3-15.4-8.3-22.4-13.3-8-5.8-13-14.7-9.5-24.7 0.7-2 1.8-3.8 3-5.4-1.3-8.8 2.3-17.7 9.4-23.2 0.2-0.1 0.3-0.2 0.4-0.2-0.4-0.9-0.9-1.8-1.3-2.8-1.6-4.3-3.2-10.7-0.1-14.7 1.7-2.3 7-4.4 9.1-1.3 1.5 2.2 0.4 6.1 0.9 8.7q0.3 1.2 0.6 2.3c2.7-3.5 6.6-5.9 11-6.7 3.6-0.6 9.3-0.6 11.7 2.5q0.1-0.1 0.2-0.1c11.2-3.4 21.2 5.9 25.9 14.9zm-47.9-7.9q0.9 2.3 2.2 4.6c2.7-2.6 6.2-3.7 10.2-3.1 0.1 0 0.2 0 0.3 0.1 1.1-2.8 3-5.2 5.6-6.9-0.5-0.2-1.1-0.4-1.7-0.5-1.9-0.4-3.9-0.5-5.8-0.2-3.9 0.6-7.5 2.5-10.1 5.5-0.2 0.3-0.5 0.4-0.7 0.5zm-5 21.3q1.5 0 3 0.2c2.9-5.8 8.2-10.2 14.4-11.1-0.6-1.8-0.7-3.7-0.5-5.5-3.4-0.4-6.4 0.6-8.6 3.5-0.9 1.1-2.3 1-3-0.2-1.7-2.6-3.1-5.3-4.1-8.3-1-2.9-0.7-6.2-1.6-9q0.8-2.1-1.1-2.1-3.2-1.3-3.3 4.2c-0.2 1.9 0.5 4.6 1 6.4 1.4 4.7 4.2 8.5 7.5 12.1 0.5 0.5 0.5 1.3 0.2 1.9-1.4 2.6-2.7 5.3-3.9 7.9zm-0.3-5.6c0.6-2.6 0.5-2.4-1-4.8q-1-1.5-1.9-2.8c-5.6 4.5-8.7 10.8-9 17.7 2.7-2.3 6.1-3.8 9.7-4.3 0.9-1.9 1.8-3.9 2.2-5.8zm50.2 37.8c-4.5-10.3-9.2-21.8-16.2-30.7-5-6.4-11.7-11.2-20-7.2-3.6 1.7-6.1 4.4-7.9 7.7 0 0.6-0.3 1.2-0.7 1.5q-0.6 1.4-1.1 2.8c0.7 0.5 1.1 1.6 0.4 2.4-5.2 6.8 21.4 28 25.2 30.8 4.6 3.3 9.8 7 15.1 9q5.4 3.6 6.3-3.2 3.6-2.9 1.7-6.3c-0.3-2.2-1.9-4.8-2.8-6.8zm-8.7-53.8c-7.6-5.3-25.5-2.7-19.8 10.6 2 0.3 4.1 0.8 6.1 1.9 8.6 4.3 13.4 14.3 17.6 22.3 4 7.6 9.9 16.7 11.9 25.6 0.4-0.2 0.9-0.1 1.2 0.2q7.3-3.2 5-8.8l-1-3.4q-1.2-4.3-2.4-8.6c-1.9-6.3-3.8-12.4-5.9-18.6-2.7-7.6-5.7-16.3-12.7-21.2z"/>
					</g>
					<path id="&lt;Compound Path&gt;" fill-rule="evenodd" class="s4" d="m1067.6 883.7c-1.4 2.3-3.2 4.4-5.2 6.1-8.5 7.2-19.5 10.1-29.8 8.4 0.3 2.5 0.7 4.8 1.7 7 0.4 1-0.6 2.1-1.5 2q-4.9-0.3-9.8-0.6c-2.6-0.2-5.4 0-7.9-0.8-0.4 0.3-1.2 0.1-1.2-0.6q0 0 0-0.1c-0.2-0.3-0.2-0.8 0-1.2 0.1-4.6 0.4-7.5-2.4-9.9-11.3 1.6-18.3-6.3-22.3-16.6-1.1-3 1.7-3.4-4-5.4-1-0.4-2.6 0.2-3.8-0.2-2-0.6-3.4-1.7-4.5-3.6-2.3-4-1.7-9.7-0.3-14.1 0.9-3 2.3-6.1 4.4-8.4 1.1-1.2 4.6-2.5 5.3-3.6 0.8-1.4 0.3-4.2 0.9-5.9 0.7-2.4 2.1-4.5 3.9-6.1 2.1-1.8 4.1-1.9 6.5-2.7 2.4-0.8 3.4-0.4 5.4-3 0.9-1.1 1.1-2.5 2.1-3.6 3.2-3.7 7.6-4.4 11.6-3 0.1 0.1 0.2 0.1 0.2 0.2 2.6-1.3 5.7-1.4 8.8 0.4 4.2-6.4 11.6-9.7 18.3-6 3 1.6 3.7 5.3 5.9 6.8 3 2.1 7.7 0.2 11.1 2.2 2 1.2 3.6 2.9 4.6 4.9 8.6-2.2 18.5 4.9 12.8 14.3 4.4 3.5 5 9.9 1.5 14.8 5.7 2.7 8.1 10 5.5 16.5-2.8 7.5-10.7 11.5-17.8 11.8zm-51.6-49.6c1.2-1.8 2.7-3.2 4.8-4.1 6.1-2.6 8 2.1 12.8 3.4 3.5 0.9 8.2-1.3 12.1-0.6 2.6 0.5 5.1 1.6 7.1 3.4 3.1 3 4.4 6.8 3.9 11.1 5.4-2 9.9 0.1 12.3 3.9q1.5-2.2 0-5.5 2.3-6.8-4.2-6.7c-0.6 0-1.3-0.8-1-1.5 1-3.8 0.7-6.9-0.6-9.2q-0.2-0.2-0.3-0.5c-2-3.3-6-5-10.6-4.8-1.1 0-2.1 0.5-3.1-0.1-1.5-0.8-2.5-3.6-3.4-4.7-5.2-6.4-14-5.5-18.6 2.7-0.4 0.8-1.3 1.2-2.1 0.6-7.7-6-16.7 5.7-9.1 12.6zm-7.3 58.1c-3.6-2.4-7.2-6.7-9.2-10.4-2.5-4.7-2.6-10.6 2-13.7-3-6.1-5.3-13.9-1.6-20.7 2.9-5.4 8.8-8.4 13.9-6.7 0.2-1.8 0.6-3.6 1.4-5.1q-0.1-0.1-0.2-0.1c-6-4.4-4.9-11.5-0.9-15.5q-5.8-1-8.8 5.4-0.1 1.4-0.8 2.6c-0.3 0.3-1.2 1.7-1.9 2-0.6 0.3-1.4 0.1-1.9 0.3q-4.1-0.8-8.1 2-4.6 5.1-2.9 10.5c0.1 0.8-0.6 1.5-1.2 1.6-9 1.9-16.2 21.6-4.7 24.8 2.7 0.8 5.4-0.7 7.1 2.4 0.6 1 0.4 1.9 0.6 3 0.8 3.7 1.5 6.9 3.7 9.9 3.4 4.5 8.2 7.2 13.5 7.7zm56-24.8c-0.7-0.5-0.5-1.6 0.1-2.2 8.4-8 0-19.7-9.4-14.3-1.1 0.7-1.9-0.8-1.6-1.8 4.2-14.4-13-14.4-21.2-11.9-0.5 0.1-1.1-0.1-1.3-0.5-4.7-7.8-15.5-3.7-14.7 6 0.1 1-1 2.2-2 1.6-6.5-3.8-12.9 3.1-13.6 9.9-0.6 4.9 1.4 9.6 3.6 13.6 0.4 0.8 0.2 1.9-0.7 2.3-7.5 3.3-1.5 10.8 0.7 13.6 2.9 3.8 6 7.1 10.8 8 0.8 0.2 1.2 0.8 1.2 1.6q-0.5 4.9-0.9 9.8c2.6-0.3 5.3 0.2 7.8 0.5q4 0.3 7.9 0.7c-0.3-2.2-0.6-4.3-0.5-6.5-1.3-0.7-0.9-3.1 0.8-2.9q0.2 0 0.4 0.1c6.6 1.1 13.2 0.7 19.7-2 8.2-3.5 24-16.4 12.9-25.6zm14.6 8.8c6-5.4 6-16.6-2.2-18.8-1-0.3-0.8-1.7-0.2-2.4q6-7.3-0.9-12.8c-0.7-0.4-1-1.3-0.4-2.1 7-9.2-2.8-11.8-9.1-11.9q0.4 1.3 0.6 2.6c0 0.4-0.3 4.5-0.1 4.8 0.6 1.2 0.9 0.6 2.2 1.6 5.2 4 6.8 11.6 0.9 16.2 1.3 3.9 0.8 8.7-2.6 12.8 4 4.1 3.9 9.5 1.7 14.5 3.6-0.8 7.1-1.9 10.1-4.5z"/>
					<path id="&lt;Compound Path&gt;" fill-rule="evenodd" class="s4" d="m256 975.1c-1.7 2.7-3.8 5.1-6.2 7.1-10 8.6-22.9 11.9-34.9 10 0.2 2.8 0.7 5.6 1.9 8.2 0.5 1.2-0.6 2.4-1.7 2.3q-5.8-0.3-11.5-0.7c-3.1-0.2-6.4 0-9.3-0.9-0.5 0.3-1.4 0.1-1.4-0.7q0 0 0-0.1c-0.3-0.4-0.3-1 0-1.5 0.1-5.4 0.4-8.7-2.9-11.5-13.3 1.8-21.5-7.4-26.1-19.6-1.3-3.5 2-4-4.7-6.3-1.3-0.5-3.1 0.2-4.5-0.2-2.4-0.7-4-2-5.3-4.3-2.7-4.6-2-11.3-0.4-16.5 1.1-3.6 2.8-7.2 5.2-9.9 1.3-1.4 5.4-3 6.2-4.2 1-1.6 0.4-5 1.1-7 0.8-2.8 2.5-5.3 4.6-7.1 2.5-2.2 4.8-2.3 7.7-3.2 2.8-1 3.9-0.4 6.2-3.5 1.1-1.4 1.3-2.9 2.5-4.3 3.8-4.3 9-5.1 13.7-3.4 0.1 0 0.1 0.1 0.2 0.1 3.1-1.5 6.7-1.6 10.3 0.5 5-7.5 13.6-11.3 21.5-7 3.5 1.9 4.3 6.1 7 8 3.5 2.4 9 0.2 13 2.6 2.3 1.3 4.2 3.3 5.4 5.7 10.1-2.6 21.7 5.8 15 16.8 5.2 4.1 5.9 11.7 1.8 17.4 6.7 3.1 9.4 11.7 6.5 19.4-3.4 8.7-12.7 13.4-20.9 13.8zm-60.7-58.2c1.4-2.1 3.2-3.8 5.7-4.8 7.2-3.1 9.3 2.4 15 3.9 4.1 1.1 9.6-1.5 14.2-0.6 3.1 0.6 6 1.8 8.3 4 3.6 3.4 5.2 8 4.7 12.9 6.2-2.3 11.6 0.2 14.4 4.7q1.7-2.6 0-6.5 2.6-8-4.9-7.8c-0.8-0.1-1.5-1-1.3-1.8 1.2-4.5 0.8-8.1-0.7-10.9q-0.2-0.2-0.3-0.5c-2.3-3.9-7-5.9-12.5-5.7-1.2 0-2.4 0.6-3.6-0.1-1.7-0.9-2.9-4.2-4-5.5-6-7.5-16.4-6.4-21.8 3.2-0.5 0.9-1.6 1.4-2.4 0.7-9.1-7.1-19.7 6.7-10.8 14.8zm-8.6 68.2c-4.2-2.9-8.4-7.9-10.7-12.2-3-5.5-3.1-12.5 2.3-16.1-3.6-7.2-6.3-16.3-1.9-24.3 3.5-6.3 10.3-9.9 16.4-7.9 0.1-2.1 0.7-4.2 1.5-6q-0.1 0-0.2-0.1c-7-5.2-5.7-13.5-1-18.2q-6.8-1.1-10.3 6.4-0.2 1.6-1 3c-0.4 0.4-1.4 2-2.3 2.4-0.6 0.3-1.6 0-2.2 0.4q-4.7-1-9.4 2.2-5.5 6.1-3.5 12.4c0.2 0.9-0.6 1.8-1.4 1.9-10.6 2.2-19 25.4-5.5 29.1 3.2 0.9 6.4-0.9 8.4 2.8 0.7 1.2 0.4 2.3 0.7 3.6 0.9 4.3 1.7 8 4.3 11.6 4 5.3 9.6 8.4 15.8 9zm65.8-29.1c-0.8-0.7-0.6-1.9 0.1-2.6 9.9-9.5 0-23.1-10.9-16.8-1.4 0.8-2.4-0.9-2-2.1 4.9-16.9-15.2-17-24.9-14-0.6 0.2-1.2-0.2-1.5-0.6-5.5-9.1-18.2-4.3-17.3 7.1 0.1 1.2-1.2 2.6-2.3 1.9-7.6-4.5-15.2 3.6-16 11.6-0.7 5.7 1.7 11.2 4.2 15.9 0.5 0.9 0.3 2.2-0.8 2.7-8.8 4-1.8 12.7 0.8 16.1 3.4 4.4 7 8.2 12.8 9.3 0.8 0.2 1.4 0.9 1.3 1.9q-0.5 5.7-1 11.5c3-0.4 6.2 0.3 9.1 0.5q4.7 0.4 9.3 0.9c-0.4-2.6-0.7-5-0.6-7.6-1.5-0.8-1-3.7 0.9-3.4q0.3 0 0.5 0.1c7.8 1.3 15.5 0.8 23.2-2.4 9.5-4 28.2-19.2 15.1-30zm17.1 10.3c7.1-6.3 7.1-19.5-2.5-22-1.2-0.4-1-2.1-0.2-2.9q6.9-8.6-1.1-15c-0.8-0.5-1.2-1.5-0.5-2.4 8.3-11-3.2-14-10.7-14.1q0.5 1.5 0.7 3.1c0.1 0.4-0.3 5.3-0.1 5.7 0.7 1.3 1.1 0.6 2.6 1.8 6.2 4.7 8 13.7 1 19.1 1.6 4.5 1 10.1-3 14.9 4.7 4.9 4.6 11.3 2 17.1 4.2-0.9 8.4-2.2 11.8-5.3z"/>
					<path id="&lt;Compound Path&gt;" fill-rule="evenodd" class="s4" d="m567.1 581.3c-1.4 2.2-3.2 4.3-5.2 6-8.5 7.3-19.5 10.2-29.8 8.5 0.2 2.4 0.7 4.8 1.7 7 0.4 1-0.6 2-1.5 2q-4.9-0.3-9.8-0.7c-2.6-0.1-5.4 0-7.9-0.8-0.4 0.4-1.2 0.2-1.2-0.5q0 0 0-0.1c-0.3-0.4-0.2-0.9 0-1.3 0.1-4.5 0.4-7.4-2.5-9.8-11.3 1.6-18.2-6.3-22.2-16.7-1.1-3 1.7-3.4-4-5.3-1.1-0.4-2.6 0.1-3.8-0.2-2-0.6-3.4-1.7-4.5-3.6-2.3-4-1.7-9.7-0.3-14.1 0.9-3 2.3-6.1 4.4-8.4 1.1-1.2 4.6-2.6 5.3-3.6 0.8-1.4 0.3-4.2 0.9-6 0.7-2.3 2.1-4.5 3.9-6 2.1-1.9 4.1-1.9 6.5-2.8 2.4-0.8 3.4-0.3 5.4-2.9 0.8-1.2 1-2.5 2.1-3.7 3.2-3.6 7.6-4.3 11.6-2.9 0.1 0 0.2 0.1 0.2 0.1 2.6-1.2 5.7-1.4 8.8 0.5 4.2-6.5 11.6-9.7 18.3-6 3 1.6 3.6 5.2 5.9 6.8 3 2 7.7 0.2 11.1 2.2 2 1.1 3.5 2.8 4.6 4.8 8.6-2.1 18.5 5 12.8 14.3 4.4 3.6 5 10 1.5 14.9 5.7 2.6 8.1 9.9 5.5 16.5-2.9 7.4-10.8 11.4-17.8 11.8zm-51.6-49.6c1.1-1.8 2.7-3.3 4.8-4.1 6.1-2.6 8 2.1 12.8 3.3 3.5 1 8.2-1.3 12.1-0.5 2.6 0.5 5.1 1.5 7 3.4 3.1 2.9 4.5 6.8 4 11 5.4-2 9.9 0.2 12.3 4q1.4-2.2 0-5.5 2.3-6.9-4.2-6.7c-0.6-0.1-1.3-0.8-1.1-1.5 1.1-3.8 0.8-6.9-0.5-9.3q-0.2-0.1-0.3-0.4c-2-3.3-6-5-10.6-4.9-1.1 0-2.1 0.5-3.2 0-1.4-0.8-2.4-3.6-3.3-4.7-5.2-6.4-14-5.5-18.6 2.7-0.4 0.8-1.3 1.2-2.1 0.6-7.7-6-16.7 5.7-9.1 12.6zm-7.4 58c-3.5-2.4-7.1-6.6-9.1-10.3-2.5-4.8-2.6-10.6 2-13.7-3-6.2-5.3-13.9-1.6-20.7 2.9-5.4 8.7-8.4 13.9-6.8 0.1-1.8 0.6-3.5 1.4-5.1q-0.1 0-0.2-0.1c-6-4.4-4.9-11.4-0.9-15.4q-5.8-1-8.8 5.4-0.2 1.4-0.9 2.5c-0.3 0.4-1.1 1.7-1.8 2.1-0.6 0.3-1.4 0-1.9 0.3q-4.1-0.8-8.1 1.9-4.6 5.2-3 10.6c0.2 0.8-0.5 1.5-1.1 1.6-9.1 1.8-16.3 21.6-4.7 24.8 2.7 0.8 5.4-0.8 7.1 2.4 0.6 1 0.4 1.9 0.6 3 0.8 3.7 1.5 6.9 3.7 9.9 3.4 4.5 8.2 7.1 13.4 7.6zm56.1-24.7c-0.7-0.6-0.6-1.6 0.1-2.2 8.4-8.1 0-19.7-9.4-14.3-1.1 0.6-1.9-0.8-1.6-1.9 4.2-14.3-13-14.4-21.3-11.8-0.4 0.1-1-0.2-1.2-0.6-4.7-7.7-15.5-3.6-14.7 6.1 0.1 1-1 2.2-2 1.6-6.5-3.8-12.9 3.1-13.6 9.9-0.6 4.9 1.4 9.5 3.5 13.5 0.5 0.8 0.3 1.9-0.6 2.3-7.5 3.4-1.6 10.9 0.7 13.7 2.9 3.7 5.9 7 10.8 8 0.8 0.1 1.2 0.7 1.1 1.5q-0.4 4.9-0.8 9.9c2.6-0.4 5.3 0.2 7.8 0.4q3.9 0.3 7.9 0.7c-0.3-2.1-0.6-4.2-0.5-6.4-1.3-0.7-0.9-3.2 0.8-2.9q0.2 0 0.4 0.1c6.6 1.1 13.2 0.7 19.7-2.1 8.1-3.4 24-16.3 12.9-25.5zm14.6 8.7c6-5.3 6-16.5-2.2-18.7-1-0.3-0.8-1.8-0.2-2.4q5.9-7.3-0.9-12.8c-0.7-0.4-1-1.3-0.4-2.1 7-9.3-2.8-11.9-9.1-12q0.4 1.3 0.6 2.7c0 0.3-0.3 4.5-0.1 4.8 0.6 1.1 0.9 0.5 2.2 1.6 5.2 4 6.8 11.6 0.9 16.2 1.3 3.8 0.8 8.7-2.6 12.7 4 4.1 3.9 9.6 1.7 14.6 3.6-0.8 7.1-1.9 10.1-4.6z"/>
					<path id="&lt;Compound Path&gt;" fill-rule="evenodd" class="s4" d="m1893.3 394.9c-2.1 2.6-4.7 4.8-7.5 6.6-12.1 7.5-27 8.9-40.4 4.9 0 3.1 0.3 6.1 1.4 9.1 0.5 1.3-0.9 2.4-2.1 2.2q-6.5-1.3-12.9-2.7c-3.4-0.7-7.2-1.1-10.4-2.5-0.7 0.3-1.7-0.1-1.6-0.9q0-0.1 0-0.2c-0.3-0.5-0.2-1.1 0.2-1.6 0.5-5.7 1.2-9.2-2.3-12.8-15.2-0.2-23.6-11.5-27.8-25.3-1.2-3.9 2.5-3.9-4.8-7.5-1.4-0.6-3.5-0.3-5-0.9-2.7-1.1-4.4-2.8-5.7-5.4-2.6-5.5-1.2-12.5 1-17.8 1.6-3.6 3.7-7.2 6.8-9.7 1.5-1.3 6.4-2.3 7.3-3.5 1.3-1.6 0.9-5.2 1.8-7.3 1.2-2.8 3.3-5.2 5.9-6.9 3-1.8 5.6-1.6 8.9-2.1 3.3-0.6 4.5 0.2 7.4-2.7 1.3-1.3 1.7-2.9 3.2-4.2 4.6-4 10.5-4 15.7-1.4 0.1 0 0.2 0.1 0.3 0.2 3.5-1.1 7.7-0.6 11.5 2.2 6.4-7.2 16.4-9.9 25-4 3.8 2.7 4.3 7.3 7.2 9.8 3.7 3.1 10.1 1.7 14.5 4.9 2.5 1.8 4.4 4.2 5.6 6.9 11.6-1 24 9.9 15.4 20.5 5.6 5.3 5.7 13.5 0.6 19 7.3 4.3 9.7 14 5.6 21.8-4.5 8.7-15.4 12.2-24.8 11.3zm-63.5-72.3c1.7-2 4-3.5 6.8-4.2 8.4-2.1 10.4 4.2 16.7 6.7 4.5 1.8 11-0.1 16.1 1.6 3.4 1.2 6.6 2.9 9 5.7 3.8 4.2 5.2 9.4 4.1 14.6 7.3-1.5 13.2 2.1 15.9 7.3q2.2-2.4 0.6-6.8 3.7-8.2-4.9-9.3c-0.8-0.2-1.6-1.2-1.3-2.1 1.8-4.5 1.7-8.5 0.2-11.7q-0.2-0.3-0.3-0.6c-2.3-4.5-7.4-7.5-13.6-8.2-1.5-0.2-2.8 0.2-4.1-0.7-1.9-1.3-2.9-5-4-6.5-6.2-9-18.1-9.6-24.9-0.2-0.7 0.9-2 1.2-2.9 0.4-9.7-9.1-22.8 3.9-13.4 14zm-15.6 71.5c-4.5-3.7-8.8-9.7-11.1-14.8-2.9-6.4-2.4-13.8 4-16.8-3.4-8.3-5.7-18.5 0-26.3 4.4-6.2 12.4-8.9 19.1-5.8 0.4-2.2 1.2-4.3 2.3-6.1q-0.1-0.1-0.2-0.2c-7.5-6.7-5.3-15.3 0.4-19.6q-7.6-2.3-12.2 5.1-0.4 1.7-1.4 3.1c-0.4 0.3-1.7 1.8-2.7 2.2-0.8 0.2-1.8-0.2-2.6 0q-5.3-1.8-10.9 0.9-6.7 5.5-5 12.7c0.2 0.9-0.8 1.7-1.7 1.8-12.2 0.5-23.7 23.9-8.7 30.2 3.5 1.5 7.3 0.1 9.2 4.3 0.7 1.4 0.3 2.5 0.5 4 0.6 4.8 1.2 8.9 3.9 13.1 4 6.3 10.1 10.5 17.1 12.2zm76.9-20.2c-0.9-0.9-0.6-2.1 0.3-2.8 12-8.5 2-24.7-10.9-19.8-1.7 0.6-2.6-1.3-2.1-2.6 7-17.2-15.7-20.6-26.9-19-0.6 0.1-1.4-0.4-1.7-0.9-5.4-10.7-20.1-7.6-20.1 4.7 0 1.3-1.6 2.6-2.8 1.7-8.2-6.1-17.4 1.4-19.1 9.8-1.2 6 1 12.2 3.4 17.7 0.5 1 0.2 2.4-1.1 2.7-10.3 2.8-3.2 13.3-0.5 17.3 3.5 5.3 7.2 10 13.6 12.2 1 0.3 1.5 1.1 1.3 2.1q-1.1 6.1-2.1 12.2c3.4 0.1 7 1.3 10.3 2.1q5.2 1.2 10.4 2.4c-0.2-2.8-0.3-5.5 0-8.2-1.7-1.1-0.8-4.1 1.3-3.5q0.3 0.1 0.6 0.2c8.6 2.7 17.4 3.5 26.3 1.3 11.2-2.8 33.6-15.9 19.8-29.6zm18.4 13.8c8.6-5.6 9.7-19.7-0.9-24-1.4-0.5-1-2.4 0-3q8.6-8.1 0.1-16.3c-0.9-0.6-1.3-1.8-0.4-2.7 10.3-10.3-2.5-15.5-10.9-16.8q0.5 1.7 0.6 3.5c0 0.4-0.9 5.5-0.7 6 0.7 1.5 1.2 0.8 2.9 2.4 6.5 6 7.8 15.9-0.6 20.5 1.4 5.1 0.3 11.1-4.7 15.5 4.9 6 4.3 12.8 0.8 18.7 4.9-0.4 9.7-1.1 13.8-3.8z"/>
					<path id="&lt;Compound Path&gt;" fill-rule="evenodd" class="s4" d="m491.8 845.3c-2.6 3.1-5.7 5.8-9 7.9-14.4 8.9-32.3 10.7-48.3 5.8 0.1 3.7 0.4 7.4 1.8 10.9 0.5 1.6-1.2 3-2.6 2.7-5.2-1-10.3-2.1-15.5-3.2-4-0.9-8.5-1.3-12.4-3.1-0.8 0.4-2 0-1.9-1.1q0 0 0-0.1c-0.3-0.6-0.2-1.4 0.2-1.9 0.7-6.9 1.6-11.1-2.7-15.4-18.1-0.2-28.2-13.6-33.2-30.1-1.4-4.8 3-4.8-5.7-9-1.7-0.8-4.2-0.4-6-1.1-3.2-1.4-5.3-3.4-6.8-6.5-3.1-6.5-1.5-14.9 1.2-21.3 1.9-4.3 4.4-8.5 8.1-11.6 1.8-1.5 7.6-2.7 8.7-4.1 1.6-1.9 1.1-6.3 2.2-8.8 1.4-3.3 3.9-6.2 7-8.2 3.6-2.2 6.8-1.9 10.7-2.6 3.9-0.6 5.4 0.3 8.8-3.1 1.5-1.6 2-3.6 3.8-5.1 5.5-4.7 12.6-4.7 18.8-1.7 0.2 0.1 0.2 0.2 0.3 0.3 4.3-1.3 9.2-0.8 13.8 2.6 7.6-8.6 19.6-11.8 29.8-4.7 4.6 3.1 5.2 8.7 8.7 11.6 4.4 3.8 12 2.1 17.3 5.9 2.9 2.2 5.2 5 6.7 8.3 13.8-1.3 28.7 11.7 18.5 24.4 6.5 6.3 6.8 16.2 0.6 22.7 8.7 5.3 11.6 16.8 6.7 26.1-5.4 10.5-18.4 14.6-29.6 13.5zm-75.9-86.4c2-2.4 4.7-4.2 8.1-5 10-2.5 12.4 5 19.9 8 5.5 2.2 13.2-0.1 19.3 2 4 1.3 7.9 3.4 10.7 6.7 4.6 5.1 6.3 11.2 5 17.5 8.7-1.8 15.7 2.5 19 8.8q2.6-3 0.7-8.3 4.4-9.8-5.8-11c-1-0.2-2-1.5-1.6-2.6 2.2-5.4 2-10.1 0.3-14-0.3-0.1-0.4-0.4-0.4-0.7-2.8-5.4-8.9-8.9-16.3-9.8-1.7-0.2-3.4 0.3-4.9-0.8-2.2-1.5-3.5-5.9-4.8-7.8-7.4-10.8-21.6-11.4-29.8-0.2-0.8 1.1-2.3 1.5-3.4 0.4-11.5-10.8-27.2 4.7-16 16.8zm-18.7 85.5c-5.4-4.5-10.5-11.7-13.2-17.7-3.5-7.7-2.9-16.5 4.7-20.1-4-9.9-6.7-22.1 0-31.4 5.3-7.5 14.9-10.6 22.9-6.9 0.5-2.7 1.4-5.2 2.8-7.4q-0.1-0.1-0.3-0.2c-9-8-6.4-18.3 0.4-23.4q-9-2.8-14.5 6.1-0.4 2.1-1.7 3.6c-0.5 0.5-2.1 2.3-3.2 2.7-1 0.3-2.2-0.3-3.1 0q-6.3-2.2-13 1-8 6.7-6 15.2c0.2 1.2-1 2.1-2 2.2-14.6 0.6-28.4 28.6-10.4 36.1 4.2 1.8 8.6 0.1 11 5.2 0.8 1.7 0.3 3 0.5 4.7 0.8 5.7 1.5 10.7 4.7 15.7 4.8 7.5 12.1 12.6 20.4 14.6zm91.9-24.2c-1-1-0.7-2.5 0.5-3.3 14.2-10.2 2.3-29.6-13.2-23.7-1.9 0.8-3-1.6-2.4-3.1 8.4-20.6-18.8-24.6-32.2-22.7-0.7 0.1-1.6-0.5-2-1.1-6.4-12.8-24.1-9.1-24 5.7 0 1.5-1.9 3-3.3 2-9.9-7.3-20.9 1.6-22.9 11.7-1.4 7.1 1.2 14.6 4.1 21.1 0.5 1.3 0.1 2.9-1.4 3.3-12.3 3.3-3.7 15.9-0.6 20.7 4.2 6.3 8.7 11.9 16.3 14.5 1.2 0.4 1.8 1.4 1.6 2.6q-1.3 7.2-2.6 14.5c4.2 0.1 8.4 1.6 12.4 2.5q6.2 1.4 12.4 2.9c-0.3-3.3-0.4-6.5-0.1-9.8-1.9-1.3-0.9-4.9 1.7-4.1q0.3 0 0.6 0.1c10.3 3.3 20.9 4.2 31.5 1.6 13.4-3.3 40.1-19 23.6-35.4zm22.1 16.5c10.2-6.7 11.5-23.5-1.2-28.6-1.6-0.7-1.1-2.9 0-3.7q10.3-9.6 0.1-19.4c-1-0.8-1.4-2.2-0.4-3.2 12.3-12.4-3-18.5-13-20.1q0.5 2 0.6 4.1c0.1 0.5-1 6.6-0.7 7.2 0.8 1.8 1.3 1 3.4 2.9 7.8 7.2 9.4 19-0.7 24.5 1.7 6.1 0.3 13.2-5.6 18.5 5.9 7.2 5.1 15.3 1 22.3 5.8-0.4 11.5-1.2 16.5-4.5z"/>
					<path id="&lt;Compound Path&gt;" fill-rule="evenodd" class="s4" d="m1569.1 644.5c-12.2 22.9-38.7 36.9-64.5 33.4-20.2-2.8-52.7-21.3-49.9-45.4-3.5-4.1-4.7-9.5-3.3-14.7-4.2-2.4-7.8-6.6-9.6-11-2.1-5.2 3.6-7.7 7.7-9.3 1.3-0.5 2.5 0.4 2.5 1.8 0.1 3.3 1.8 5.9 4.4 7.9q0 0 0.1 0c6-5.7 15.9-4.6 21.8 0.7q0.3-0.2 0.8-0.4c6.4-1.5 11.8-0.2 18.1 1.4 13.2 3.4 23.1 1.6 32-8.8 6.4-7.4 12.1-18.8 23.6-16.6 26.8 4.9 26 43 16.3 61zm-113.1-16.8q0.7-4.7 1.3-9.5c0.3-1.5 2-2.4 3.4-1.5 1.6 1.3 3.3 2.3 5 3-0.2-1.5 0.1-3.2 0.9-4.7 1.5-2.9 4.2-4.5 7.2-5.3-4.6-3-10.5-2.3-15.1 1.1-1.2 0.9-2.4 0.5-3-0.4-0.4 0.1-1 0.1-1.5-0.3-2.9-1.8-4.7-4.8-5.4-8.1-1 0.5-1.9 1-2.4 1.6-1.4 1.5-0.5 2.8 0.4 4.3 1.9 3.3 4.5 5.7 7.1 8.2 0.4 0.4 0.4 0.9 0.2 1.4q0 0.1 0 0.2c-0.5 3.8 0 7.1 1.9 10zm71.4-19.4c-4.9 4.3-10.6 7.3-17.2 7.5-10.4 0.4-19.2-6.4-29.7-4.4-0.1 0.9-0.7 1.7-1.7 1.8-3.2 0.2-13.5 3.8-7.5 8.6 2 1.5 0.2 4.2-2 3.6-3-0.7-5.7-1.8-8.3-3.4l-1.5 10.7c-0.2 1.1-0.9 1.7-1.8 1.7 3.1 26 38.6 41.6 61.3 39.1 23-2.5 44-19.4 50.4-41.8 3.9-13.4 1.9-34.4-12.4-41.7-14.9-7.7-21.1 11-29.6 18.3z"/>
					<path id="&lt;Compound Path&gt;" fill-rule="evenodd" class="s4" d="m422.8 637.1c18.3-18.4 47.7-24.1 71.4-13.3 18.5 8.5 44.3 35.6 34.7 57.9 2.1 4.9 1.7 10.4-1.1 15 3.3 3.5 5.5 8.5 5.9 13.3 0.6 5.6-5.6 6.4-10 6.7-1.4 0-2.2-1.2-1.9-2.5 0.9-3.2 0-6.1-1.9-8.8q0 0 0-0.1c-7.5 3.7-16.6-0.1-20.8-6.9q-0.3 0.1-0.8 0.1c-6.6-0.4-11.4-3.2-16.9-6.5-11.7-7.1-21.7-8.2-33.3-0.8-8.2 5.2-17 14.4-27.4 9.1-24.2-12.5-12.4-48.7 2.1-63.2zm103.4 48.7q-2 4.4-4 8.8c-0.7 1.4-2.6 1.8-3.6 0.4-1.2-1.6-2.6-3-4-4.3-0.3 1.5-1 3-2.2 4.3-2.3 2.4-5.4 3-8.4 3 3.5 4.2 9.3 5.2 14.8 3.2 1.4-0.5 2.4 0.3 2.6 1.3 0.5 0 1 0.2 1.4 0.7 2.3 2.7 3.2 6 2.9 9.4 1-0.2 2.1-0.5 2.8-0.9 1.7-1 1.2-2.5 0.8-4.3-0.9-3.6-2.6-6.6-4.4-9.8-0.3-0.5-0.1-1 0.2-1.4q0-0.1 0-0.2c1.6-3.5 2.1-6.8 1.1-10.2zm-74-2c6-2.7 12.3-3.9 18.7-2.2 10.1 2.6 16.5 11.7 27.1 12.9 0.4-0.9 1.2-1.5 2.2-1.3 3.1 0.7 14 0.2 9.6-6.1-1.4-2 1-4.1 3-2.9 2.7 1.6 5 3.5 7 5.7l4.5-9.8c0.5-1 1.4-1.3 2.2-1.2 4.5-25.7-24.9-50.9-47.4-55.1-22.7-4.2-47.8 5.9-60.3 25.5-7.6 11.7-11.7 32.4-0.2 43.5 12 11.7 23.4-4.5 33.6-9z"/>
					<path id="&lt;Compound Path&gt;" fill-rule="evenodd" class="s4" d="m359.6 981.1c-4 16-20.2 28.4-36.8 26.6-16.8-1.9-30.5-17.2-27.9-34.4 2.8-18.3 21-28.9 38.3-23q0-1.5 0.2-3.1-0.1 0.1-0.4 0.1c-10.1-1-18.7-7.2-23.7-16-0.6-1 0-2 0.9-2.4 9.8-4.1 20.1 3.1 24.7 12 1.1-3.2 2.7-6.2 4.9-8.5 1.2-1.3 2.7 0.3 2.1 1.6-1.8 4.3-4.1 8.2-5.1 12.9q-0.2 1.2-0.4 2.4c17.4-1.7 27.1 16.4 23.2 31.8zm-26-35.2q0.1-0.2 0.1-0.3c-2.4-3.6-4.1-7.5-7.5-10.5-3.8-3.3-8.4-4.7-13.1-3.7 3.4 5.5 8.2 9.5 13.9 12q-1-1-1.9-1.9-3.1-2.8-6.1-5.7c-0.6-0.6 0.3-1.5 0.9-0.9q3.3 2.7 6.4 5.4c1.8 1.5 3.8 2.9 5.2 4.8 0.6 0.2 1.2 0.4 1.8 0.5q0.2 0.1 0.3 0.3zm2.5 7c0 2.6 0.2 5.2 0.5 7.8 0.2 1.5-2.2 1.8-2.5 0.4-0.7-2.8-1-5.8-1-8.9q-0.1 0.1-0.3 0c-16.5-3.7-33.7 6.4-34.6 24.3-0.6 13.5 10.1 25 23 27.3 13.8 2.4 27.6-6.3 33.1-18.8 6.2-14.2-0.3-33.5-18.2-32.1z"/>
					<path id="&lt;Compound Path&gt;" fill-rule="evenodd" class="s4" d="m284.8 588.6c-4 15.9-20.1 28.3-36.8 26.5-16.8-1.8-30.4-17.2-27.8-34.3 2.8-18.4 20.9-29 38.2-23.1q0.1-1.5 0.3-3-0.2 0.1-0.4 0.1c-10.2-1-18.8-7.3-23.8-16-0.6-1 0-2 1-2.4 9.8-4.1 20.1 3 24.7 11.9 1-3.2 2.7-6.1 4.9-8.5 1.1-1.2 2.6 0.4 2.1 1.7-1.9 4.3-4.2 8.2-5.2 12.9q-0.2 1.1-0.3 2.3c17.4-1.6 27 16.4 23.1 31.9zm-25.9-35.3q0-0.1 0-0.2c-2.4-3.6-4.1-7.6-7.5-10.5-3.7-3.3-8.3-4.8-13-3.7 3.4 5.5 8.2 9.4 13.9 12q-1-1-2-1.9-3-2.9-6-5.8c-0.6-0.6 0.3-1.4 0.9-0.9q3.2 2.7 6.4 5.5c1.7 1.5 3.8 2.9 5.2 4.8 0.6 0.1 1.1 0.3 1.7 0.5q0.2 0.1 0.4 0.2zm2.5 7.1c-0.1 2.6 0.1 5.2 0.5 7.8 0.2 1.5-2.2 1.7-2.6 0.3-0.6-2.7-0.9-5.7-0.9-8.8q-0.2 0-0.4 0c-16.4-3.7-33.7 6.4-34.5 24.2-0.6 13.5 10 25 23 27.3 13.7 2.5 27.6-6.3 33-18.7 6.3-14.2-0.3-33.5-18.1-32.1z"/>
					<g id="&lt;Group&gt;">
						<path id="&lt;Compound Path&gt;" fill-rule="evenodd" class="s4" d="m341 829.9c-18.3 16.3-51.9 6.5-71.3-3-19.2-9.5-43.9-27.9-41.9-51.9q0-0.4 0.2-0.6c-4.5-6-7.4-17.5 1.6-20.5 3.2-1 7.2 0 8.8 3.1 1.2 2.1 0.8 4.3 0.9 6.6 0.3 3.2 1.7 6 4 8.2 14.3-4.4 24.7 13.7 34 21.8 17.3 14.9 37.8 23.6 60.6 25.1 0.7-0.7 1.9-1.1 2.7-0.3 1.3 1.3 1.2 2.8 1.3 4.6q0.2 2.6 0.3 5.2c0 0.9-0.5 1.5-1.2 1.7zm-2.5-2.9q-0.4-1.6-0.7-3.3c-0.2-0.7-0.4-1.5-0.5-2.3-16.5 0.8-32.1-4.2-46.2-12.6-6.9-4.1-13.3-9-19.2-14.4-8.1-7.5-16.3-22.2-29.3-18.9-1.6 0.4-2.6-1.2-2-2.3-1.6-1.5-3-3.3-3.9-5.4-0.6-1.2-1-2.5-1.2-3.8-0.2-1.8 0.2-4.2-1.2-5.5-3.8-3.6-6.7 3.2-6.3 6.2 0.5 3.5 3 6.1 4.4 9.3 0.6 1.2-0.7 2.5-1.9 2.5 2.6 22.6 23.2 38.5 42.6 47.6 18 8.5 48.1 17 65.4 2.9z"/>
						<path id="&lt;Path&gt;" class="s4" d="m309.5 823.8c-28.6-4-52.5-18.2-68.3-42.6-0.4-0.7-1.3 0-0.9 0.6 14.2 24.5 40.5 41.8 69 43.4 0.8 0 1.1-1.3 0.2-1.4z"/>
					</g>
					<g id="&lt;Group&gt;">
						<path id="&lt;Compound Path&gt;" fill-rule="evenodd" class="s4" d="m1553.3 896.2c-21.5 11.8-52.1-5.2-68.8-18.8-16.7-13.4-36.7-36.8-29.4-59.8q0.1-0.4 0.3-0.5c-3.1-6.9-3.4-18.8 6.1-19.7 3.3-0.3 7 1.6 7.9 5 0.7 2.2-0.2 4.4-0.6 6.6-0.4 3.2 0.3 6.2 2.1 8.9 14.9-1.1 21.1 18.8 28.3 28.7 13.6 18.5 31.6 31.5 53.6 38 0.8-0.6 2-0.7 2.6 0.3 1 1.6 0.6 3 0.3 4.7q-0.4 2.6-0.9 5.2c-0.1 0.9-0.8 1.4-1.5 1.4zm-1.8-3.4q0-1.7 0-3.4c0.1-0.7 0-1.5 0.1-2.3-16.3-2.9-30.4-11.2-42.3-22.5-5.8-5.6-11-11.7-15.6-18.3-6.2-9.1-10.9-25.3-24.3-24.9-1.7 0-2.3-1.8-1.4-2.7-1.3-1.9-2.2-3.9-2.7-6.2-0.3-1.3-0.4-2.6-0.3-4 0.2-1.7 1.2-4 0.1-5.6-2.9-4.3-7.3 1.6-7.5 4.7-0.3 3.5 1.5 6.6 2.2 10 0.2 1.4-1.2 2.3-2.4 2-2.5 22.6 14.1 42.7 30.9 55.9 15.7 12.3 43.2 27.3 63.2 17.3z"/>
						<path id="&lt;Path&gt;" class="s4" d="m1523.9 883.2c-27-10.2-47.1-29.3-57.1-56.6-0.3-0.7-1.3-0.3-1.1 0.4 8.4 27 30.3 49.7 57.7 57.5 0.8 0.3 1.4-0.9 0.5-1.3z"/>
					</g>
					<g id="&lt;Group&gt;">
						<path id="&lt;Compound Path&gt;" fill-rule="evenodd" class="s4" d="m1077.8 808.7c-17.8 4.2-36.1-14.1-45.4-27.2-9.2-12.9-18.7-33.7-8.9-48.6q0.1-0.3 0.3-0.3c-0.9-5.5 1.4-14.1 8.3-12.8 2.4 0.4 4.7 2.5 4.7 5.1 0 1.8-1.1 3.1-1.8 4.6-0.9 2.2-1 4.5-0.3 6.8 10.8 2.2 11.2 17.7 14.4 26.2 6 15.9 16.3 28.8 30.6 37.8 0.7-0.2 1.6 0 1.8 0.8 0.4 1.3-0.2 2.2-0.7 3.4q-0.8 1.8-1.7 3.5c-0.3 0.7-0.8 0.8-1.3 0.7zm-0.7-2.7q0.4-1.2 0.8-2.4c0.1-0.6 0.2-1.2 0.4-1.7-11-5.3-19.4-14.1-25.6-24.6-3-5.1-5.5-10.5-7.4-16.2-2.6-7.7-2.7-20.2-12.4-22.6-1.2-0.3-1.3-1.7-0.5-2.2-0.5-1.6-0.7-3.3-0.6-5 0.1-1 0.3-2 0.6-2.9 0.5-1.2 1.6-2.6 1.2-4-1.2-3.7-5.6-0.3-6.4 1.9-0.9 2.4-0.2 5-0.4 7.5-0.1 1.1-1.3 1.5-2.1 1-6.3 15.6 1.5 33.3 10.8 46.1 8.8 11.9 25.4 28.2 41.6 25.1z"/>
						<path id="&lt;Path&gt;" class="s4" d="m1059.4 793.6c-17.2-12.7-27.8-30.4-29.4-51.9 0-0.6-0.8-0.5-0.8 0.1 0.5 20.9 11.6 41.5 29.5 52.6 0.6 0.3 1.2-0.4 0.7-0.8z"/>
					</g>
					<path id="&lt;Compound Path&gt;" fill-rule="evenodd" class="s4" d="m194.5 806.8c4.8 9.3 27.1 30.5 9.5 40-6.6 3.5-14-0.2-19-4.8-4-3.6-6.8-8.1-11-11.4-4.9-4-10.7-6.2-16.6-8.1-22.1-7.1-42.2-14.4-60.3-29.3-1-0.8-0.2-2.1 0.8-1.9-0.4-0.3-0.8-0.5-1.2-0.8 0.1 9.7-11.4 13.2-16.8 6.5-2 2.7-5.9 3.8-9.1 1.9-4.6-2.7-3.7-8.6-0.7-12.3-2.3-0.9-3.7-3.4-3.6-6 0.1-4 3.3-6.3 6.7-7.5-2.2-3-2.4-7.2-0.5-10.6 2.5-4.6 7.7-6 12.6-5.6-1.4-2.3-2.4-5-2.4-6.4 0.2-8.3 8.1-12 15.1-9.9-1.6-7.6 0-16.4 8.4-19.1 5.2-1.6 10.5 1 12.3 5.6 3.9-6.7 12.8-6.2 16.2 0.5 1.2-1.1 2.6-2 4.1-2.7-1.7-3.2-0.6-7.1 2.3-9.5 4.2-3.3 9.6-1.6 13.9 0.7 0.5-4.5 1.8-11.3 6.1-12.1 3-0.6 5.2 2.2 7.3 4.4 0.9-3.5 5-6.3 8.9-5.4 8.1 1.8 8.5 10.2 6.8 16.8 5.5-1.7 12.1 0.3 12.7 7.2 0.6 6.7-7.1 10.7-12 6.4q0.4 1.3 0.5 2.6c0.9-1 2.6-1.2 3.2 0.4 3.3 10.6 1.9 20.9 0.5 31.7-1.7 13.5-1.1 26.4 5.3 38.7zm-52.2-83c4.1-0.8 8.4 0 11.7 3.2 3.5 3.4 4 8.6 2 12.1 3.6 2.3 4.3 6.1 2.8 9 4.2 1.5 9.1-1.6 8-7-0.3-1.4 1.8-2.3 2.6-1.1 5.5 8.3 17.1 0.6 11.7-7.6-1.1-1.6 1.2-3.4 2.4-1.8q0.4 0.6 0.7 1.2c0.2-0.8 1-1.4 1.8-0.7 4.8 4.2 9.9-2.8 6.6-6.7-2.8-3.3-7.3-2.2-10.1-0.1-1.3 0.9-3.1-0.4-2.5-1.9 1.4-3.1 2.4-6 2-9.4q0.1-2.5-1.6-4.5-4.6-5.9-8.4 3.3 0 0.3-0.1 0.6c0.2 1.2-1.4 2.3-2.3 1.1q-0.7-1-0.9-1.9c-1.3-1.1-2.3-2.3-3.7-3.1-5.9-3.2-6.6 6.2-6.8 10.4-0.1 1-1.4 1.7-2.2 1.2-1.8-1-3.5-2-5.6-2.5q-3.8-1.9-7.7 1.2zm60.4 101.7c-2.3-3.5-5.3-6.6-7.7-10-4.4-6.4-7.6-13.4-9.4-21-4.4-18.6 4.5-37.4-0.4-55.7-0.8 3.5-3.7 6.3-7.2 7.3 0.2 0.4 0.3 0.8 0.2 1.3-1.7 8.9 6.5 23.2-3.7 29.6-10.4 6.6-17.3-8.2-23-14.4-2.4 0.8-5.3 0.5-7.9-0.2-0.1 5-3.5 8.4-7.5 9.1 2.2 5.5 3.7 11.2 4.2 17.1 0.3 3.5 0.5 7.6-2.4 10.1-6.9 6.2-21.1-4.3-26.9-9.4-3.1 3.4-8.2 4.1-12.3 2.3 15.9 10.9 33 19.4 51.5 24.8 7.7 2.3 15.7 4.2 22.6 8.5 7.2 4.5 11.3 12.8 18.6 16.9q3.6 2.6 8.2 2.2 3.2-5 6.5-10c0.3-2.6-2.1-6.4-3.4-8.5zm-106-37.8c3.6 2.9 9.5 3.1 12.5-0.9 3-3.9 1.3-9.3-2.5-11.9q-0.3-0.2-0.5-0.5c-3.1 2.4-7.4 3.1-11.2 1-5.5-3-7.3-10.9-3.4-15.8 0.7-0.9 2.1-0.1 1.7 0.9-2.1 4.5-1.9 10.8 3.3 13.2 5 2.3 10.5-1.4 11.9-6.2 0.3-0.9 1.8-0.9 2.1 0 1.2 3.3 2.8 6.4 6.2 7.7 4.4 1.8 12.8-2.2 7.7-8.1-0.7-0.8 0.4-1.7 1.2-1.2 0.1-0.7 1.2-1.2 1.6-0.5 1.2 2 2.9 3.2 4.7 3.7 0.7-1 2.5-1.3 3.2 0.2 3.5-0.5 6.5-3.7 5.7-8.6-0.1-1 0.9-1.8 1.8-1.4q4.3 2.9 7.4-1.6 7-2 1.2-5.9c-1.7-0.5-1.5-2.9 0.3-2.7q1.3-4 2.5-8c-1.3 1.1-3.1 1.8-5.2 1.8-1.7 0-2.1-2.5-0.4-2.7q9.9-8.9 0.6-13.2-1.7-0.4-3.3-0.8c-4.3-0.4-7.8 1.5-10.5 4.6-0.8 0.9-2.1 0.5-2.3-0.6q-6.8-11.1-13.4-1.2-0.1 0.3-0.4 0.4 0.1 0.8 0.1 1.6c-0.1 1.4-2.3 1.4-2.5 0-0.8-7.6-9.5-9.4-14.2-3.6-3.6 4.3-2.9 10.1-1.2 15 0.5 1.5-1 2.4-2.2 1.7-5.6-3.3-11.6-0.7-13.4 5.2q-0.6 2.6 0.7 4.9 0.3 2.8 3.3 3.3c0.7-1.4 2.8-0.5 2.2 0.9-1.3 3.1-3.2 2.6-4.9 0.9-3.5-0.3-7.3 0-9.9 2.4-3.4 2.9-3.6 8.3 0.2 10.9 1.2 0.8 0.5 2.7-0.8 2.9-1.9 0.4-5 1.2-6.2 3-1.7 2.7-0.2 5.3 2.4 6 0.4 0.2 0.7 0.5 0.7 0.9 0.1 0.3 0.1 0.7-0.2 1-1.8 1.7-3.4 4.2-2.8 6.9 0.9 4.2 7.4 4.5 7.4 0.3 0-1.7 2.3-2.6 3-0.8 2.9 7.4 13.4 5.4 12.9-2.8 0-0.8 0.5-1.3 1.1-1.5 0.1-0.7 1.1-1.3 1.8-0.8zm16-0.7c2.9 2.2 5.9 4.3 9.2 6q2.1 1.1 4.2 2c3.7 1.4 4.4 2.1 7.9-0.4 3.4-2.4 3.1-2.9 2.6-6.5-0.2-2.1-0.6-4.1-1-6.1-0.8-3.7-2.1-7.1-3.5-10.6-1.7-0.4-3.3-1.3-4.6-2.8 1.2 3.6-1 8-4.7 9.6-5.9 2.5-11-2.3-13.3-7.4q-0.5 0.8-1.1 1.5c0.1 0 0.2 0 0.3 0.1 4.8 2.9 6.4 9.7 4 14.6zm61.7-40.1c0.1-0.2 0.1-0.3 0.2-0.4-1.7-0.1-3.5-0.7-5-1.9-1.2 5.6-7.5 8.4-12.5 5.5q-0.8 0.7-2 1.2c1.5 1.8 2.1 4.3 1.2 6.8-0.5 1.4-1.3 2.4-2.2 3.2 5.5 5.7 14.5 19.6 20.4 10.1 4.3-7-1.7-16.8-0.1-24.5z"/>
					<path id="&lt;Compound Path&gt;" fill-rule="evenodd" class="s4" d="m114.5 922.8c-11 16.9-32.4 25.9-52.1 21.4-15.4-3.6-39.3-20.1-35.5-38.6-2.3-3.3-2.9-7.6-1.5-11.5-3.1-2.1-5.5-5.6-6.6-9.2-1.3-4.2 3.3-5.7 6.6-6.6 1-0.3 1.8 0.5 1.8 1.5-0.2 2.6 1 4.7 2.8 6.4q0 0 0.1 0.1c5-4 12.6-2.5 16.8 2q0.3-0.2 0.6-0.2c5.1-0.8 9.2 0.6 13.9 2.3 10 3.5 17.8 2.8 25.4-4.6 5.4-5.3 10.7-13.7 19.4-11.3 20.3 5.7 17.1 35.1 8.3 48.3zm-86.2-20.7q0.9-3.6 1.7-7.3c0.3-1.1 1.7-1.8 2.7-0.9 1.1 1.1 2.4 1.9 3.7 2.7-0.1-1.3 0.2-2.5 1-3.7 1.3-2.1 3.6-3.1 5.9-3.5-3.3-2.7-7.9-2.6-11.8-0.2-0.9 0.6-1.8 0.2-2.2-0.6-0.4 0.1-0.8 0-1.2-0.3-2.1-1.6-3.3-4-3.6-6.6-0.8 0.3-1.5 0.7-2 1.1-1.2 1-0.5 2.1 0.1 3.3 1.2 2.7 3 4.7 4.9 6.9 0.3 0.3 0.2 0.7 0 1q0 0.1 0 0.2c-0.6 2.9-0.4 5.5 0.8 7.9zm56.5-10.1c-4.1 3-8.7 4.9-13.8 4.6-8.1-0.4-14.4-6.3-22.6-5.5-0.2 0.7-0.7 1.3-1.5 1.3-2.4 0-10.7 2-6.4 6.1 1.5 1.4-0.1 3.3-1.7 2.7-2.4-0.8-4.4-1.8-6.2-3.2l-1.9 8.1c-0.2 0.9-0.9 1.3-1.5 1.3 0.6 20.2 26.9 34.8 44.7 34.4 17.8-0.4 35.3-12 41.8-28.8 3.9-10.1 3.8-26.5-6.7-33.1-11-7-17.1 7-24.2 12.1z"/>
					<path id="&lt;Compound Path&gt;" fill-rule="evenodd" class="s4" d="m1792.9 544.2c-16.5 21.3-44.1 23.3-68.3 14.9-18.7-6.5-36.9-22.8-33.7-44.7 3.4-23.4 28.4-34.6 49.6-34.6 0.3 0 0.5 0.1 0.7 0.2 4.8-4.2 11.7-4.5 17-0.5q0.1 0.1 0.2 0.2c-2.6-8.2-2.9-24.6 8-25.8 2.8-0.3 7.4 1 7.6 4.6 0.1 2.4-2.5 5.9-3.4 8.2-1.1 2.8-1.9 5.7-2.8 8.6 5.6 0.9 17.9 4.2 19.2 10.8 1.1-0.4 2.4-0.4 3.6 0.6 17.6 15.3 16 39.8 2.3 57.5zm-45.7-62.6c3.4 0.4 7.1 1 8.6 3.2 0.9 1.3 1 3.3 0.8 5.5q1.1-1.5 2-3.3c0.8-1.4 2.8-1.5 3.9-0.5q2.8 2.7 5.7 5.5 0.2-2.6 0.6-5.2c0.2-1.2 1.9-2.1 3.1-1.7 1.6 0.6 10.3 4 6.9-0.3-1.9-2.4-9.8-3.6-12.4-3.9-1.5-0.2-2.4-1.1-2.7-2.1-0.5-0.5-0.8-1.1-0.6-2 1.4-6.2 3.9-12.2 6.7-18-3.8-3.2-7.6 3.2-8.4 6.7-1 4.9-1.3 10.2-1.1 15.2 0.1 0.9-1 0.9-1.4 0.3-0.1 1-1.1 1.7-2.2 1.1-3.4-1.8-6.6-1.9-9.5-0.5zm38.7 9.8c-0.2-0.2-0.2-0.3-0.3-0.5-2.8 2.1-8.4 1.1-12.3 0-0.2 2.2-0.3 4.4-0.3 6.7 0 2.2-2.7 3.2-4.3 1.7l-7.4-7.1c-2.1 3.3-4.5 6.1-7.4 8.9-1.9 1.7-4.5-0.1-4.1-2.4 0.4-2.1 2.8-9.4 1.3-11.2-1.1-1.3-8.7-1.5-10.5-1.8-1.5-0.3-1.9-1.7-1.6-2.9-13.4 4-32.3 8.4-38.4 22.4-10.5 24 7.9 42 29.1 48.8 20.1 6.5 44.1 4 57.6-13.7 11.2-14.8 14.1-35.6-1.4-48.9z"/>
					<path id="&lt;Compound Path&gt;" fill-rule="evenodd" class="s4" d="m1397 616.7c-9.1 11.7-24.3 12.8-37.5 8.2-10.3-3.6-20.2-12.6-18.5-24.5 1.8-12.9 15.6-19 27.2-19.1 0.2 0 0.3 0.1 0.4 0.2 2.6-2.3 6.4-2.5 9.3-0.3q0.1 0 0.1 0.1c-1.4-4.5-1.6-13.5 4.4-14.1 1.6-0.2 4.1 0.5 4.2 2.5 0.1 1.3-1.4 3.2-1.9 4.5-0.6 1.5-1 3.1-1.5 4.7 3 0.5 9.8 2.3 10.5 5.9 0.6-0.2 1.4-0.2 2 0.3 9.7 8.4 8.8 21.9 1.3 31.6zm-25.1-34.3c1.8 0.2 3.9 0.5 4.7 1.7 0.5 0.7 0.6 1.8 0.4 3.1q0.6-0.9 1.1-1.9c0.5-0.8 1.6-0.8 2.2-0.2q1.5 1.4 3.1 2.9 0.1-1.4 0.3-2.8c0.1-0.7 1.1-1.2 1.7-0.9 0.9 0.3 5.7 2.2 3.8-0.2-1-1.3-5.4-2-6.8-2.1-0.8-0.1-1.3-0.6-1.4-1.2-0.3-0.2-0.5-0.6-0.4-1.1 0.8-3.4 2.1-6.7 3.7-9.8-2.1-1.8-4.2 1.7-4.6 3.6-0.6 2.7-0.7 5.6-0.6 8.4 0 0.4-0.6 0.5-0.8 0.1-0.1 0.6-0.6 1-1.2 0.6-1.9-1-3.6-1-5.2-0.2zm21.2 5.3c-0.1-0.1-0.1-0.2-0.2-0.2-1.5 1.1-4.6 0.5-6.7-0.1-0.1 1.3-0.2 2.5-0.2 3.7 0 1.2-1.5 1.8-2.3 1l-4.1-3.9c-1.1 1.8-2.4 3.3-4 4.8-1.1 1-2.5 0-2.3-1.3 0.2-1.1 1.6-5.1 0.7-6.1-0.6-0.7-4.8-0.8-5.8-1-0.7-0.1-1-0.9-0.8-1.6-7.3 2.2-17.7 4.6-21.1 12.3-5.7 13.2 4.4 23 16 26.8 11 3.6 24.2 2.2 31.6-7.5 6.1-8.2 7.7-19.6-0.8-26.9z"/>
					<path id="&lt;Compound Path&gt;" fill-rule="evenodd" class="s4" d="m1153.5 819.6c-9.1 11.7-24.2 12.8-37.5 8.2-10.3-3.6-20.2-12.6-18.5-24.5 1.9-12.9 15.6-19 27.2-19 0.2 0 0.3 0 0.4 0.1 2.7-2.3 6.4-2.5 9.4-0.3q0 0 0 0.1c-1.4-4.5-1.6-13.5 4.4-14.1 1.6-0.2 4.1 0.5 4.2 2.5 0.1 1.3-1.4 3.2-1.9 4.5-0.5 1.5-1 3.1-1.5 4.7 3.1 0.5 9.8 2.3 10.5 5.9 0.6-0.2 1.4-0.2 2 0.3 9.7 8.4 8.8 21.9 1.3 31.6zm-25.1-34.3c1.9 0.2 3.9 0.5 4.7 1.7 0.5 0.7 0.6 1.8 0.5 3.1q0.5-0.9 1.1-1.9c0.4-0.8 1.5-0.8 2.1-0.2q1.6 1.4 3.1 2.9 0.1-1.4 0.3-2.8c0.1-0.7 1.1-1.2 1.7-0.9 0.9 0.3 5.7 2.2 3.8-0.2-1-1.3-5.3-2-6.8-2.1-0.8-0.1-1.3-0.6-1.4-1.2-0.3-0.2-0.5-0.6-0.4-1.1 0.8-3.4 2.2-6.7 3.7-9.8-2.1-1.8-4.2 1.7-4.6 3.6-0.6 2.7-0.7 5.6-0.6 8.4 0 0.5-0.6 0.5-0.8 0.1 0 0.6-0.6 1-1.2 0.6-1.8-1-3.6-1-5.2-0.2zm21.2 5.3c-0.1-0.1-0.1-0.1-0.2-0.2-1.5 1.1-4.6 0.5-6.7-0.1-0.1 1.3-0.2 2.5-0.2 3.7 0.1 1.2-1.4 1.8-2.3 1l-4.1-3.9c-1.1 1.8-2.4 3.3-4 4.8-1 1-2.5 0-2.3-1.3 0.2-1.1 1.6-5.1 0.7-6.1-0.6-0.7-4.8-0.8-5.7-1-0.8-0.1-1.1-0.9-0.9-1.6-7.3 2.2-17.7 4.6-21.1 12.3-5.7 13.2 4.4 23 16 26.8 11 3.6 24.2 2.2 31.6-7.5 6.2-8.2 7.7-19.5-0.8-26.9z"/>
					<path id="&lt;Compound Path&gt;" fill-rule="evenodd" class="s4" d="m1205.5 501.9c-9.1 11.7-24.2 12.8-37.5 8.2-10.3-3.6-20.2-12.5-18.5-24.5 1.9-12.8 15.6-19 27.2-19 0.2 0 0.3 0.1 0.4 0.1 2.7-2.3 6.4-2.4 9.4-0.2q0 0 0 0c-1.4-4.4-1.6-13.4 4.4-14.1 1.6-0.2 4.1 0.6 4.2 2.5 0.1 1.4-1.4 3.3-1.9 4.5-0.5 1.6-1 3.2-1.5 4.8 3.1 0.5 9.8 2.2 10.5 5.9 0.6-0.3 1.4-0.3 2 0.3 9.7 8.4 8.8 21.8 1.3 31.5zm-25.1-34.3c1.9 0.2 3.9 0.6 4.7 1.7 0.5 0.8 0.6 1.9 0.5 3.1q0.5-0.9 1.1-1.8c0.4-0.8 1.5-0.9 2.1-0.3q1.6 1.5 3.1 3 0.1-1.4 0.3-2.8c0.1-0.7 1.1-1.2 1.7-1 0.9 0.4 5.7 2.2 3.8-0.2-1-1.2-5.3-1.9-6.8-2.1-0.8-0.1-1.3-0.6-1.4-1.1-0.3-0.3-0.5-0.7-0.4-1.1 0.8-3.5 2.2-6.7 3.7-9.9-2.1-1.7-4.2 1.8-4.6 3.7-0.6 2.7-0.7 5.6-0.6 8.3 0 0.5-0.6 0.5-0.8 0.2 0 0.5-0.6 0.9-1.2 0.6-1.8-1-3.6-1-5.2-0.3zm21.2 5.4c-0.1-0.1-0.1-0.2-0.2-0.3-1.5 1.2-4.6 0.6-6.7 0-0.1 1.2-0.2 2.4-0.2 3.7 0.1 1.2-1.4 1.7-2.3 0.9l-4.1-3.9c-1.1 1.8-2.4 3.4-4 4.9-1 0.9-2.5 0-2.3-1.3 0.2-1.2 1.6-5.1 0.7-6.1-0.6-0.8-4.8-0.9-5.7-1-0.8-0.2-1.1-0.9-0.9-1.6-7.3 2.2-17.7 4.6-21.1 12.3-5.7 13.1 4.4 23 16 26.7 11 3.6 24.2 2.2 31.6-7.5 6.2-8.1 7.7-19.5-0.8-26.8z"/>
				</g>
			</g>
			<g id="&lt;Group&gt;">
				<g id="&lt;Group&gt;">
					<path id="&lt;Path&gt;" class="s5" d="m2222.7 26.7c-24.2-22.4-56.5-33.6-89.1-34.9-36.1-1.4-71.1 9.5-102.1 27.5-73.1 42.5-117.6 116.7-169.3 180.9-50.5 62.6-114.7 122.6-197.6 134.3-36.4 5.1-74.4-0.9-106.5-19.1-15.7-9-29.8-20.9-40.8-35.3-11.3-14.9-19.2-32.1-24.6-50-21.7-71.2-5.5-152.1-43-218.9-4.4-7.8-9.5-15.1-15.2-21.9-1.3-1.5-3.4 0.5-2.2 2 24.8 29.3 34.4 67.5 39.2 104.8 4.8 37.4 5.1 75.3 12.7 112.4 7.3 35.3 21.9 69.5 49.8 93.4 26.5 22.8 61.1 35.2 95.8 37.1 79.3 4.3 149.9-43.6 201.9-99 58.3-62.3 99.8-140.2 166.8-194.3 29.9-24 64.9-43.2 103.1-49.1 33.5-5.2 69.4-0.4 98.8 17 7.2 4.3 14 9.4 20.1 15.1 1.4 1.2 3.6-0.7 2.2-2z"/>
				</g>
			</g>
			<g id="&lt;Group&gt;">
				<g id="&lt;Group&gt;">
					<path id="&lt;Path&gt;" class="s1" d="m624.5 1112.5c21.7 24.8 52.7 39.3 85 44 35.7 5.2 71.7-2 104.4-16.6 77.1-34.7 129.2-103.8 187.3-162.2 56.7-57 126.9-110 210.6-112.9 36.7-1.3 73.8 8.6 103.8 30.1 14.7 10.6 27.5 23.8 36.9 39.4 9.7 15.9 15.8 33.9 19.3 52.2 14.1 73.1-10.4 151.9 19.9 222.2 3.5 8.2 7.8 16 12.8 23.4 1.1 1.6 3.4-0.2 2.4-1.8-21.6-31.7-27.1-70.7-28-108.3-1-37.7 2.8-75.5-0.9-113.1-3.5-35.9-14.5-71.4-39.7-98.1-24-25.5-57.1-41.4-91.5-46.9-78.4-12.5-153.6 27.7-211.1 77.4-64.5 55.8-114 128.9-186.3 175.7-32.1 20.8-69 36.2-107.6 38.1-33.8 1.7-69-6.9-96.4-27.2-6.8-5.1-13-10.8-18.5-17.1-1.3-1.4-3.6 0.3-2.4 1.7z"/>
				</g>
			</g>
		</g>
	</g>
	<g id="TEXTS">
		<g id="&lt;Group&gt;">
			<g id="&lt;Group&gt;">
				<g id="&lt;Group&gt;">
					<path id="&lt;Compound Path&gt;" fill-rule="evenodd" class="s6" d="m1077.4 741.7c9.4-8.9 9.2-24.3 18.6-33.5 8.2-8.2 20.4-9.1 31.3-8 0.5 0 0.8 0.3 0.9 0.7q0.2 0.2 0.2 0.6c0.3 0.1 0.6 0.5 0.5 0.9-0.5 7-3 12.8-6.7 17.6q-0.1 0.1-0.1 0.1c-0.1 0.3-0.3 0.5-0.5 0.6q-2.6 3.2-5.9 5.9-0.2 0.4-0.6 0.4c-9.5 7.5-22.4 11.9-33.8 14.8-0.4 0.1-0.7 0-1-0.2q-0.8 0.9-1.7 1.8c-1 0.9-2.2-0.8-1.2-1.7zm5.2-3.2c4.2-2.1 8.3-4.5 12.2-7q-0.1 0-0.3 0-3.2 0.5-6.3 1.4c-1.3 0.4-2-1.6-0.7-2q3.3-1 6.8-1.5c1-0.1 1.4 1.2 0.8 1.8q4.7-3 9-6.5c-4.2-1.4-8.6-1.5-12.9-0.3-1.3 0.4-2.1-1.5-0.7-1.9 5.1-1.5 10.3-1.3 15.4 0.5q0.1 0.1 0.1 0.1 3.9-3.2 7.4-6.7c-5.8-2.2-11.7-3.5-17.9-4q-0.1 0-0.2-0.1-1.6 1.9-2.9 4.2c-3.8 6.9-5.6 15.3-9.8 22zm32.1-20.4c-2.1 2.1-4.3 4.1-6.6 6.1q0 0.1 0 0.2-0.1 3-1.2 5.6 3.7-2.1 7-4.6 0.9-3.6 0.8-7.3zm6.2-6.7q-2.3 2.6-4.7 5.1c0.3 0.1 0.6 0.4 0.6 0.8q0.1 3-0.3 5.8 2-1.9 3.8-4.1c0.8-2.5 1-5 0.6-7.6zm5.7-7q-1.9 2.5-3.9 5 0 0 0 0 0.6 2.6 0.5 5.2c1.6-3.1 2.8-6.4 3.4-10.2zm-18.5-0.6c1.3 0.2 2.6 0.6 4 1q4.4 1.5 8.9 3 0.1 0 0.2 0.1 2.3-2.8 4.4-5.7c-6.1-0.5-12.1-0.1-17.5 1.6zm-11.1 6.6q9.2 0.9 17.8 4.2 0.1 0.1 0.2 0.2 2.4-2.6 4.7-5.2-3.1-1.1-6.2-2.1c-2.7-0.8-5.4-2.1-8.2-1.6-0.5 0.1-0.9-0.2-1-0.6-2.7 1.3-5.1 2.9-7.3 5.1zm8.8 15.6c-5.2 4.2-10.7 8-16.6 11.4 5-1.6 10.1-3.5 14.8-5.9 0-0.1 0-0.3 0.1-0.5q1.3-2.4 1.7-5z"/>
				</g>
				<path id="&lt;Compound Path&gt;" fill-rule="evenodd" class="s1" d="m1146.5 737.2c1.5 8.6-2.1 16.7-4.8 24.7-0.1 0.4-0.4 0.6-0.7 0.6-0.5 1.7-1 3.3-1.7 4.9-0.6 1.2-2.5 0.4-2-0.8q0.1-0.1 0.1-0.2c-0.1-0.2-0.3-0.4-0.3-0.6-0.9-8.7-7.2-15.7-8.5-24.4-1.1-7.7 0.3-15.4 3.5-22.4 0.6-1.1 2.3-0.5 2 0.7q0.2-0.1 0.5 0c0.3-0.3 0.8-0.4 1.2 0 5.7 4.3 9.5 10.4 10.7 17.5zm-2.4 10.4c-0.8-0.1-1.2-1-0.8-1.6q-0.2-0.1-0.3-0.4-0.4-0.4-0.9-0.9-0.9-1-1.9-1.9c-0.6-0.6-1.3-1.1-1.9-1.7 0.2 1.9 0.4 3.9 0.5 5.8 0.2 0 0.5 0.1 0.6 0.3q2 2.6 3.3 5.5c0.5-1.7 1-3.4 1.4-5.1zm-2.5 8.2q-0.9-2.8-2.4-5.2 0.3 4.5 0.6 9c0.1-0.3 0.4-0.5 0.7-0.6q0.6-1.6 1.1-3.2zm-7.6-4.1q0.8-2.3 1.8-4.6c0.1-0.4 0.5-0.6 0.9-0.6q-0.3-3-0.6-6c-1.1 1.9-2.1 3.8-3.3 5.6-0.3 0.4-0.6 0.5-0.8 0.5 0.5 1.7 1.2 3.4 2 5.1zm-2.6-7.3q2.2-3.6 4.1-7.3 0-0.1 0.1-0.2-0.2-2-0.5-3.9c-1.3 1.8-2.6 3.6-3.7 5.6-0.2 0.4-0.5 0.5-0.9 0.5q0.2 2.7 0.9 5.3zm13.2-0.1c0.2-1.8 0.3-3.5 0-5.3 0-0.5-0.1-1-0.2-1.5q-3.7-2.4-7.2-5 0.4 2.8 0.7 5.5 3.1 2.5 5.9 5.4c0.3 0.3 0.5 0.6 0.8 0.9zm-9-22q0.7 3.9 1.3 7.9c0.3-0.1 0.6-0.1 1 0.2q2.8 2.1 5.8 4.1c-1.5-4.8-4.3-9-8.1-12.2zm-5.2 14c1.3-2.2 2.7-4.3 4.3-6.3q-0.6-4.2-1.3-8.4c-2 4.7-3 9.6-3 14.7zm7.2 23.2q-0.2-4.8-0.6-9.6c-0.4 0.9-0.7 1.8-1.1 2.7-0.2 0.6-0.7 0.7-1.2 0.6 1.1 2 2.1 4.1 2.9 6.3z"/>
			</g>
			<g id="&lt;Group&gt;">
				<g id="&lt;Group&gt;">
					<path id="&lt;Compound Path&gt;" fill-rule="evenodd" class="s6" d="m629.7 889.8c13.8-25 3-57.2 16.5-83 11.9-22.6 36.7-32.7 60.4-37.9 1.1-0.2 1.8 0.2 2.3 0.9q0.6 0.4 0.9 1c0.8 0.2 1.5 0.8 1.7 1.8 3.5 15 2.2 28.8-2.3 41.4q0 0.2 0 0.3c0 0.7-0.3 1.3-0.8 1.6-2.2 5.7-5 11.1-8.4 16.3-0.1 0.6-0.4 1-0.9 1.3-14.9 22.2-39.2 40-61.2 53.8-0.7 0.4-1.4 0.5-2.1 0.2-0.7 1.7-1.4 3.4-2.3 5-1.5 2.6-5.2-0.1-3.8-2.7zm8.8-10.3c7.5-7.2 14.4-14.9 20.9-23-0.2 0.2-0.3 0.3-0.5 0.4q-6.5 3.1-12.3 7.1c-2.5 1.7-5.4-1.9-3-3.6q6.4-4.4 13.3-7.7c2.2-1.1 3.8 1.4 3 3.1 5.1-6.4 10-13 14.5-19.8-9.8 0-19 2.7-27.2 8.2-2.5 1.7-5.5-1.9-3-3.6 9.9-6.6 20.9-9.8 32.8-9.2 0.1 0 0.2 0.1 0.4 0.1q5.9-9.3 10.9-19.1c-13.6-0.7-26.9 0.5-40.2 3.6-0.2 0-0.4 0-0.6 0-1.3 3.3-2.4 6.9-3.2 10.8-3.4 17-1.4 35.8-5.8 52.7zm53.7-64.5c-3.1 5.9-6.3 11.7-9.8 17.3 0.1 0.2 0.2 0.3 0.3 0.5 1.1 4.1 1.5 8.3 1.2 12.6 4.2-4.6 8.1-9.5 11.5-14.5-0.3-5.5-1.4-10.8-3.2-15.9zm8.6-18.1q-3.1 7-6.5 13.8c0.8 0.1 1.5 0.4 1.8 1.4 1.6 4 2.6 8.1 3.2 12.4q3.1-5.5 5.2-11.2c0-5.8-1.3-11.3-3.7-16.4zm7.1-18.6c-1.5 4.4-3.1 8.8-4.8 13q0.1 0.1 0.1 0.2c2 3.3 3.4 6.8 4.4 10.4 1.4-7.4 1.6-15.3 0.3-23.6zm-39.3 11.2c2.9-0.5 5.9-0.5 9.1-0.5q10.4 0 20.7 0.1c0.2 0 0.4 0.1 0.5 0.1q3-7.4 5.5-15c-13.1 3.2-25.6 8-35.8 15.3zm-18.8 21.4c13.3-2.8 26.7-3.9 40.3-3.2 0.2 0.1 0.3 0.1 0.5 0.2q3.4-7 6.4-14.1-7.3-0.1-14.5-0.1c-6.1 0-12.7-0.9-18.2 2.1-1.1 0.6-2 0.2-2.6-0.6-4.7 4.5-8.8 9.6-11.9 15.7zm29.1 26.7c-8.1 12.4-17.1 24.1-27.3 35.1 9.5-6.7 18.9-14 27.2-22.2-0.2-0.4-0.3-0.8-0.2-1.3 0.8-3.9 0.9-7.7 0.3-11.6z"/>
				</g>
				<path id="&lt;Compound Path&gt;" fill-rule="evenodd" class="s1" d="m771.9 833.8c8.9 17 6.7 36.4 6.6 55 0 0.9-0.5 1.4-1 1.7 0 3.9-0.1 7.7-0.5 11.5-0.3 3-4.9 2.6-4.6-0.4q0-0.2 0-0.5c-0.4-0.2-0.8-0.5-1-1-7.7-17.5-25.7-28-34.2-45.5-7.5-15.4-9.9-32.4-7.8-49.3 0.4-2.9 4.5-2.6 4.6 0q0.5-0.2 1-0.2c0.5-0.9 1.4-1.4 2.6-1 14.8 5.4 27 15.6 34.3 29.7zm1.9 23.4c-1.7 0.4-3.2-1.3-2.8-2.8-0.3-0.1-0.5-0.3-0.9-0.6q-1.1-0.7-2.3-1.3-2.7-1.5-5.4-2.8c-1.7-0.8-3.4-1.4-5.1-2.1 1.7 3.8 3.3 7.7 4.9 11.6 0.5-0.1 1 0 1.6 0.4q5.8 4 10.4 9.2c0-3.9-0.1-7.8-0.4-11.6zm0.3 18.9c-2.5-3.5-5.4-6.6-8.6-9.3 2.5 6.2 4.9 12.4 7.3 18.6 0.1-0.8 0.5-1.5 1.1-1.8q0.1-3.8 0.2-7.5zm-18.7-3.5q0.1-5.4 0.6-10.8c0.1-1 0.7-1.6 1.5-1.9-1.8-4.1-3.5-8.2-5.4-12.3-0.8 4.8-1.8 9.5-3.1 14.2-0.2 0.8-0.8 1.2-1.4 1.4 2.4 3.3 5 6.4 7.8 9.4zm-10.5-13.6q2.4-8.9 3.7-18c0-0.3 0.1-0.4 0.2-0.6-1.2-2.6-2.4-5.2-3.7-7.8-1.6 4.6-3.1 9.3-4 14.2-0.2 0.9-0.8 1.5-1.5 1.8 1.4 3.5 3.3 7 5.3 10.4zm27.8-9.1c-0.8-3.8-1.9-7.5-3.5-11.1-0.5-1.1-1.1-2.1-1.6-3.1q-9.3-2.4-18.4-5.5c1.7 3.7 3.4 7.4 5.1 11.1q8.3 3.1 16.2 7.4c0.6 0.3 1.4 0.7 2.2 1.2zm-33.8-40.2q4.1 7.9 8.1 15.9c0.5-0.4 1.2-0.7 2.1-0.4 4.9 1.8 9.9 3.3 15 4.7-6.3-9-14.9-15.9-25.2-20.2zm-1.5 32.9c1.2-5.4 2.7-10.8 4.9-15.9q-4.2-8.6-8.6-17c-0.9 11.2 0.3 22.4 3.7 32.9zm30.8 43.9q-3.7-10-7.8-19.8c-0.1 2.2-0.3 4.3-0.3 6.5-0.1 1.4-1.1 2-2.2 2 3.6 3.7 7.1 7.3 10.3 11.3z"/>
			</g>
			<g id="&lt;Group&gt;">
				<path id="&lt;Compound Path&gt;" fill-rule="evenodd" class="s1" d="m1177.4 770.8c-0.9-8.7 3.3-16.5 6.4-24.4 0.1-0.3 0.4-0.5 0.7-0.5 0.6-1.6 1.3-3.2 2.1-4.8 0.6-1.2 2.5-0.3 1.9 0.9q-0.1 0.1-0.1 0.2c0.1 0.2 0.2 0.4 0.2 0.6 0.4 8.7 6.3 16.1 7 24.9 0.6 7.7-1.2 15.3-4.9 22.1-0.7 1.2-2.4 0.4-2-0.7q-0.2 0-0.4-0.1c-0.4 0.3-0.9 0.3-1.3 0-5.3-4.8-8.8-11.1-9.6-18.2zm3.1-10.2c0.8 0.1 1.2 1 0.8 1.6q0.1 0.1 0.2 0.4 0.4 0.5 0.8 1 0.9 1 1.8 2c0.6 0.6 1.2 1.2 1.8 1.8-0.1-2-0.1-3.9-0.2-5.8-0.2 0-0.4-0.1-0.5-0.4q-1.8-2.6-2.9-5.6c-0.7 1.6-1.3 3.3-1.8 5zm3-8.1q0.8 2.9 2.1 5.4 0-4.6 0-9.1c-0.1 0.3-0.4 0.5-0.8 0.6q-0.6 1.6-1.3 3.1zm7.3 4.6q-0.9 2.3-2 4.4c-0.2 0.5-0.6 0.6-0.9 0.6q0 3 0.2 6.1c1.1-1.9 2.3-3.7 3.6-5.5 0.3-0.3 0.6-0.4 0.9-0.3-0.5-1.8-1.1-3.6-1.8-5.3zm2.2 7.5q-2.4 3.4-4.5 7-0.1 0.1-0.2 0.2 0.1 1.9 0.3 3.9c1.4-1.7 2.8-3.4 4-5.3 0.2-0.4 0.6-0.5 1-0.5q-0.1-2.7-0.6-5.3zm-13.2-0.8c-0.3 1.8-0.5 3.5-0.4 5.3 0.1 0.5 0.1 1 0.2 1.5q3.5 2.6 6.9 5.4-0.2-2.7-0.4-5.5-3-2.7-5.6-5.8c-0.2-0.2-0.4-0.5-0.7-0.9zm7.6 22.6q-0.4-4-0.8-8.1c-0.3 0.1-0.6 0.1-0.9-0.2q-2.7-2.3-5.6-4.4c1.2 4.8 3.7 9.2 7.3 12.7zm6.1-13.7c-1.4 2.1-3 4.1-4.7 6q0.3 4.2 0.8 8.5c2.2-4.5 3.6-9.4 3.9-14.5zm-5.8-23.6q0 4.8 0.1 9.6c0.4-0.8 0.8-1.7 1.2-2.6 0.2-0.6 0.8-0.7 1.2-0.5-0.9-2.2-1.8-4.3-2.5-6.5z"/>
			</g>
			<g id="&lt;Group&gt;">
				<path id="&lt;Compound Path&gt;" fill-rule="evenodd" class="s1" d="m755.4 750.1c10.6-4.5 22.1-2.4 33.2-1.6 0.5 0.1 0.8 0.4 1 0.7 2.3 0.2 4.6 0.4 6.8 0.8 1.8 0.3 1.4 3-0.4 2.7q-0.2 0-0.3 0c-0.1 0.2-0.3 0.4-0.7 0.5-10.8 3.9-17.8 14.2-28.6 18.6-9.5 3.8-19.8 4.5-29.8 2.5-1.7-0.3-1.3-2.8 0.2-2.7q-0.1-0.3-0.1-0.6c-0.5-0.4-0.7-0.9-0.4-1.6 3.8-8.6 10.4-15.5 19.1-19.3zm14.1-0.1c0.2 1-0.9 1.9-1.8 1.6-0.1 0.1-0.2 0.3-0.4 0.5q-0.4 0.6-0.9 1.3-0.9 1.5-1.8 3.1c-0.6 1-1 2-1.5 3 2.3-0.9 4.7-1.7 7.1-2.5 0-0.3 0.1-0.6 0.3-0.9q2.6-3.3 6-5.9c-2.4-0.1-4.7-0.2-7-0.2zm11.3 0.6q-3.3 2.1-5.9 4.8 5.7-1.9 11.4-3.6c-0.5-0.1-0.8-0.4-1-0.8q-2.3-0.2-4.5-0.4zm-2.9 11q-3.2-0.2-6.4-0.8c-0.6-0.1-0.9-0.5-1-0.9-2.6 0.8-5.1 1.7-7.6 2.6 2.8 0.8 5.5 1.6 8.3 2.5 0.5 0.2 0.7 0.5 0.8 0.9 2.1-1.3 4-2.7 5.9-4.3zm-8.6 5.7q-5.2-1.7-10.6-2.9c-0.1 0-0.2-0.1-0.3-0.2q-2.4 1-4.8 1.9c2.7 1.2 5.4 2.2 8.3 3 0.6 0.1 0.9 0.5 1 1 2.2-0.7 4.4-1.7 6.4-2.8zm-4.2-16.9c-2.3 0.3-4.6 0.8-6.8 1.6-0.6 0.2-1.2 0.5-1.9 0.8q-1.8 5.5-4.1 10.8 3.4-1.4 6.9-2.6 2.2-4.9 5.1-9.4c0.2-0.3 0.5-0.8 0.8-1.2zm-25.4 18.4q4.9-2.1 9.8-4.1c-0.2-0.3-0.3-0.8-0.1-1.3 1.2-2.9 2.4-5.8 3.4-8.7-5.6 3.3-10.1 8.2-13.1 14.1zm19.6 2.4c-3.2-1-6.4-2.2-9.4-3.7q-5.2 2.2-10.4 4.4c6.6 1.1 13.3 0.8 19.8-0.7zm27.5-16.6q-6.1 1.8-12.2 3.8c1.3 0.2 2.6 0.4 3.9 0.5 0.8 0.1 1.2 0.7 1.1 1.4 2.3-2 4.7-4 7.2-5.7z"/>
			</g>
			<g id="&lt;Group&gt;">
				<path id="&lt;Compound Path&gt;" fill-rule="evenodd" class="s1" d="m1183.5 693.6c8.4 2.4 14.1 9.2 20.1 15.1 0.3 0.3 0.4 0.6 0.3 0.9 1.2 1.2 2.5 2.4 3.6 3.7 0.9 1.1-0.7 2.4-1.6 1.4q-0.1-0.1-0.1-0.1c-0.2 0-0.4 0-0.7-0.1-8.2-2.9-17.2-0.3-25.6-3-7.4-2.3-13.8-6.9-18.6-12.9-0.9-1 0.5-2.3 1.4-1.5q0.1-0.2 0.2-0.4c-0.1-0.4 0-0.9 0.6-1.1 6.3-3.2 13.5-4 20.4-2zm8.3 6.7c-0.4 0.7-1.4 0.7-1.8 0.1q-0.2 0.1-0.5 0.1-0.6 0.1-1.2 0.3-1.3 0.4-2.5 0.9c-0.8 0.3-1.6 0.7-2.3 1 1.8 0.7 3.5 1.4 5.3 2 0.2-0.1 0.3-0.3 0.6-0.3q3.2-0.7 6.3-0.6c-1.2-1.2-2.5-2.4-3.9-3.5zm6.3 5.8q-2.9-0.3-5.8 0 4.3 1.6 8.4 3.4c-0.2-0.3-0.3-0.6-0.2-1q-1.2-1.2-2.4-2.4zm-7 5.1q-1.8-1.7-3.4-3.6c-0.3-0.3-0.3-0.7-0.1-1.1q-2.9-1-5.7-2.1c1.2 1.8 2.5 3.6 3.6 5.5 0.2 0.3 0.2 0.6 0 0.9 1.9 0.3 3.7 0.4 5.6 0.4zm-7.8-0.8q-2.2-3.6-4.7-6.9-0.1-0.1-0.2-0.2-1.8-0.7-3.7-1.3c1 2 2.1 4 3.4 5.8 0.3 0.3 0.3 0.7 0.1 1.1q2.5 0.9 5.1 1.5zm5.8-12c-1.5-0.9-3.1-1.7-4.8-2.3-0.5-0.2-1-0.3-1.5-0.5q-3.7 2.4-7.6 4.3 2.7 0.9 5.3 1.8 3.6-1.7 7.4-3c0.3-0.1 0.7-0.2 1.2-0.3zm-23.8-1.5q3.9 1.1 7.7 2.3c0.1-0.3 0.2-0.6 0.6-0.8q3.2-1.6 6.2-3.4c-4.9-0.8-9.9-0.1-14.5 1.9zm10.3 10.8c-1.4-2.1-2.7-4.3-3.7-6.6q-4.1-1.3-8.2-2.5c3.4 3.8 7.4 6.9 11.9 9.1zm24 3.6q-4.4-1.9-8.9-3.6c0.7 0.7 1.3 1.5 2 2.1 0.5 0.5 0.4 1 0 1.4 2.3 0 4.6-0.1 6.9 0.1z"/>
			</g>
		</g>
		<g id="&lt;Group&gt;">
			<text id="" style="transform: matrix(1,0,0,1,1015.85,483.284)" >
			</text>
			<g id="&lt;Group&gt;">
				<path id="&lt;Compound Path&gt;" fill-rule="evenodd" class="s5" d="m894.7 496.9c0.4 1.4-1.8 2.2-2.2 0.8q0-0.2-0.1-0.5c-0.2 0.4-0.4 0.6-0.9 0.7-12.9 2.1-26.3-0.3-37.6-7.1-10.7-6.5-17.4-17.5-26.8-25.5-0.4 0-0.7-0.1-1.1-0.2-0.8-0.2-1-0.8-0.9-1.4q-2.2-1.7-4.7-3.2c-1.1-0.6-0.6-2.2 0.7-2.2 27.9 1.9 64.7 6.7 73.6 38.6zm-69.5-36q1.4 1.1 2.8 2.3c10.9 2.1 21.4 5.5 31.3 10.1q-1.5-2.6-3.1-5.1c-0.7-1.3 1.1-2.6 1.9-1.3q2.6 4.1 5.1 8.3 4.6 2.3 9.1 5-1.9-3.2-3.9-6.4c-0.7-1.2 1.2-2.6 1.9-1.3q2.3 3.8 4.6 7.6c0.4 0.6 0.1 1.1-0.3 1.5q3.5 2.2 6.9 4.6c0.5 0 1 0.3 1.1 0.8q0.1 0 0.1 0-1-3-2.1-6c-0.3-0.9 0.5-1.6 1.3-1.6-14-13.6-37.1-17-56.7-18.5zm25.9 24.6c5.8-2.6 11.9-4 18.2-4.4q-2.9-1.7-5.9-3.2c-0.2 0.4-0.6 0.8-1.2 0.7-6.4-1-12.7-0.8-19 0.3 2.2 2.3 4.5 4.5 7 6.5q0.3 0.2 0.5 0.4 0.1-0.2 0.4-0.3zm-19.7-19.3c3.4 3.5 6.6 7.2 10 10.8q0.1-0.1 0.4-0.2c6-1.2 12-1.4 18-0.8-9-4.3-18.6-7.5-28.4-9.8zm51.5 14.3q1.2 3.4 2.3 6.8c0.2 0.6-0.1 1.1-0.5 1.3 1.8 1.4 3.7 2.8 5.4 4.3 1.1 0.9-0.3 2.7-1.5 1.7q-3.7-3.1-7.5-5.9-7 2.4-13.9 4.7c-1.4 0.5-2.2-1.7-0.8-2.2q6.1-2 12.3-4.1-3.2-2.2-6.5-4.2c-0.1 0.2-0.4 0.3-0.8 0.3-6.4 0.2-12.6 1.6-18.6 4.1 11.2 7.7 25.1 10.5 38.5 8.3q0.3 0 0.6 0.1c-2-6.1-5.1-11.1-9-15.2z"/>
				<g id="&lt;Group&gt;">
					<path id="&lt;Compound Path&gt;" fill-rule="evenodd" class="s6" d="m930.1 415.2c-7.7 11.9-3.5 28.2-11.1 40.5-6.6 10.8-19.3 14.9-31.2 16.6-0.5 0.1-0.9-0.2-1.1-0.5q-0.3-0.2-0.4-0.6c-0.4-0.1-0.7-0.4-0.8-0.9-1.2-7.6-0.1-14.3 2.6-20.4q0-0.1 0-0.1c0.1-0.4 0.2-0.6 0.5-0.8q1.9-4.1 4.7-7.7 0.1-0.5 0.5-0.7c8.1-10.4 20.8-18.4 32.1-24.4 0.4-0.2 0.8-0.2 1.1-0.1q0.6-1.2 1.3-2.3c0.8-1.3 2.6 0.2 1.8 1.4zm-4.7 4.8c-4 3.3-7.7 6.9-11.2 10.6q0.2-0.1 0.3-0.1 3.3-1.3 6.3-3.1c1.3-0.8 2.6 1.1 1.4 1.9q-3.3 1.9-6.9 3.3c-1.1 0.5-1.8-0.8-1.3-1.6q-4.2 4.4-7.9 9.2c4.8 0.4 9.5-0.6 13.7-3 1.3-0.8 2.7 1.1 1.4 1.9-5.1 2.9-10.7 4-16.5 3.3q-0.1 0-0.2 0-3.3 4.4-6.1 9.1c6.7 0.7 13.3 0.6 20-0.4q0.1 0 0.3 0 1.2-2.4 2-5.2c2.2-8.3 1.9-17.7 4.7-25.9zm-28.9 30c1.8-2.8 3.6-5.5 5.5-8.2q-0.1-0.1-0.1-0.3-0.6-3.1-0.2-6.2-3.4 3.2-6.2 6.8-0.1 4 1 7.9zm-4.8 8.7q1.7-3.4 3.6-6.6c-0.3-0.1-0.6-0.3-0.8-0.8-0.6-2-1-4.1-1.1-6.2q-1.7 2.6-3 5.3c-0.2 2.9 0.3 5.6 1.3 8.3zm-4.2 8.9q1.3-3.2 2.8-6.3 0 0 0 0-1.3-2.6-1.8-5.4c-1 3.7-1.4 7.5-1 11.7zm19.8-4.2c-1.4 0.2-2.9 0.1-4.5 0q-5.1-0.4-10.2-0.8-0.2 0-0.3-0.1-1.7 3.6-3.2 7.2c6.6-1 12.9-3 18.2-6.3zm10.1-9.9q-10 1.4-20 0.2-0.2-0.1-0.3-0.1-1.9 3.3-3.7 6.7 3.6 0.3 7.2 0.6c3 0.2 6.2 0.9 9.1-0.4 0.5-0.3 1 0 1.2 0.4 2.5-2.1 4.7-4.5 6.5-7.4zm-13.5-14.2c4.5-5.8 9.3-11.3 14.7-16.4-4.9 3-9.8 6.3-14.2 10 0.1 0.2 0.1 0.4 0.1 0.7q-0.8 2.8-0.6 5.7z"/>
				</g>
				<path id="&lt;Compound Path&gt;" fill-rule="evenodd" class="s1" d="m857.8 437.9c-3.8-8.7-2-18.2-1.3-27.4 0-0.4 0.3-0.7 0.6-0.8 0.1-1.9 0.3-3.8 0.6-5.7 0.2-1.5 2.5-1.1 2.3 0.4q0 0.1-0.1 0.2c0.2 0.1 0.4 0.3 0.5 0.6 3.2 8.9 11.7 14.7 15.3 23.6 3.2 7.9 3.8 16.4 2.1 24.7-0.3 1.4-2.3 1.1-2.3-0.1q-0.2 0-0.4 0c-0.3 0.4-0.8 0.7-1.4 0.4-7.1-3.2-12.8-8.7-15.9-15.9zm-0.1-11.6c0.9-0.1 1.5 0.7 1.3 1.5q0.2 0 0.4 0.3 0.6 0.4 1.1 0.7 1.3 0.8 2.6 1.6c0.8 0.4 1.6 0.8 2.4 1.2-0.7-1.9-1.3-3.9-2-5.9-0.3 0-0.5 0-0.7-0.2q-2.8-2.2-4.9-5c-0.1 1.9-0.2 3.9-0.2 5.8zm0.5-9.4q1.7 2.7 4 4.9-1.6-4.7-3-9.4c-0.1 0.4-0.3 0.7-0.6 0.9q-0.2 1.8-0.4 3.6zm9.1 2.4q-0.2 2.7-0.6 5.3c-0.1 0.5-0.5 0.8-0.8 0.9q1 3.2 2.2 6.3c0.6-2.3 1.2-4.6 2-6.9 0.2-0.4 0.4-0.6 0.8-0.7-1.1-1.7-2.3-3.3-3.6-4.9zm4.7 7.1q-1.4 4.3-2.4 8.8 0 0.1-0.1 0.3 0.7 2 1.5 4c1-2.3 1.9-4.5 2.5-6.9 0.1-0.5 0.5-0.7 0.8-0.8-0.6-1.9-1.4-3.6-2.3-5.4zm-14 3.5c0.2 1.9 0.7 3.8 1.3 5.7 0.2 0.5 0.5 1 0.7 1.5q4.5 1.5 8.9 3.4-1.1-2.8-2.1-5.7-4-1.8-7.8-4.2c-0.2-0.2-0.6-0.4-1-0.7zm15.3 21.1q-1.8-4.1-3.4-8.2c-0.3 0.2-0.7 0.3-1.1 0.1q-3.6-1.5-7.3-2.8c2.8 4.7 6.9 8.4 11.8 10.9zm1.9-16.2c-0.8 2.6-1.8 5.2-3 7.7q1.8 4.3 3.6 8.7c0.9-5.5 0.7-11.1-0.6-16.4zm-13.7-22.8q1.5 5.1 3.2 10c0.1-1 0.3-2.1 0.4-3.1 0-0.7 0.6-1 1.1-1-1.6-1.9-3.3-3.8-4.7-5.9z"/>
			</g>
		</g>
		<g id="&lt;Group&gt;">
			<g id="&lt;Group&gt;">
				<text id="" style="transform: matrix(1,0,0,1,960,623.272)" >
				</text>
			</g>
		</g>
		<text id="" style="transform: matrix(1,0,0,1,960.407,705.374)" >
		</text>
		<text id="" style="transform: matrix(1,0,0,1,959.411,671.919)" >
		</text>
	</g>
</svg>